<svg width="709" height="35" viewBox="0 0 709 35" fill="none" xmlns="http://www.w3.org/2000/svg">
<path d="M4.43623 30.4781C6.34023 30.4781 7.61423 28.8541 7.61423 25.8301C7.61423 22.8061 6.34023 21.2521 4.43623 21.2521C2.53223 21.2521 1.25823 22.8061 1.25823 25.8301C1.25823 28.8541 2.53223 30.4781 4.43623 30.4781ZM4.43623 28.8821C3.75023 28.8821 3.20423 28.2521 3.20423 25.8301C3.20423 23.3941 3.75023 22.8481 4.43623 22.8481C5.13623 22.8481 5.66823 23.3941 5.66823 25.8301C5.66823 28.2521 5.13623 28.8821 4.43623 28.8821ZM10.7687 26.8101C12.0847 26.8101 13.0507 25.7321 13.0507 23.8981C13.0507 22.0781 12.0847 21.0141 10.7687 21.0141C9.45272 21.0141 8.50072 22.0781 8.50072 23.8981C8.50072 25.7321 9.45272 26.8101 10.7687 26.8101ZM10.7687 25.6621C10.3067 25.6621 9.92872 25.2001 9.92872 23.8981C9.92872 22.6101 10.3067 22.1621 10.7687 22.1621C11.2307 22.1621 11.6087 22.6101 11.6087 23.8981C11.6087 25.2001 11.2307 25.6621 10.7687 25.6621ZM12.2807 30.4781L17.1947 21.0141H16.0187L11.0907 30.4781H12.2807ZM17.5027 30.4781C18.8187 30.4781 19.7847 29.4001 19.7847 27.5661C19.7847 25.7461 18.8187 24.6821 17.5027 24.6821C16.1867 24.6821 15.2207 25.7461 15.2207 27.5661C15.2207 29.4001 16.1867 30.4781 17.5027 30.4781ZM17.5027 29.3301C17.0407 29.3301 16.6627 28.8681 16.6627 27.5661C16.6627 26.2641 17.0407 25.8301 17.5027 25.8301C17.9647 25.8301 18.3427 26.2641 18.3427 27.5661C18.3427 28.8681 17.9647 29.3301 17.5027 29.3301Z" fill="#1E1E1E"/>
<path d="M66.1402 30.3101H71.7962V28.6441H70.1302V21.4201H68.6182C67.9882 21.7981 67.3722 22.0501 66.4062 22.2321V23.5061H68.0722V28.6441H66.1402V30.3101ZM76.2526 30.4781C78.1566 30.4781 79.4306 28.8541 79.4306 25.8301C79.4306 22.8061 78.1566 21.2521 76.2526 21.2521C74.3486 21.2521 73.0746 22.8061 73.0746 25.8301C73.0746 28.8541 74.3486 30.4781 76.2526 30.4781ZM76.2526 28.8821C75.5666 28.8821 75.0206 28.2521 75.0206 25.8301C75.0206 23.3941 75.5666 22.8481 76.2526 22.8481C76.9526 22.8481 77.4846 23.3941 77.4846 25.8301C77.4846 28.2521 76.9526 28.8821 76.2526 28.8821ZM82.5851 26.8101C83.9011 26.8101 84.8671 25.7321 84.8671 23.8981C84.8671 22.0781 83.9011 21.0141 82.5851 21.0141C81.2691 21.0141 80.3171 22.0781 80.3171 23.8981C80.3171 25.7321 81.2691 26.8101 82.5851 26.8101ZM82.5851 25.6621C82.1231 25.6621 81.7451 25.2001 81.7451 23.8981C81.7451 22.6101 82.1231 22.1621 82.5851 22.1621C83.0471 22.1621 83.4251 22.6101 83.4251 23.8981C83.4251 25.2001 83.0471 25.6621 82.5851 25.6621ZM84.0971 30.4781L89.0111 21.0141H87.8351L82.9071 30.4781H84.0971ZM89.3191 30.4781C90.6351 30.4781 91.6011 29.4001 91.6011 27.5661C91.6011 25.7461 90.6351 24.6821 89.3191 24.6821C88.0031 24.6821 87.0371 25.7461 87.0371 27.5661C87.0371 29.4001 88.0031 30.4781 89.3191 30.4781ZM89.3191 29.3301C88.8571 29.3301 88.4791 28.8681 88.4791 27.5661C88.4791 26.2641 88.8571 25.8301 89.3191 25.8301C89.7811 25.8301 90.1591 26.2641 90.1591 27.5661C90.1591 28.8681 89.7811 29.3301 89.3191 29.3301Z" fill="#1E1E1E"/>
<path d="M133.588 30.3101H139.846V28.5741H138.054C137.634 28.5741 137.018 28.6301 136.57 28.6861C138.012 27.1741 139.412 25.5781 139.412 24.0801C139.412 22.3721 138.222 21.2521 136.472 21.2521C135.198 21.2521 134.372 21.7281 133.49 22.6661L134.61 23.7721C135.058 23.2961 135.548 22.8621 136.192 22.8621C136.962 22.8621 137.452 23.3381 137.452 24.2061C137.452 25.4661 135.856 26.9921 133.588 29.1341V30.3101ZM144.163 30.4781C146.067 30.4781 147.341 28.8541 147.341 25.8301C147.341 22.8061 146.067 21.2521 144.163 21.2521C142.259 21.2521 140.985 22.8061 140.985 25.8301C140.985 28.8541 142.259 30.4781 144.163 30.4781ZM144.163 28.8821C143.477 28.8821 142.931 28.2521 142.931 25.8301C142.931 23.3941 143.477 22.8481 144.163 22.8481C144.863 22.8481 145.395 23.3941 145.395 25.8301C145.395 28.2521 144.863 28.8821 144.163 28.8821ZM150.495 26.8101C151.811 26.8101 152.777 25.7321 152.777 23.8981C152.777 22.0781 151.811 21.0141 150.495 21.0141C149.179 21.0141 148.227 22.0781 148.227 23.8981C148.227 25.7321 149.179 26.8101 150.495 26.8101ZM150.495 25.6621C150.033 25.6621 149.655 25.2001 149.655 23.8981C149.655 22.6101 150.033 22.1621 150.495 22.1621C150.957 22.1621 151.335 22.6101 151.335 23.8981C151.335 25.2001 150.957 25.6621 150.495 25.6621ZM152.007 30.4781L156.921 21.0141H155.745L150.817 30.4781H152.007ZM157.229 30.4781C158.545 30.4781 159.511 29.4001 159.511 27.5661C159.511 25.7461 158.545 24.6821 157.229 24.6821C155.913 24.6821 154.947 25.7461 154.947 27.5661C154.947 29.4001 155.913 30.4781 157.229 30.4781ZM157.229 29.3301C156.767 29.3301 156.389 28.8681 156.389 27.5661C156.389 26.2641 156.767 25.8301 157.229 25.8301C157.691 25.8301 158.069 26.2641 158.069 27.5661C158.069 28.8681 157.691 29.3301 157.229 29.3301Z" fill="#1E1E1E"/>
<path d="M201.337 29.2181C201.981 29.9741 202.989 30.4781 204.431 30.4781C206.223 30.4781 207.735 29.5401 207.735 27.8881C207.735 26.7401 206.993 26.0121 205.971 25.7181V25.6621C206.923 25.2561 207.455 24.6121 207.455 23.6881C207.455 22.1341 206.223 21.2521 204.389 21.2521C203.297 21.2521 202.401 21.6861 201.589 22.3861L202.625 23.6461C203.185 23.1561 203.661 22.8621 204.291 22.8621C204.991 22.8621 205.383 23.2261 205.383 23.8421C205.383 24.5561 204.879 25.0321 203.283 25.0321V26.4881C205.215 26.4881 205.677 26.9781 205.677 27.7621C205.677 28.4341 205.103 28.8121 204.235 28.8121C203.479 28.8121 202.821 28.4341 202.289 27.9161L201.337 29.2181ZM212.122 30.4781C214.026 30.4781 215.3 28.8541 215.3 25.8301C215.3 22.8061 214.026 21.2521 212.122 21.2521C210.218 21.2521 208.944 22.8061 208.944 25.8301C208.944 28.8541 210.218 30.4781 212.122 30.4781ZM212.122 28.8821C211.436 28.8821 210.89 28.2521 210.89 25.8301C210.89 23.3941 211.436 22.8481 212.122 22.8481C212.822 22.8481 213.354 23.3941 213.354 25.8301C213.354 28.2521 212.822 28.8821 212.122 28.8821ZM218.454 26.8101C219.77 26.8101 220.736 25.7321 220.736 23.8981C220.736 22.0781 219.77 21.0141 218.454 21.0141C217.138 21.0141 216.186 22.0781 216.186 23.8981C216.186 25.7321 217.138 26.8101 218.454 26.8101ZM218.454 25.6621C217.992 25.6621 217.614 25.2001 217.614 23.8981C217.614 22.6101 217.992 22.1621 218.454 22.1621C218.916 22.1621 219.294 22.6101 219.294 23.8981C219.294 25.2001 218.916 25.6621 218.454 25.6621ZM219.966 30.4781L224.88 21.0141H223.704L218.776 30.4781H219.966ZM225.188 30.4781C226.504 30.4781 227.47 29.4001 227.47 27.5661C227.47 25.7461 226.504 24.6821 225.188 24.6821C223.872 24.6821 222.906 25.7461 222.906 27.5661C222.906 29.4001 223.872 30.4781 225.188 30.4781ZM225.188 29.3301C224.726 29.3301 224.348 28.8681 224.348 27.5661C224.348 26.2641 224.726 25.8301 225.188 25.8301C225.65 25.8301 226.028 26.2641 226.028 27.5661C226.028 28.8681 225.65 29.3301 225.188 29.3301Z" fill="#1E1E1E"/>
<path d="M271.189 26.6141L272.365 24.6821C272.617 24.1781 272.869 23.6741 273.093 23.1841H273.149C273.121 23.7441 273.065 24.5981 273.065 25.1721V26.6141H271.189ZM276.005 26.6141H274.983V21.4201H272.463L269.215 26.7681V28.1821H273.065V30.3101H274.983V28.1821H276.005V26.6141ZM280.042 30.4781C281.946 30.4781 283.22 28.8541 283.22 25.8301C283.22 22.8061 281.946 21.2521 280.042 21.2521C278.138 21.2521 276.864 22.8061 276.864 25.8301C276.864 28.8541 278.138 30.4781 280.042 30.4781ZM280.042 28.8821C279.356 28.8821 278.81 28.2521 278.81 25.8301C278.81 23.3941 279.356 22.8481 280.042 22.8481C280.742 22.8481 281.274 23.3941 281.274 25.8301C281.274 28.2521 280.742 28.8821 280.042 28.8821ZM286.374 26.8101C287.69 26.8101 288.656 25.7321 288.656 23.8981C288.656 22.0781 287.69 21.0141 286.374 21.0141C285.058 21.0141 284.106 22.0781 284.106 23.8981C284.106 25.7321 285.058 26.8101 286.374 26.8101ZM286.374 25.6621C285.912 25.6621 285.534 25.2001 285.534 23.8981C285.534 22.6101 285.912 22.1621 286.374 22.1621C286.836 22.1621 287.214 22.6101 287.214 23.8981C287.214 25.2001 286.836 25.6621 286.374 25.6621ZM287.886 30.4781L292.8 21.0141H291.624L286.696 30.4781H287.886ZM293.108 30.4781C294.424 30.4781 295.39 29.4001 295.39 27.5661C295.39 25.7461 294.424 24.6821 293.108 24.6821C291.792 24.6821 290.826 25.7461 290.826 27.5661C290.826 29.4001 291.792 30.4781 293.108 30.4781ZM293.108 29.3301C292.646 29.3301 292.268 28.8681 292.268 27.5661C292.268 26.2641 292.646 25.8301 293.108 25.8301C293.57 25.8301 293.948 26.2641 293.948 27.5661C293.948 28.8681 293.57 29.3301 293.108 29.3301Z" fill="#1E1E1E"/>
<path d="M337.351 29.2321C338.051 29.9321 339.031 30.4781 340.487 30.4781C342.223 30.4781 343.749 29.3441 343.749 27.3701C343.749 25.4801 342.447 24.6121 340.921 24.6121C340.557 24.6121 340.263 24.6681 339.927 24.8221L340.081 23.1561H343.343V21.4201H338.303L338.051 25.9141L338.975 26.5021C339.507 26.1661 339.773 26.0541 340.291 26.0541C341.117 26.0541 341.691 26.5301 341.691 27.4261C341.691 28.3361 341.103 28.8121 340.193 28.8121C339.437 28.8121 338.807 28.4201 338.275 27.9301L337.351 29.2321ZM348.122 30.4781C350.026 30.4781 351.3 28.8541 351.3 25.8301C351.3 22.8061 350.026 21.2521 348.122 21.2521C346.218 21.2521 344.944 22.8061 344.944 25.8301C344.944 28.8541 346.218 30.4781 348.122 30.4781ZM348.122 28.8821C347.436 28.8821 346.89 28.2521 346.89 25.8301C346.89 23.3941 347.436 22.8481 348.122 22.8481C348.822 22.8481 349.354 23.3941 349.354 25.8301C349.354 28.2521 348.822 28.8821 348.122 28.8821ZM354.454 26.8101C355.77 26.8101 356.736 25.7321 356.736 23.8981C356.736 22.0781 355.77 21.0141 354.454 21.0141C353.138 21.0141 352.186 22.0781 352.186 23.8981C352.186 25.7321 353.138 26.8101 354.454 26.8101ZM354.454 25.6621C353.992 25.6621 353.614 25.2001 353.614 23.8981C353.614 22.6101 353.992 22.1621 354.454 22.1621C354.916 22.1621 355.294 22.6101 355.294 23.8981C355.294 25.2001 354.916 25.6621 354.454 25.6621ZM355.966 30.4781L360.88 21.0141H359.704L354.776 30.4781H355.966ZM361.188 30.4781C362.504 30.4781 363.47 29.4001 363.47 27.5661C363.47 25.7461 362.504 24.6821 361.188 24.6821C359.872 24.6821 358.906 25.7461 358.906 27.5661C358.906 29.4001 359.872 30.4781 361.188 30.4781ZM361.188 29.3301C360.726 29.3301 360.348 28.8681 360.348 27.5661C360.348 26.2641 360.726 25.8301 361.188 25.8301C361.65 25.8301 362.028 26.2641 362.028 27.5661C362.028 28.8681 361.65 29.3301 361.188 29.3301Z" fill="#1E1E1E"/>
<path d="M408.892 28.9381C408.276 28.9381 407.688 28.4901 407.506 27.0901C407.912 26.4461 408.402 26.2081 408.85 26.2081C409.522 26.2081 410.012 26.5581 410.012 27.4961C410.012 28.5041 409.508 28.9381 408.892 28.9381ZM411.762 22.3161C411.202 21.7421 410.348 21.2521 409.172 21.2521C407.296 21.2521 405.574 22.7501 405.574 26.0681C405.574 29.1901 407.212 30.4781 408.934 30.4781C410.544 30.4781 411.888 29.3441 411.888 27.4961C411.888 25.6201 410.768 24.7521 409.242 24.7521C408.696 24.7521 407.926 25.1021 407.464 25.6901C407.534 23.6181 408.318 22.9181 409.298 22.9181C409.816 22.9181 410.376 23.2121 410.684 23.5481L411.762 22.3161ZM416.092 30.4781C417.996 30.4781 419.27 28.8541 419.27 25.8301C419.27 22.8061 417.996 21.2521 416.092 21.2521C414.188 21.2521 412.914 22.8061 412.914 25.8301C412.914 28.8541 414.188 30.4781 416.092 30.4781ZM416.092 28.8821C415.406 28.8821 414.86 28.2521 414.86 25.8301C414.86 23.3941 415.406 22.8481 416.092 22.8481C416.792 22.8481 417.324 23.3941 417.324 25.8301C417.324 28.2521 416.792 28.8821 416.092 28.8821ZM422.425 26.8101C423.741 26.8101 424.707 25.7321 424.707 23.8981C424.707 22.0781 423.741 21.0141 422.425 21.0141C421.109 21.0141 420.157 22.0781 420.157 23.8981C420.157 25.7321 421.109 26.8101 422.425 26.8101ZM422.425 25.6621C421.963 25.6621 421.585 25.2001 421.585 23.8981C421.585 22.6101 421.963 22.1621 422.425 22.1621C422.887 22.1621 423.265 22.6101 423.265 23.8981C423.265 25.2001 422.887 25.6621 422.425 25.6621ZM423.937 30.4781L428.851 21.0141H427.675L422.747 30.4781H423.937ZM429.159 30.4781C430.475 30.4781 431.441 29.4001 431.441 27.5661C431.441 25.7461 430.475 24.6821 429.159 24.6821C427.843 24.6821 426.877 25.7461 426.877 27.5661C426.877 29.4001 427.843 30.4781 429.159 30.4781ZM429.159 29.3301C428.697 29.3301 428.319 28.8681 428.319 27.5661C428.319 26.2641 428.697 25.8301 429.159 25.8301C429.621 25.8301 429.999 26.2641 429.999 27.5661C429.999 28.8681 429.621 29.3301 429.159 29.3301Z" fill="#1E1E1E"/>
<path d="M475.376 30.3101H477.448C477.602 26.8381 477.896 25.1721 479.954 22.6801V21.4201H473.766V23.1561H477.756C476.076 25.4801 475.544 27.3561 475.376 30.3101ZM484.243 30.4781C486.147 30.4781 487.421 28.8541 487.421 25.8301C487.421 22.8061 486.147 21.2521 484.243 21.2521C482.339 21.2521 481.065 22.8061 481.065 25.8301C481.065 28.8541 482.339 30.4781 484.243 30.4781ZM484.243 28.8821C483.557 28.8821 483.011 28.2521 483.011 25.8301C483.011 23.3941 483.557 22.8481 484.243 22.8481C484.943 22.8481 485.475 23.3941 485.475 25.8301C485.475 28.2521 484.943 28.8821 484.243 28.8821ZM490.575 26.8101C491.891 26.8101 492.857 25.7321 492.857 23.8981C492.857 22.0781 491.891 21.0141 490.575 21.0141C489.259 21.0141 488.307 22.0781 488.307 23.8981C488.307 25.7321 489.259 26.8101 490.575 26.8101ZM490.575 25.6621C490.113 25.6621 489.735 25.2001 489.735 23.8981C489.735 22.6101 490.113 22.1621 490.575 22.1621C491.037 22.1621 491.415 22.6101 491.415 23.8981C491.415 25.2001 491.037 25.6621 490.575 25.6621ZM492.087 30.4781L497.001 21.0141H495.825L490.897 30.4781H492.087ZM497.309 30.4781C498.625 30.4781 499.591 29.4001 499.591 27.5661C499.591 25.7461 498.625 24.6821 497.309 24.6821C495.993 24.6821 495.027 25.7461 495.027 27.5661C495.027 29.4001 495.993 30.4781 497.309 30.4781ZM497.309 29.3301C496.847 29.3301 496.469 28.8681 496.469 27.5661C496.469 26.2641 496.847 25.8301 497.309 25.8301C497.771 25.8301 498.149 26.2641 498.149 27.5661C498.149 28.8681 497.771 29.3301 497.309 29.3301Z" fill="#1E1E1E"/>
<path d="M543.372 27.8041C543.372 27.2581 543.666 26.7541 544.058 26.3901C545.178 26.8661 545.934 27.1601 545.934 27.9441C545.934 28.6861 545.43 29.0501 544.744 29.0501C544.002 29.0501 543.372 28.5881 543.372 27.8041ZM545.262 25.1301C544.352 24.7801 543.736 24.4301 543.736 23.7021C543.736 23.0161 544.184 22.6801 544.73 22.6801C545.402 22.6801 545.808 23.1421 545.808 23.8281C545.808 24.2901 545.612 24.7241 545.262 25.1301ZM541.608 28.0421C541.608 29.4841 542.924 30.4781 544.702 30.4781C546.592 30.4781 547.852 29.4141 547.852 28.0141C547.852 26.8381 547.166 26.1521 546.312 25.6901V25.6341C546.928 25.2281 547.474 24.5421 547.474 23.6881C547.474 22.2181 546.396 21.2521 544.772 21.2521C543.12 21.2521 541.93 22.1901 541.93 23.7021C541.93 24.6401 542.434 25.2841 543.12 25.8021V25.8581C542.28 26.3061 541.608 26.9641 541.608 28.0421ZM552.112 30.4781C554.016 30.4781 555.29 28.8541 555.29 25.8301C555.29 22.8061 554.016 21.2521 552.112 21.2521C550.208 21.2521 548.934 22.8061 548.934 25.8301C548.934 28.8541 550.208 30.4781 552.112 30.4781ZM552.112 28.8821C551.426 28.8821 550.88 28.2521 550.88 25.8301C550.88 23.3941 551.426 22.8481 552.112 22.8481C552.812 22.8481 553.344 23.3941 553.344 25.8301C553.344 28.2521 552.812 28.8821 552.112 28.8821ZM558.445 26.8101C559.761 26.8101 560.727 25.7321 560.727 23.8981C560.727 22.0781 559.761 21.0141 558.445 21.0141C557.129 21.0141 556.177 22.0781 556.177 23.8981C556.177 25.7321 557.129 26.8101 558.445 26.8101ZM558.445 25.6621C557.983 25.6621 557.605 25.2001 557.605 23.8981C557.605 22.6101 557.983 22.1621 558.445 22.1621C558.907 22.1621 559.285 22.6101 559.285 23.8981C559.285 25.2001 558.907 25.6621 558.445 25.6621ZM559.957 30.4781L564.871 21.0141H563.695L558.767 30.4781H559.957ZM565.179 30.4781C566.495 30.4781 567.461 29.4001 567.461 27.5661C567.461 25.7461 566.495 24.6821 565.179 24.6821C563.863 24.6821 562.897 25.7461 562.897 27.5661C562.897 29.4001 563.863 30.4781 565.179 30.4781ZM565.179 29.3301C564.717 29.3301 564.339 28.8681 564.339 27.5661C564.339 26.2641 564.717 25.8301 565.179 25.8301C565.641 25.8301 566.019 26.2641 566.019 27.5661C566.019 28.8681 565.641 29.3301 565.179 29.3301Z" fill="#1E1E1E"/>
<path d="M612.508 25.5221C611.836 25.5221 611.332 25.1721 611.332 24.2341C611.332 23.2261 611.85 22.7921 612.452 22.7921C613.082 22.7921 613.656 23.2401 613.838 24.6401C613.446 25.2841 612.956 25.5221 612.508 25.5221ZM609.582 29.4141C610.142 29.9741 611.01 30.4781 612.186 30.4781C614.048 30.4781 615.784 28.9801 615.784 25.6621C615.784 22.5401 614.132 21.2521 612.41 21.2521C610.8 21.2521 609.456 22.3861 609.456 24.2341C609.456 26.1101 610.59 26.9781 612.102 26.9781C612.648 26.9781 613.418 26.6281 613.88 26.0401C613.81 28.1121 613.04 28.8121 612.046 28.8121C611.528 28.8121 610.968 28.5181 610.674 28.1821L609.582 29.4141ZM620.073 30.4781C621.977 30.4781 623.251 28.8541 623.251 25.8301C623.251 22.8061 621.977 21.2521 620.073 21.2521C618.169 21.2521 616.895 22.8061 616.895 25.8301C616.895 28.8541 618.169 30.4781 620.073 30.4781ZM620.073 28.8821C619.387 28.8821 618.841 28.2521 618.841 25.8301C618.841 23.3941 619.387 22.8481 620.073 22.8481C620.773 22.8481 621.305 23.3941 621.305 25.8301C621.305 28.2521 620.773 28.8821 620.073 28.8821ZM626.405 26.8101C627.721 26.8101 628.687 25.7321 628.687 23.8981C628.687 22.0781 627.721 21.0141 626.405 21.0141C625.089 21.0141 624.137 22.0781 624.137 23.8981C624.137 25.7321 625.089 26.8101 626.405 26.8101ZM626.405 25.6621C625.943 25.6621 625.565 25.2001 625.565 23.8981C625.565 22.6101 625.943 22.1621 626.405 22.1621C626.867 22.1621 627.245 22.6101 627.245 23.8981C627.245 25.2001 626.867 25.6621 626.405 25.6621ZM627.917 30.4781L632.831 21.0141H631.655L626.727 30.4781H627.917ZM633.139 30.4781C634.455 30.4781 635.421 29.4001 635.421 27.5661C635.421 25.7461 634.455 24.6821 633.139 24.6821C631.823 24.6821 630.857 25.7461 630.857 27.5661C630.857 29.4001 631.823 30.4781 633.139 30.4781ZM633.139 29.3301C632.677 29.3301 632.299 28.8681 632.299 27.5661C632.299 26.2641 632.677 25.8301 633.139 25.8301C633.601 25.8301 633.979 26.2641 633.979 27.5661C633.979 28.8681 633.601 29.3301 633.139 29.3301Z" fill="#1E1E1E"/>
<path d="M674.349 30.3101H680.005V28.6441H678.339V21.4201H676.827C676.197 21.7981 675.581 22.0501 674.615 22.2321V23.5061H676.281V28.6441H674.349V30.3101ZM684.462 30.4781C686.366 30.4781 687.64 28.8541 687.64 25.8301C687.64 22.8061 686.366 21.2521 684.462 21.2521C682.558 21.2521 681.284 22.8061 681.284 25.8301C681.284 28.8541 682.558 30.4781 684.462 30.4781ZM684.462 28.8821C683.776 28.8821 683.23 28.2521 683.23 25.8301C683.23 23.3941 683.776 22.8481 684.462 22.8481C685.162 22.8481 685.694 23.3941 685.694 25.8301C685.694 28.2521 685.162 28.8821 684.462 28.8821ZM691.858 30.4781C693.762 30.4781 695.036 28.8541 695.036 25.8301C695.036 22.8061 693.762 21.2521 691.858 21.2521C689.954 21.2521 688.68 22.8061 688.68 25.8301C688.68 28.8541 689.954 30.4781 691.858 30.4781ZM691.858 28.8821C691.172 28.8821 690.626 28.2521 690.626 25.8301C690.626 23.3941 691.172 22.8481 691.858 22.8481C692.558 22.8481 693.09 23.3941 693.09 25.8301C693.09 28.2521 692.558 28.8821 691.858 28.8821ZM698.191 26.8101C699.507 26.8101 700.473 25.7321 700.473 23.8981C700.473 22.0781 699.507 21.0141 698.191 21.0141C696.875 21.0141 695.923 22.0781 695.923 23.8981C695.923 25.7321 696.875 26.8101 698.191 26.8101ZM698.191 25.6621C697.729 25.6621 697.351 25.2001 697.351 23.8981C697.351 22.6101 697.729 22.1621 698.191 22.1621C698.653 22.1621 699.031 22.6101 699.031 23.8981C699.031 25.2001 698.653 25.6621 698.191 25.6621ZM699.703 30.4781L704.617 21.0141H703.441L698.513 30.4781H699.703ZM704.925 30.4781C706.241 30.4781 707.207 29.4001 707.207 27.5661C707.207 25.7461 706.241 24.6821 704.925 24.6821C703.609 24.6821 702.643 25.7461 702.643 27.5661C702.643 29.4001 703.609 30.4781 704.925 30.4781ZM704.925 29.3301C704.463 29.3301 704.085 28.8681 704.085 27.5661C704.085 26.2641 704.463 25.8301 704.925 25.8301C705.387 25.8301 705.765 26.2641 705.765 27.5661C705.765 28.8681 705.387 29.3301 704.925 29.3301Z" fill="#1E1E1E"/>
<path d="M78.5 0.5V10.5" stroke="#1E1E1E" stroke-miterlimit="10" stroke-linecap="round"/>
<path d="M146.5 0.5V10.5" stroke="#1E1E1E" stroke-miterlimit="10" stroke-linecap="round"/>
<path d="M214.5 0.5V10.5" stroke="#1E1E1E" stroke-miterlimit="10" stroke-linecap="round"/>
<path d="M282.5 0.5V10.5" stroke="#1E1E1E" stroke-miterlimit="10" stroke-linecap="round"/>
<path d="M350.5 0.5V10.5" stroke="#1E1E1E" stroke-miterlimit="10" stroke-linecap="round"/>
<path d="M418.5 0.5V10.5" stroke="#1E1E1E" stroke-miterlimit="10" stroke-linecap="round"/>
<path d="M486.5 0.5V10.5" stroke="#1E1E1E" stroke-miterlimit="10" stroke-linecap="round"/>
<path d="M554.5 0.5V10.5" stroke="#1E1E1E" stroke-miterlimit="10" stroke-linecap="round"/>
<path d="M622.5 0.5V10.5" stroke="#1E1E1E" stroke-miterlimit="10" stroke-linecap="round"/>
<path d="M10.5 0.5V10.5" stroke="#1E1E1E" stroke-miterlimit="10" stroke-linecap="round"/>
<path d="M690.5 0.5V10.5" stroke="#1E1E1E" stroke-miterlimit="10" stroke-linecap="round"/>
</svg>
