<?xml version="1.0" encoding="utf-8"?>
<!-- Generator: Adobe Illustrator 26.2.0, SVG Export Plug-In . SVG Version: 6.00 Build 0)  -->
<svg version="1.1" id="Layer_1" xmlns="http://www.w3.org/2000/svg" xmlns:xlink="http://www.w3.org/1999/xlink" x="0px" y="0px"
	 viewBox="0 0 400 55" style="enable-background:new 0 0 400 55;" xml:space="preserve">
	 <title>Leesman Inside Logo</title>
<style type="text/css">
	.st0{fill:#0D1653;}
</style>
<g>
	<g>
		<path class="st0" d="M248.6,10.8c0.5-0.1,1-0.1,1.5-0.2c0.5,0,1-0.1,1.5-0.1c0.5,0,1,0,1.5,0.1c0.5,0,1,0.1,1.5,0.2v42.5
			c-0.5,0.1-1,0.1-1.4,0.2c-0.5,0-1,0.1-1.6,0.1c-0.5,0-1,0-1.6-0.1c-0.5,0-1-0.1-1.4-0.2V10.8z"/>
		<path class="st0" d="M264.2,22.9c0.4-0.1,0.9-0.1,1.3-0.2s0.8-0.1,1.3-0.1c0.4,0,0.8,0,1.2,0.1s0.8,0.1,1.2,0.2
			c0.1,0.6,0.2,1.4,0.4,2.4c0.1,1,0.2,1.8,0.2,2.5c0.4-0.7,0.9-1.3,1.5-2c0.6-0.7,1.3-1.3,2.1-1.8c0.8-0.5,1.7-1,2.7-1.3
			c1-0.3,2.1-0.5,3.4-0.5c3.5,0,6,1,7.7,3c1.7,2,2.5,4.9,2.5,8.8v19.2c-0.4,0.1-0.9,0.1-1.5,0.2c-0.6,0-1,0.1-1.5,0.1
			c-0.4,0-0.9,0-1.4-0.1c-0.5,0-1-0.1-1.4-0.2V35.7c0-2.8-0.4-4.9-1.3-6.2c-0.9-1.3-2.2-2-4.1-2c-1.1,0-2.1,0.2-3.1,0.6
			c-1,0.4-1.9,1-2.6,1.8c-0.7,0.8-1.4,1.9-1.8,3.2c-0.5,1.3-0.7,2.9-0.7,4.8v15.4c-0.4,0.1-0.9,0.1-1.4,0.2c-0.5,0-1,0.1-1.4,0.1
			c-0.4,0-0.9,0-1.5-0.1c-0.6,0-1-0.1-1.5-0.2V22.9z"/>
		<path class="st0" d="M297,47.8c1.1,0.4,2.2,0.8,3.5,1c1.3,0.3,2.6,0.4,3.8,0.4c0.9,0,1.8-0.1,2.6-0.3s1.5-0.5,2.2-0.9
			c0.6-0.4,1.1-0.9,1.5-1.4c0.4-0.6,0.6-1.2,0.6-1.9c0-0.8-0.1-1.4-0.4-2c-0.3-0.5-0.7-0.9-1.2-1.3c-0.5-0.4-1.1-0.7-1.7-0.9
			c-0.7-0.3-1.4-0.5-2.1-0.7l-2.1-0.8c-2.5-0.9-4.4-2-5.5-3.2c-1.1-1.2-1.7-2.8-1.7-4.8c0-2.7,1-4.8,2.9-6.4
			c1.9-1.6,4.7-2.4,8.4-2.4c1.5,0,3,0.1,4.5,0.4c1.5,0.3,2.8,0.6,3.9,1c-0.1,0.8-0.2,1.6-0.4,2.4c-0.2,0.8-0.5,1.5-0.8,2.2
			c-0.9-0.3-1.9-0.6-3.1-0.9c-1.2-0.3-2.5-0.4-3.9-0.4c-1.5,0-2.8,0.3-3.9,0.8c-1.1,0.5-1.7,1.4-1.7,2.7c0,0.7,0.1,1.2,0.4,1.7
			c0.3,0.5,0.6,0.9,1.1,1.2c0.5,0.3,1,0.6,1.6,0.9c0.6,0.2,1.3,0.5,2,0.7l2.6,0.9c0.9,0.3,1.8,0.7,2.7,1.1c0.8,0.4,1.6,1,2.2,1.6
			c0.6,0.6,1.1,1.4,1.5,2.4c0.4,0.9,0.6,2,0.6,3.3c0,1.5-0.3,2.8-0.9,4c-0.6,1.2-1.4,2.2-2.5,3.1c-1.1,0.8-2.4,1.5-3.9,2
			c-1.5,0.5-3.2,0.7-5.1,0.7c-1.9,0-3.5-0.1-5-0.4c-1.4-0.3-2.7-0.6-4-1c0.1-0.8,0.2-1.6,0.5-2.4C296.4,49.4,296.7,48.6,297,47.8z"
			/>
		<path class="st0" d="M325.9,27.5h-3.8c-0.1-0.3-0.1-0.7-0.2-1.1c0-0.4-0.1-0.8-0.1-1.2c0-0.4,0-0.8,0.1-1.2c0-0.4,0.1-0.8,0.2-1.1
			h9.6v30.3c-0.4,0.1-0.9,0.1-1.4,0.2c-0.5,0-1,0.1-1.4,0.1c-0.4,0-0.9,0-1.4-0.1c-0.5,0-1-0.1-1.4-0.2V27.5z M324.6,16.3
			c-0.1-0.5-0.1-1-0.1-1.5c0-0.6,0-1,0-1.5c0-0.4,0-0.9,0-1.5c0-0.6,0.1-1,0.1-1.5c0.5-0.1,1.1-0.1,1.7-0.2c0.6,0,1.1-0.1,1.5-0.1
			c0.4,0,0.9,0,1.5,0.1c0.6,0,1.1,0.1,1.6,0.2c0.1,0.4,0.1,0.9,0.1,1.5c0,0.6,0,1,0,1.5c0,0.4,0,0.9,0,1.5c0,0.6-0.1,1.1-0.1,1.5
			c-0.5,0.1-1,0.1-1.6,0.2c-0.6,0-1.1,0.1-1.5,0.1c-0.5,0-1,0-1.6-0.1C325.7,16.4,325.1,16.3,324.6,16.3z"/>
		<path class="st0" d="M360,9.9c0.4-0.1,0.9-0.1,1.5-0.2c0.6,0,1-0.1,1.4-0.1c0.4,0,0.9,0,1.4,0.1c0.5,0,1,0.1,1.4,0.2v42.5
			c-1.5,0.4-3.2,0.8-5,1.1c-1.9,0.3-3.9,0.4-6.2,0.4c-2.1,0-4.1-0.3-6.1-0.8c-1.9-0.5-3.6-1.4-5-2.6c-1.4-1.2-2.5-2.8-3.4-4.7
			c-0.8-1.9-1.2-4.3-1.2-7.2c0-2.4,0.4-4.7,1.1-6.7c0.7-2,1.8-3.7,3.1-5.2c1.3-1.4,2.9-2.6,4.8-3.3c1.9-0.8,4-1.2,6.2-1.2
			c1,0,2.1,0.1,3.1,0.2c1,0.2,2,0.4,2.7,0.6V9.9z M360,28.1c-0.8-0.3-1.6-0.6-2.5-0.7c-0.9-0.2-1.9-0.2-3-0.2c-1.6,0-3,0.3-4.2,0.9
			c-1.2,0.6-2.2,1.4-2.9,2.4c-0.8,1-1.3,2.2-1.7,3.6c-0.4,1.4-0.6,2.9-0.6,4.6c0,3.7,0.9,6.4,2.7,8c1.7,1.6,4.1,2.4,7.1,2.4
			c1,0,2,0,2.8-0.1c0.9-0.1,1.6-0.2,2.3-0.4V28.1z"/>
		<path class="st0" d="M379.2,39.6c0.1,3.3,0.9,5.7,2.6,7.3c1.6,1.5,4,2.3,7.2,2.3c2.8,0,5.5-0.5,8-1.5c0.3,0.6,0.6,1.3,0.8,2.2
			s0.3,1.7,0.4,2.5c-1.3,0.6-2.7,1-4.3,1.2c-1.6,0.3-3.3,0.4-5.2,0.4c-2.8,0-5.1-0.4-7.1-1.2c-2-0.8-3.6-1.9-4.9-3.3
			c-1.3-1.4-2.2-3.1-2.8-5c-0.6-1.9-0.9-4-0.9-6.3c0-2.2,0.3-4.3,0.9-6.3c0.6-2,1.4-3.6,2.6-5.1s2.7-2.6,4.5-3.4
			c1.8-0.8,3.9-1.3,6.4-1.3c2.1,0,3.9,0.4,5.5,1.1c1.6,0.7,2.9,1.7,4,2.9c1.1,1.2,1.9,2.7,2.4,4.4c0.6,1.7,0.8,3.6,0.8,5.6
			c0,0.6,0,1.1-0.1,1.7c0,0.6-0.1,1.1-0.1,1.6H379.2z M394.2,35.2c0-1.1-0.1-2.2-0.4-3.2c-0.3-1-0.7-1.9-1.3-2.6
			c-0.6-0.7-1.3-1.3-2.2-1.8c-0.9-0.5-1.9-0.7-3.2-0.7c-2.4,0-4.2,0.7-5.5,2.2c-1.3,1.5-2.1,3.5-2.3,6.1H394.2z"/>
	</g>
	<g>
		<g>
			<g>
				<g>
					<g>
						<path class="st0" d="M0,10.8c1.5-0.2,2.9-0.4,4.2-0.4c1.4,0,2.8,0.1,4.3,0.4v35h14.7c0.1,0.7,0.2,1.3,0.2,1.9s0.1,1.2,0.1,1.7
							c0,0.6,0,1.3-0.1,1.9c0,0.6-0.1,1.2-0.2,1.9H0V10.8z"/>
						<path class="st0" d="M35.1,40.6c0.2,2.4,1,4.1,2.5,5.1c1.5,1.1,3.5,1.6,5.9,1.6c1.3,0,2.7-0.1,4.1-0.4c1.4-0.3,2.7-0.6,4-1.1
							c0.4,0.8,0.8,1.7,1.1,2.8c0.3,1.1,0.5,2.3,0.5,3.5c-3.1,1.2-6.5,1.8-10.4,1.8c-2.8,0-5.3-0.4-7.3-1.2c-2-0.8-3.7-1.9-5-3.3
							c-1.3-1.4-2.2-3.1-2.8-5c-0.6-1.9-0.9-4-0.9-6.3c0-2.2,0.3-4.4,0.9-6.3c0.6-2,1.6-3.7,2.8-5.1c1.2-1.5,2.8-2.6,4.6-3.5
							c1.8-0.8,4-1.3,6.4-1.3c2.1,0,4,0.4,5.7,1.1c1.6,0.7,3.1,1.8,4.2,3.1c1.2,1.3,2,2.8,2.6,4.6c0.6,1.8,0.9,3.7,0.9,5.8
							c0,0.7,0,1.5-0.1,2.2c-0.1,0.7-0.1,1.3-0.2,1.7H35.1z M47.1,34.7c-0.1-1.9-0.6-3.4-1.6-4.6c-1-1.2-2.3-1.7-4-1.7
							c-2,0-3.5,0.6-4.5,1.7c-1,1.1-1.6,2.7-1.8,4.7H47.1z"/>
						<path class="st0" d="M67.5,40.6c0.2,2.4,1,4.1,2.5,5.1c1.5,1.1,3.5,1.6,5.9,1.6c1.3,0,2.7-0.1,4.1-0.4c1.4-0.3,2.7-0.6,4-1.1
							c0.4,0.8,0.8,1.7,1.1,2.8c0.3,1.1,0.5,2.3,0.5,3.5c-3.1,1.2-6.5,1.8-10.4,1.8c-2.8,0-5.3-0.4-7.3-1.2c-2-0.8-3.7-1.9-5-3.3
							c-1.3-1.4-2.2-3.1-2.8-5c-0.6-1.9-0.9-4-0.9-6.3c0-2.2,0.3-4.4,0.9-6.3c0.6-2,1.6-3.7,2.8-5.1c1.2-1.5,2.8-2.6,4.6-3.5
							c1.8-0.8,4-1.3,6.4-1.3c2.1,0,4,0.4,5.7,1.1c1.7,0.7,3.1,1.8,4.2,3.1c1.2,1.3,2,2.8,2.6,4.6c0.6,1.8,0.9,3.7,0.9,5.8
							c0,0.7,0,1.5-0.1,2.2c-0.1,0.7-0.1,1.3-0.2,1.7H67.5z M79.5,34.7c-0.1-1.9-0.6-3.4-1.6-4.6c-1-1.2-2.3-1.7-4-1.7
							c-2,0-3.5,0.6-4.5,1.7c-1,1.1-1.6,2.7-1.8,4.7H79.5z"/>
						<path class="st0" d="M99,40c-2.2-0.6-3.9-1.6-5.2-2.8c-1.2-1.2-1.9-3.1-1.9-5.6c0-3,1.1-5.3,3.2-7c2.1-1.7,5.1-2.5,8.8-2.5
							c1.5,0,3.1,0.1,4.5,0.4c1.5,0.3,3,0.7,4.6,1.2c-0.1,1-0.3,2.1-0.6,3.2c-0.3,1.1-0.7,2.1-1.1,2.9c-0.9-0.4-2-0.7-3.1-1
							c-1.1-0.3-2.3-0.4-3.6-0.4c-1.3,0-2.4,0.2-3.1,0.6c-0.8,0.4-1.1,1.1-1.1,2c0,0.9,0.3,1.5,0.8,1.8c0.5,0.4,1.3,0.7,2.3,1l3.4,1
							c1.1,0.3,2.1,0.7,3,1.2c0.9,0.5,1.6,1,2.3,1.7c0.6,0.7,1.1,1.5,1.5,2.5c0.4,1,0.5,2.2,0.5,3.6c0,1.5-0.3,2.8-0.9,4.1
							c-0.6,1.3-1.5,2.4-2.7,3.3c-1.2,0.9-2.6,1.7-4.2,2.2c-1.7,0.5-3.5,0.8-5.6,0.8c-0.9,0-1.8,0-2.6-0.1c-0.8-0.1-1.5-0.2-2.3-0.3
							c-0.7-0.1-1.4-0.3-2.2-0.5c-0.7-0.2-1.5-0.5-2.3-0.8c0.1-1.1,0.3-2.1,0.6-3.2c0.3-1.1,0.7-2.1,1.1-3.2
							c1.3,0.5,2.5,0.9,3.7,1.2c1.2,0.3,2.4,0.4,3.6,0.4c0.6,0,1.2,0,1.8-0.1c0.7-0.1,1.3-0.3,1.8-0.5c0.6-0.3,1-0.6,1.4-1
							c0.4-0.4,0.6-1,0.6-1.6c0-0.9-0.3-1.6-0.9-2c-0.6-0.4-1.4-0.8-2.4-1.1L99,40z"/>
						<path class="st0" d="M119.5,22.7c0.6-0.1,1.1-0.2,1.7-0.3c0.5-0.1,1.2-0.1,1.8-0.1c0.7,0,1.3,0,1.8,0.1c0.5,0.1,1,0.1,1.6,0.3
							c0.1,0.2,0.2,0.5,0.3,0.9c0.1,0.4,0.2,0.8,0.3,1.2c0.1,0.4,0.1,0.8,0.2,1.2c0.1,0.4,0.1,0.7,0.1,1c0.3-0.6,0.7-1.2,1.2-1.8
							c0.5-0.6,1.1-1.1,1.8-1.6c0.7-0.5,1.5-0.9,2.4-1.2c0.9-0.3,1.9-0.4,3-0.4c4.8,0,7.8,1.8,9.2,5.4c0.8-1.5,1.9-2.7,3.3-3.8
							c1.4-1.1,3.3-1.6,5.5-1.6c3.5,0,6,1,7.7,2.9c1.6,1.9,2.5,4.9,2.5,8.9v19.4c-1.4,0.2-2.8,0.4-4.2,0.4c-1.4,0-2.8-0.1-4.2-0.4
							V36c0-2.1-0.3-3.8-0.8-4.9c-0.5-1.1-1.6-1.7-3.2-1.7c-0.7,0-1.3,0.1-2,0.3c-0.6,0.2-1.2,0.6-1.8,1.1c-0.5,0.5-1,1.3-1.3,2.2
							c-0.3,1-0.5,2.2-0.5,3.8v16.5c-1.4,0.2-2.8,0.4-4.2,0.4c-1.4,0-2.8-0.1-4.2-0.4V36c0-2.1-0.3-3.8-0.8-4.9
							c-0.5-1.1-1.6-1.7-3.2-1.7c-0.7,0-1.3,0.1-2,0.3c-0.7,0.2-1.3,0.6-1.8,1.2c-0.5,0.6-0.9,1.4-1.3,2.4c-0.3,1-0.5,2.4-0.5,4v16
							c-1.4,0.2-2.8,0.4-4.2,0.4c-1.4,0-2.8-0.1-4.2-0.4V22.7z"/>
						<path class="st0" d="M186,33.2c0-0.9-0.2-1.7-0.5-2.3c-0.3-0.6-0.7-1.1-1.3-1.4c-0.6-0.3-1.2-0.6-2-0.7
							c-0.8-0.1-1.7-0.2-2.7-0.2c-2.1,0-4.4,0.4-6.8,1.2c-0.6-1-1-2-1.2-2.9s-0.4-2-0.4-3.3c1.7-0.6,3.5-1,5.2-1.3
							c1.7-0.3,3.4-0.4,4.8-0.4c4.1,0,7.3,1,9.6,3c2.3,2,3.5,5.1,3.5,9.5v17.7c-1.4,0.4-3.1,0.8-5,1.2c-2,0.4-4.2,0.6-6.7,0.6
							c-2,0-3.9-0.2-5.5-0.5c-1.7-0.4-3.1-0.9-4.3-1.8c-1.2-0.8-2.1-1.9-2.8-3.2c-0.6-1.3-1-2.9-1-4.8c0-1.9,0.4-3.5,1.2-4.8
							c0.8-1.3,1.9-2.3,3.1-3.1c1.3-0.8,2.7-1.3,4.3-1.7c1.6-0.3,3.2-0.5,4.7-0.5c1.1,0,2.4,0.1,3.8,0.2V33.2z M186,39.3
							c-0.5-0.1-1-0.1-1.5-0.2c-0.6-0.1-1-0.1-1.5-0.1c-1.9,0-3.5,0.3-4.6,1c-1.1,0.7-1.7,1.8-1.7,3.3c0,1,0.2,1.8,0.7,2.4
							c0.4,0.6,1,1,1.6,1.2c0.6,0.3,1.3,0.4,1.9,0.5c0.7,0.1,1.3,0.1,1.8,0.1c0.6,0,1.2,0,1.8-0.1c0.6-0.1,1.1-0.2,1.5-0.3V39.3z"/>
						<path class="st0" d="M200.9,22.7c0.5-0.1,1.1-0.2,1.6-0.3c0.6-0.1,1.2-0.1,1.8-0.1c0.7,0,1.3,0,1.8,0.1c0.5,0.1,1,0.1,1.6,0.3
							c0.1,0.2,0.2,0.5,0.3,0.9c0.1,0.4,0.2,0.8,0.3,1.2c0.1,0.4,0.1,0.8,0.2,1.2c0.1,0.4,0.1,0.7,0.1,1c0.4-0.6,0.9-1.2,1.4-1.8
							c0.6-0.6,1.2-1.1,1.9-1.6c0.7-0.5,1.5-0.9,2.5-1.2c0.9-0.3,1.9-0.4,3-0.4c3.5,0,6.1,0.9,7.8,2.8c1.7,1.9,2.6,4.9,2.6,8.9v19.5
							c-1.4,0.2-2.8,0.4-4.2,0.4s-2.8-0.1-4.2-0.4V36c0-2.1-0.3-3.8-1-4.9c-0.6-1.1-1.8-1.7-3.4-1.7c-0.7,0-1.4,0.1-2.1,0.3
							c-0.7,0.2-1.4,0.6-1.9,1.2c-0.6,0.6-1,1.4-1.4,2.4c-0.4,1-0.5,2.4-0.5,4v16c-1.4,0.2-2.8,0.4-4.2,0.4c-1.4,0-2.8-0.1-4.2-0.4
							V22.7z"/>
					</g>
				</g>
			</g>
			<g>
				<g>
					<path class="st0" d="M233.6,12.5c-0.9,0-1.7-0.2-2.4-0.5c-0.7-0.3-1.4-0.7-1.9-1.3c-0.5-0.5-0.9-1.2-1.2-1.9
						c-0.3-0.7-0.4-1.5-0.4-2.4c0-0.8,0.1-1.6,0.4-2.4c0.3-0.7,0.7-1.4,1.2-1.9c0.5-0.5,1.1-0.9,1.9-1.3c0.7-0.3,1.5-0.5,2.4-0.5
						c0.9,0,1.7,0.1,2.4,0.4c0.7,0.3,1.4,0.7,1.9,1.3c0.5,0.5,0.9,1.2,1.2,1.9c0.3,0.7,0.4,1.5,0.4,2.4c0,0.9-0.1,1.7-0.4,2.4
						c-0.3,0.7-0.7,1.4-1.2,1.9c-0.5,0.5-1.1,0.9-1.9,1.3C235.3,12.4,234.5,12.5,233.6,12.5z M233.6,11.3c0.7,0,1.4-0.1,2-0.4
						c0.6-0.2,1.1-0.6,1.5-1c0.4-0.4,0.7-0.9,0.9-1.5c0.2-0.6,0.3-1.2,0.3-1.9c0-0.7-0.1-1.3-0.3-1.9c-0.2-0.6-0.5-1.1-0.9-1.5
						c-0.4-0.4-0.9-0.8-1.5-1c-0.6-0.2-1.2-0.4-2-0.4c-0.7,0-1.4,0.1-2,0.4c-0.6,0.2-1.1,0.6-1.5,1c-0.4,0.4-0.7,0.9-0.9,1.5
						c-0.2,0.6-0.3,1.2-0.3,1.9c0,0.7,0.1,1.3,0.3,1.9c0.2,0.6,0.5,1.1,0.9,1.5c0.4,0.4,0.9,0.8,1.5,1
						C232.3,11.2,232.9,11.3,233.6,11.3z M231.5,3.3c0.3-0.1,0.6-0.1,0.9-0.1c0.3,0,0.6,0,0.9,0c1,0,1.7,0.2,2.2,0.5
						c0.4,0.4,0.7,0.8,0.7,1.4c0,0.4-0.1,0.7-0.2,1c-0.1,0.3-0.3,0.5-0.5,0.7l-0.2,0.2l1.4,2.5c-0.1,0-0.3,0-0.5,0
						c-0.2,0-0.3,0-0.5,0c-0.1,0-0.3,0-0.4,0c-0.1,0-0.3,0-0.4,0l-1.4-2.8l0.3-0.2c0.2-0.1,0.5-0.3,0.6-0.5c0.2-0.2,0.2-0.4,0.2-0.6
						c0-0.2-0.1-0.4-0.2-0.6c-0.2-0.2-0.4-0.2-0.7-0.2c-0.1,0-0.1,0-0.2,0c-0.1,0-0.1,0-0.2,0v4.9c-0.2,0-0.5,0.1-0.8,0.1
						c-0.1,0-0.3,0-0.4,0c-0.1,0-0.3,0-0.4,0V3.3z"/>
				</g>
			</g>
		</g>
	</g>
</g>
</svg>
