<svg width="82" height="19" viewBox="0 0 82 19" fill="none" xmlns="http://www.w3.org/2000/svg">
<path d="M0 3.47798C0.491009 3.39614 0.965652 3.35522 1.42393 3.35522C1.89039 3.35522 2.3814 3.39614 2.88877 3.47798V15.3522H7.87252C7.91343 15.5814 7.93799 15.7941 7.95435 15.9987C7.97072 16.2033 7.97072 16.3997 7.97072 16.5879C7.97072 16.8007 7.96254 17.0135 7.95435 17.2181C7.93799 17.4226 7.91343 17.6436 7.87252 17.8646H0V3.47798Z" fill="black"/>
<path d="M11.907 13.56C11.9561 14.362 12.2425 14.9431 12.7499 15.3031C13.2572 15.6632 13.9283 15.8432 14.7548 15.8432C15.2049 15.8432 15.6714 15.8023 16.146 15.7123C16.6207 15.6223 17.0707 15.4995 17.4963 15.344C17.6436 15.6141 17.7663 15.9333 17.8809 16.3015C17.9873 16.678 18.0446 17.0789 18.0609 17.5045C17.0216 17.9055 15.8432 18.1019 14.542 18.1019C13.5846 18.1019 12.758 17.9709 12.0706 17.7009C11.3832 17.4308 10.8267 17.0626 10.393 16.5879C9.95929 16.1133 9.64014 15.5486 9.42737 14.894C9.22278 14.2393 9.11639 13.5273 9.11639 12.7499C9.11639 11.9888 9.22278 11.2769 9.43555 10.6058C9.64832 9.94294 9.96748 9.36192 10.3848 8.86272C10.8022 8.37171 11.3259 7.97891 11.9479 7.69248C12.5698 7.40606 13.29 7.25876 14.1165 7.25876C14.8367 7.25876 15.475 7.38969 16.0396 7.6352C16.5961 7.88889 17.0789 8.23259 17.4717 8.6745C17.8645 9.11641 18.1592 9.64015 18.3637 10.2457C18.5683 10.8513 18.6665 11.506 18.6665 12.1934C18.6665 12.4471 18.6583 12.7008 18.6338 12.9463C18.6092 13.1918 18.5929 13.3882 18.5601 13.5355H11.907V13.56ZM15.966 11.5796C15.9414 10.9413 15.7614 10.4258 15.434 10.0248C15.1067 9.63197 14.6484 9.43557 14.0592 9.43557C13.3882 9.43557 12.8808 9.62379 12.5371 10.0002C12.1934 10.3767 11.9806 10.9004 11.9151 11.5796H15.966Z" fill="black"/>
<path d="M22.8891 13.56C22.9382 14.362 23.2247 14.9431 23.732 15.3031C24.2394 15.6632 24.9023 15.8432 25.737 15.8432C26.1871 15.8432 26.6536 15.8023 27.1282 15.7123C27.6028 15.6223 28.0529 15.4995 28.4785 15.344C28.6258 15.6141 28.7485 15.9333 28.8549 16.3015C28.9613 16.678 29.0186 17.0789 29.0349 17.5045C27.9956 17.9055 26.8172 18.1019 25.5079 18.1019C24.5504 18.1019 23.7239 17.9709 23.0364 17.7009C22.349 17.4308 21.7926 17.0626 21.3588 16.5879C20.9251 16.1133 20.606 15.5486 20.4014 14.894C20.1968 14.2393 20.0904 13.5273 20.0904 12.7499C20.0904 11.9888 20.1968 11.2769 20.4095 10.6058C20.6223 9.94294 20.9415 9.36192 21.3588 8.86272C21.7762 8.37171 22.2999 7.97891 22.9219 7.69248C23.5438 7.40606 24.264 7.25876 25.0905 7.25876C25.8107 7.25876 26.449 7.38969 27.0136 7.6352C27.5783 7.88889 28.0529 8.23259 28.4457 8.6745C28.8385 9.11641 29.1413 9.64015 29.3377 10.2457C29.5341 10.8513 29.6405 11.506 29.6405 12.1934C29.6405 12.4471 29.6323 12.7008 29.6078 12.9463C29.5914 13.1918 29.5669 13.3882 29.5341 13.5355H22.8891V13.56ZM26.9482 11.5796C26.9236 10.9413 26.7436 10.4258 26.4162 10.0248C26.0889 9.63197 25.6306 9.43557 25.0496 9.43557C24.3785 9.43557 23.8712 9.62379 23.5275 10.0002C23.1838 10.3767 22.971 10.9004 22.9055 11.5796H26.9482Z" fill="black"/>
<path d="M33.536 13.3636C32.7913 13.1509 32.2021 12.8317 31.7847 12.4143C31.3674 11.997 31.1546 11.3669 31.1546 10.524C31.1546 9.5092 31.5147 8.71541 32.243 8.14256C32.9714 7.56972 33.9616 7.28329 35.2136 7.28329C35.7374 7.28329 36.2448 7.3324 36.7521 7.42241C37.2595 7.51243 37.7751 7.65974 38.2988 7.83977C38.2743 8.18348 38.2006 8.55174 38.0942 8.91999C37.9878 9.29643 37.8651 9.62377 37.7178 9.90201C37.3986 9.77108 37.0467 9.64832 36.6539 9.55012C36.2693 9.45192 35.8601 9.40282 35.4346 9.40282C34.9845 9.40282 34.6244 9.47647 34.3789 9.61559C34.1252 9.75471 33.9943 9.98385 33.9943 10.2866C33.9943 10.5812 34.0843 10.7858 34.2643 10.9086C34.4444 11.0313 34.6981 11.1459 35.0336 11.2523L36.1711 11.596C36.5475 11.7024 36.8831 11.8333 37.1859 11.9888C37.4886 12.1443 37.7423 12.3325 37.9551 12.5616C38.1679 12.7908 38.3315 13.069 38.4543 13.4045C38.577 13.7401 38.6343 14.1411 38.6343 14.6239C38.6343 15.1149 38.5279 15.5814 38.3234 16.0069C38.1188 16.4324 37.816 16.8089 37.4232 17.1199C37.0304 17.439 36.5557 17.6845 35.9911 17.8645C35.4264 18.0446 34.7963 18.1346 34.0843 18.1346C33.7652 18.1346 33.4705 18.1264 33.2005 18.1019C32.9304 18.0855 32.6767 18.0446 32.4312 18.0037C32.1857 17.9546 31.9402 17.8973 31.7029 17.8318C31.4656 17.7663 31.2037 17.6763 30.9173 17.5699C30.9418 17.2099 31.0073 16.8498 31.1055 16.4815C31.2037 16.1133 31.3347 15.7614 31.4983 15.4095C31.9402 15.5814 32.3576 15.7123 32.7504 15.8023C33.1432 15.8923 33.5524 15.9332 33.9779 15.9332C34.1661 15.9332 34.3707 15.9169 34.5917 15.8841C34.8126 15.8514 35.0172 15.7941 35.2054 15.7041C35.3937 15.6141 35.5492 15.4995 35.6719 15.3604C35.8028 15.2213 35.8601 15.0412 35.8601 14.8121C35.8601 14.4929 35.7619 14.2638 35.5655 14.1247C35.3691 13.9856 35.0991 13.8628 34.7554 13.7564L33.536 13.3636Z" fill="black"/>
<path d="M40.492 7.52062C40.6802 7.4797 40.8684 7.44696 41.0566 7.4306C41.2448 7.41423 41.4494 7.39786 41.6786 7.39786C41.9077 7.39786 42.1041 7.40605 42.276 7.4306C42.4478 7.44696 42.6279 7.4797 42.8161 7.52062C42.857 7.58608 42.8897 7.68429 42.9225 7.80704C42.9552 7.93797 42.9879 8.06891 43.0125 8.20803C43.037 8.34715 43.0616 8.48627 43.0861 8.6172C43.1025 8.74814 43.127 8.86271 43.1352 8.96091C43.2416 8.75632 43.3807 8.55992 43.5526 8.36352C43.7244 8.15893 43.929 7.98708 44.1745 7.82341C44.4119 7.66792 44.6819 7.53698 44.9847 7.4306C45.2875 7.3324 45.623 7.28329 45.9913 7.28329C47.6034 7.28329 48.6427 7.89706 49.0928 9.12458C49.3629 8.63357 49.7393 8.19985 50.2221 7.83159C50.705 7.46333 51.3269 7.28329 52.0716 7.28329C53.25 7.28329 54.1093 7.61063 54.6658 8.25713C55.2222 8.90363 55.5005 9.91838 55.5005 11.2932V17.8809C55.0177 17.9627 54.543 18.0037 54.0766 18.0037C53.6101 18.0037 53.1355 17.9627 52.6526 17.8809V12.0379C52.6526 11.3178 52.5626 10.7613 52.3826 10.3767C52.2025 9.99203 51.8343 9.79563 51.2942 9.79563C51.065 9.79563 50.8441 9.82836 50.6231 9.89383C50.4022 9.9593 50.2058 10.082 50.0175 10.2621C49.8375 10.4421 49.6902 10.6958 49.5756 11.0231C49.4611 11.3505 49.4038 11.776 49.4038 12.2916V17.8809C48.921 17.9627 48.4463 18.0037 47.9799 18.0037C47.5134 18.0037 47.0388 17.9627 46.5559 17.8809V12.0379C46.5559 11.3178 46.4659 10.7613 46.2859 10.3767C46.1058 9.99203 45.7458 9.79563 45.1975 9.79563C44.9683 9.79563 44.7392 9.82836 44.5182 9.89383C44.2891 9.9593 44.0845 10.0902 43.9045 10.2866C43.7244 10.483 43.5853 10.7531 43.4789 11.0968C43.3725 11.4405 43.3153 11.8988 43.3153 12.4553V17.8809C42.8324 17.9627 42.3578 18.0037 41.8913 18.0037C41.4249 18.0037 40.9502 17.9627 40.4674 17.8809V7.52062H40.492Z" fill="black"/>
<path d="M63.0293 11.0641C63.0293 10.7449 62.9802 10.483 62.8656 10.2866C62.7592 10.0902 62.6119 9.92656 62.4237 9.82018C62.2355 9.70561 62.0063 9.63196 61.7281 9.59104C61.458 9.55012 61.1552 9.53375 60.8197 9.53375C60.0996 9.53375 59.3303 9.67287 58.5202 9.95111C58.3319 9.60741 58.1928 9.28007 58.1028 8.96909C58.0128 8.6663 57.9637 8.29805 57.9637 7.86432C58.5529 7.66792 59.1421 7.52062 59.7231 7.42241C60.3123 7.3324 60.8606 7.28329 61.368 7.28329C62.7592 7.28329 63.8394 7.61882 64.625 8.28168C65.4025 8.95273 65.7953 10.0166 65.7953 11.4896V17.4963C65.3288 17.6436 64.7642 17.7827 64.0931 17.9136C63.4221 18.0446 62.6692 18.1182 61.8345 18.1182C61.1552 18.1182 60.5251 18.061 59.9605 17.9382C59.3958 17.8154 58.9048 17.619 58.5038 17.3408C58.0946 17.0626 57.7836 16.7025 57.5627 16.2606C57.3417 15.8187 57.2354 15.2786 57.2354 14.6403C57.2354 14.0019 57.3745 13.4618 57.6445 13.0281C57.9228 12.5944 58.2747 12.2507 58.7084 11.9888C59.1421 11.7269 59.6249 11.5469 60.1569 11.4323C60.6888 11.3178 61.2289 11.2605 61.7608 11.2605C62.1454 11.2605 62.571 11.2768 63.0456 11.3178V11.0641H63.0293ZM63.0293 13.1263C62.8656 13.1018 62.6937 13.0772 62.5055 13.0527C62.3173 13.0363 62.1536 13.0199 62.0063 13.0199C61.3516 13.0199 60.8361 13.1345 60.4515 13.3718C60.075 13.6091 59.8786 13.9856 59.8786 14.5011C59.8786 14.8448 59.9523 15.1149 60.0996 15.3031C60.2469 15.4913 60.4187 15.6305 60.6315 15.7123C60.8361 15.8023 61.057 15.8514 61.2944 15.876C61.5317 15.8923 61.7363 15.9087 61.9081 15.9087C62.1045 15.9087 62.3091 15.8923 62.5055 15.8596C62.7019 15.8269 62.882 15.7941 63.0293 15.7696V13.1263Z" fill="black"/>
<path d="M68.0866 7.52062C68.2748 7.4797 68.4631 7.44696 68.6431 7.4306C68.8313 7.41423 69.0359 7.39786 69.265 7.39786C69.4942 7.39786 69.6906 7.40605 69.8624 7.4306C70.0343 7.44696 70.2143 7.4797 70.4025 7.52062C70.4435 7.58608 70.4844 7.68429 70.5171 7.80704C70.5498 7.93797 70.5826 8.06891 70.6071 8.20803C70.6317 8.34715 70.6562 8.48627 70.6808 8.6172C70.6971 8.74814 70.7135 8.86271 70.7299 8.96091C70.8608 8.75632 71.0245 8.55992 71.2127 8.36352C71.4009 8.15893 71.6137 7.98708 71.8592 7.82341C72.1047 7.66792 72.3829 7.53698 72.6939 7.4306C73.0049 7.3324 73.3404 7.28329 73.7169 7.28329C74.8871 7.28329 75.7791 7.60245 76.3683 8.24076C76.9575 8.87908 77.2603 9.88565 77.2603 11.2605V17.8645C76.7857 17.9464 76.3028 17.9873 75.8364 17.9873C75.3699 17.9873 74.8953 17.9464 74.4124 17.8645V12.0215C74.4124 11.3014 74.3061 10.7449 74.0851 10.3603C73.8642 9.97566 73.4795 9.77926 72.9312 9.77926C72.7021 9.77926 72.473 9.81199 72.2275 9.87746C71.9901 9.94293 71.7692 10.0739 71.5728 10.2703C71.3764 10.4667 71.2209 10.7367 71.1063 11.0804C70.9836 11.4241 70.9263 11.8824 70.9263 12.4389V17.8645C70.4435 17.9464 69.9688 17.9873 69.5024 17.9873C69.0359 17.9873 68.5613 17.9464 68.0784 17.8645V7.52062H68.0866Z" fill="black"/>
<path d="M79.1671 4.05901C78.8643 4.05901 78.5943 4.00991 78.3406 3.90353C78.0869 3.79714 77.8823 3.65802 77.7023 3.47798C77.5223 3.29795 77.3913 3.08518 77.2931 2.83967C77.1949 2.59417 77.1458 2.32411 77.1458 2.02951C77.1458 1.74308 77.1949 1.47303 77.2931 1.22752C77.3913 0.982019 77.5304 0.761065 77.7023 0.581028C77.8823 0.400991 78.0951 0.261872 78.3406 0.155486C78.5861 0.049101 78.8643 0 79.1671 0C79.4699 0 79.74 0.049101 79.9937 0.155486C80.2392 0.253688 80.4519 0.400991 80.632 0.581028C80.812 0.761065 80.9429 0.973835 81.0411 1.22752C81.1394 1.47303 81.1885 1.74308 81.1885 2.03769C81.1885 2.33229 81.1394 2.59417 81.0411 2.84785C80.9429 3.09336 80.8038 3.30613 80.632 3.48617C80.4601 3.6662 80.2474 3.80532 79.9937 3.91171C79.7482 4.00991 79.4699 4.05901 79.1671 4.05901ZM79.1671 3.65802C79.4126 3.65802 79.6336 3.6171 79.83 3.53527C80.0264 3.45343 80.1901 3.33886 80.3292 3.19156C80.4683 3.04426 80.5665 2.87241 80.6402 2.676C80.7138 2.4796 80.7465 2.26683 80.7465 2.03769C80.7465 1.80855 80.7138 1.59578 80.6402 1.39938C80.5665 1.20297 80.4601 1.03112 80.3292 0.883817C80.1901 0.736514 80.0264 0.621945 79.83 0.54011C79.6336 0.458275 79.4126 0.417358 79.1671 0.417358C78.9216 0.417358 78.7007 0.458275 78.5043 0.54011C78.3079 0.621945 78.1442 0.736514 78.0051 0.883817C77.866 1.03112 77.7678 1.20297 77.6941 1.39938C77.6205 1.59578 77.5877 1.80855 77.5877 2.03769C77.5877 2.26683 77.6205 2.4796 77.6941 2.676C77.7678 2.87241 77.8741 3.04426 78.0051 3.19156C78.1442 3.33886 78.3079 3.45343 78.5043 3.53527C78.7007 3.6171 78.9216 3.65802 79.1671 3.65802ZM78.4388 0.949285C78.537 0.932918 78.6352 0.916551 78.7334 0.908367C78.8316 0.900184 78.9298 0.892 79.0526 0.892C79.3963 0.892 79.6418 0.949285 79.7973 1.07204C79.9446 1.19479 80.0182 1.35028 80.0182 1.55486C80.0182 1.67762 79.9937 1.79218 79.9446 1.8822C79.8955 1.9804 79.8382 2.05406 79.7809 2.10316L79.6991 2.16863L80.1819 3.01971C80.1328 3.02789 80.0755 3.03608 80.0182 3.03608C79.9609 3.03608 79.9036 3.04426 79.8382 3.04426C79.7891 3.04426 79.74 3.04426 79.6909 3.03608C79.6418 3.03608 79.6009 3.02789 79.5599 3.01971L79.0689 2.06224L79.159 2.00496C79.2408 1.95585 79.3144 1.89857 79.3635 1.84129C79.4208 1.784 79.4454 1.71035 79.4454 1.62033C79.4454 1.5385 79.4208 1.46484 79.3717 1.41574C79.3226 1.35846 79.2408 1.33391 79.1344 1.33391C79.1099 1.33391 79.0853 1.33391 79.0689 1.33391C79.0526 1.33391 79.0198 1.34209 78.9871 1.35028V3.02789C78.9134 3.04426 78.8316 3.05244 78.7334 3.05244C78.6925 3.05244 78.6434 3.05244 78.5943 3.04426C78.5452 3.04426 78.4961 3.03607 78.4552 3.02789V0.949285H78.4388Z" fill="black"/>
</svg>
