<svg width="16" height="15" viewBox="0 0 16 15" fill="none" xmlns="http://www.w3.org/2000/svg">
<path d="M13.25 1C13.94 1 14.5 1.56 14.5 2.25V12.75C14.5 13.44 13.94 14 13.25 14H2.75C2.06 14 1.5 13.44 1.5 12.75V2.25C1.5 1.56 2.06 1 2.75 1H13.25ZM13.25 0H2.75C1.51 0 0.5 1.01 0.5 2.25V12.75C0.5 13.99 1.51 15 2.75 15H13.25C14.49 15 15.5 13.99 15.5 12.75V2.25C15.5 1.01 14.49 0 13.25 0Z" fill="#1E1E1E"/>
<path d="M6.77988 9.38L4.75989 7.35999C4.63989 7.23999 4.48988 7.16998 4.30988 7.16998C4.12988 7.16998 3.96988 7.24 3.83988 7.38C3.69988 7.52 3.62988 7.67998 3.62988 7.84998C3.62988 8.02998 3.69988 8.17999 3.83988 8.29999L6.35989 10.82C6.47989 10.94 6.62989 11.01 6.78989 11.01C6.94989 11.01 7.09989 10.95 7.21989 10.82L12.1699 5.87C12.2899 5.75 12.3499 5.59998 12.3499 5.41998C12.3499 5.23998 12.2799 5.08997 12.1499 4.96997C12.0299 4.82997 11.8699 4.76001 11.6899 4.76001C11.5099 4.76001 11.3399 4.82997 11.2099 4.96997L6.79989 9.38H6.77988Z" fill="#1E1E1E"/>
</svg>
