<?xml version="1.0" standalone="no"?>
<!DOCTYPE svg PUBLIC "-//W3C//DTD SVG 1.1//EN" "http://www.w3.org/Graphics/SVG/1.1/DTD/svg11.dtd">
<svg xmlns="http://www.w3.org/2000/svg">
<metadata>Generated by Fontastic.me</metadata>
<defs>
<font id="lssmn-is" horiz-adv-x="512">
<font-face font-family="lssmn-is" units-per-em="512" ascent="480" descent="-32"/>
<missing-glyph horiz-adv-x="512" />

<glyph glyph-name="above-benchmark-l-icn" unicode="&#41216;" d="M26 51c-8 0-14 4-18 11-4 8-4 15 1 22l230 367c4 7 10 10 18 10 7 0 13-3 18-10l229-367c4-7 4-14 0-22-4-7-10-11-18-11l-460 0z m21 33l417 0-207 333-209-333z"/>
<glyph glyph-name="action-l-icn" unicode="&#41217;" d="M257 128c5 0 8 2 11 4 3 3 5 7 5 11l0 95 96 0c4 0 7 2 10 5 3 3 5 7 5 11 0 4-2 8-5 11-2 3-6 4-11 4l-95 0 0 100c0 4-2 7-5 10-3 3-6 4-11 4-4 0-8-1-10-4-3-3-5-7-5-11l0-99-99 0c-4 0-8-1-11-5-2-3-4-6-4-10 0-5 2-8 4-11 3-3 7-5 11-5l99 0 0-95c0-5 2-8 5-11 3-3 6-4 10-4z m-1-128c-36 0-69 6-101 19-31 14-58 31-81 55-23 23-41 50-54 81-13 31-20 65-20 101 0 36 7 69 20 100 13 31 31 58 54 81 23 23 50 41 81 55 32 13 65 20 101 20 36 0 69-7 100-20 31-14 58-32 82-55 23-23 41-50 54-81 13-31 20-64 20-100 0-36-7-70-20-101-13-31-31-58-54-81-24-23-51-41-82-55-31-13-64-19-100-19z m0 256z m0-226c62 0 115 22 159 67 44 44 67 97 67 159 0 62-22 115-67 159-44 44-97 66-159 66-62 0-115-22-159-66-45-44-67-97-67-159 0-62 22-115 67-159 44-45 97-67 159-67z"/>
<glyph glyph-name="admin-l-icn" unicode="&#41218;" d="M370 117c11 0 21 4 29 13 9 8 13 18 13 29 0 12-4 22-13 30-8 8-18 12-29 12-12 0-22-4-31-12-8-8-12-18-12-29 0-11 4-22 12-30 9-9 19-13 31-13z m-1-84c15 0 28 3 41 10 12 6 22 15 30 26-11 7-23 11-35 15-11 3-24 4-36 4-13 0-25-1-37-4-12-4-23-8-34-15 8-11 19-20 31-26 12-7 25-10 40-10z m1-33c-32 0-59 11-82 34-22 23-34 50-34 81 0 31 12 61 34 83 23 23 50 35 83 35 33 0 59-12 82-35 23-22 34-50 34-83 0-32-11-58-34-81-23-23-51-34-83-34z m-141 3l-6 0c0 0-2 0-5 1-53 18-99 53-137 104-37 52-56 111-56 177l0 126c0 8 2 16 7 23 5 7 11 11 18 14l165 61c5 2 9 3 14 3 4 0 9-1 13-3l165-61c7-3 13-7 18-14 5-7 7-15 7-23l0-147c-5 2-10 3-15 6-6 2-11 3-16 3l0 139c0 1 0 3-1 4-1 2-2 3-4 4l-165 60c0 0-2 1-2 1-1 0-2 0-3-1l-165-60c-1-1-2-2-4-4-1-1-1-3-1-4l0-127c0-34 5-65 16-93 11-28 25-54 42-76 17-22 36-40 57-54 21-15 42-25 63-31l1 0c2-3 4-7 8-12 4-4 7-8 10-10-5-2-9-4-13-5-4-1-8-1-11-1z m0 253z"/>
<glyph glyph-name="below-benchmark-l-icn" unicode="&#41219;" d="M26 461l460 0c8 0 14-4 18-11 4-8 4-15-1-22l-229-367c-4-7-10-10-18-10-7 0-13 3-17 10l-231 367c-4 7-4 14 0 22 3 7 10 11 18 11z m21-33l210-333 207 333z"/>
<glyph glyph-name="close-l-icn" unicode="&#41220;" d="M256 223l-216-216c-5-5-11-7-16-7-6 0-12 2-17 7-4 5-7 10-7 16 0 6 2 12 7 16l216 217-216 216c-5 5-7 11-7 17 0 6 2 11 7 16 5 4 10 7 16 7 6 0 12-2 16-7l217-216 216 216c5 5 11 7 17 7 6 0 11-2 16-7 4-5 7-10 7-16 0-6-2-12-7-16l-216-217 216-216c5-5 7-11 7-16 0-6-2-12-7-17-5-4-10-7-16-7-6 0-12 3-16 7z"/>
<glyph glyph-name="create-l-icn" unicode="&#41221;" d="M256 113c5 0 9 1 13 5 3 3 4 7 4 12l0 109 109 0c5 0 9 1 12 5 4 3 5 7 5 12 0 5-1 9-5 13-3 3-7 5-12 5l-109 0 0 108c0 5-1 9-4 12-4 4-8 5-13 5-5 0-9-1-13-5-3-3-4-7-4-12l0-109-109 0c-5 0-9-1-12-5-4-3-5-7-5-12 0-5 1-9 5-13 3-3 7-5 12-5l109 0 0-108c0-5 1-9 5-13 3-3 7-5 12-5z m-212-113c-12 0-22 4-31 13-9 8-13 19-13 31l0 424c0 12 4 23 13 31 8 9 19 13 31 13l424 0c12 0 22-4 31-13 9-8 13-19 13-31l0-424c0-12-4-22-13-31-8-9-19-13-31-13z m0 34l424 0c3 0 6 1 7 2 2 2 3 4 3 8l0 424c0 3-1 6-3 7-1 2-4 3-7 3l-424 0c-3 0-6-1-7-3-2-1-3-4-3-7l0-424c0-3 1-6 3-7 1-2 4-3 7-3z m-10 10l0 424c0 2 0 2 0 0l0-424c0-2 0-2 0 0z"/>
<glyph glyph-name="create-new-group-l-icn" unicode="&#41222;" d="M295 190c4 0 7 1 10 4 3 3 5 7 5 11l0 74 73 0c5 0 9 2 12 5 3 3 4 7 4 11 0 4-1 8-4 11-3 3-7 5-12 5l-73 0 0 73c0 4-2 8-5 11-3 3-7 5-11 5-5 0-8-2-11-5-3-3-4-7-4-11l0-73-74 0c-4 0-8-2-11-5-3-3-5-7-5-12 0-4 2-8 5-11 3-2 7-4 11-4l74 0 0-74c0-4 1-7 4-10 3-4 7-5 12-5z m-179-113c-10 0-19 4-27 12-8 8-12 17-12 27l0 356c0 11 4 20 12 28 8 8 17 12 27 12l356 0c11 0 20-4 28-12 8-8 12-17 12-28l0-356c0-10-4-19-12-27-8-8-17-12-28-12z m0 31l356 0c3 0 5 1 6 2 2 2 3 4 3 6l0 356c0 3-1 5-3 6-1 2-3 3-6 3l-356 0c-2 0-4-1-6-3-1-1-2-3-2-6l0-356c0-2 1-4 2-6 2-1 4-2 6-2z m-76-108c-11 0-20 4-28 12-8 8-12 17-12 28l0 371c0 4 2 8 5 11 3 3 7 5 11 5 5 0 8-2 11-5 3-3 4-7 4-11l0-371c0-3 1-5 3-7 1-1 3-2 6-2l371 0c5 0 9-2 12-5 3-3 4-6 4-10 0-5-1-9-4-12-3-3-7-5-12-5l-371 0z m68 472l0-356c0-1 0-1 0 0l0 356c0 2 0 2 0 0z"/>
<glyph glyph-name="delete-l-icn" unicode="&#41223;" d="M103 0c-12 0-22 4-31 13-9 9-13 19-13 31l0 413-13 0c-5 0-9 1-13 5-3 3-5 7-5 12 0 5 2 9 5 12 4 3 8 5 13 5l112 0c0 6 2 12 7 15 4 4 9 6 15 6l152 0c6 0 11-2 16-6 4-4 6-9 6-15l112 0c6 0 10-2 13-5 3-3 5-8 5-13 0-4-2-8-5-11-3-4-7-5-13-5l-13 0 0-413c0-12-4-22-13-31-8-8-19-13-30-13l-307 0z m-9 457l0-413c0-3 0-5 2-7 2-2 4-3 7-3l306 0c3 0 5 1 6 3 2 2 3 4 3 7l0 413z m87-341c0-5 2-9 5-12 3-4 7-5 12-5 6 0 10 1 13 5 3 3 5 7 5 12l0 260c0 5-2 9-6 12-3 3-7 5-12 5-5 0-9-2-12-5-3-3-5-7-5-12l0-260z m115 0c0-5 2-9 6-12 3-4 7-5 12-5 5 0 9 1 12 5 3 3 5 7 5 12l0 260c0 5-2 9-5 12-3 3-7 5-12 5-6 0-10-2-13-5-3-3-5-7-5-12l0-260z m-202 341l0-413c0-3 0-5 2-7 2-2 4-3 7-3l-10 0 0 423z"/>
<glyph glyph-name="direct-to-other-page-l-icn" unicode="&#41224;" d="M248 9c-4 4-6 8-6 14 0 6 2 10 6 14l199 199-427 0c-6 0-11 2-14 6-4 4-6 8-6 14 0 6 2 10 6 14 3 4 8 6 14 6l427 0-199 199c-4 3-6 8-6 14 0 6 2 10 6 15 3 3 7 5 13 5 6 0 11-2 14-5l230-231c2-2 4-5 5-8 1-2 2-5 2-9 0-3 0-6-2-9-1-3-3-6-5-8l-230-231c-3-3-8-5-14-4-6 0-10 2-13 5z"/>
<glyph glyph-name="edit-l-icn" unicode="&#41225;" d="M35 34l30 0 333 333-31 31-332-333 0-31z m436 358l-80 78 32 32c7 7 15 10 25 10 9 0 18-4 24-10l31-31c6-6 9-14 9-24 0-9-3-17-9-24l-32-31z m-449-392c-6 0-12 2-16 7-4 4-6 9-6 15l0 48c0 3 1 6 2 8 1 3 2 5 5 7l360 361 79-78-361-361c-3-3-5-4-7-5-3-1-6-2-8-2z m360 383l-15 15 31-31z"/>
<glyph glyph-name="equal-to-benchmark-l-icn" unicode="&#41232;" d="M283 12c-7-8-16-12-26-12-11 0-20 4-28 12l-217 217c-8 7-12 16-12 26 0 11 4 20 12 28l217 217c7 8 16 12 26 12 11 0 20-4 28-12l217-217c8-8 12-16 12-27 0-10-4-19-12-27l-217-218z m-21 22l217 216c2 1 2 3 2 6 0 3 0 5-2 6l-217 216c-1 2-3 3-6 3-3 0-5-1-6-3l-216-216c-2-1-3-3-3-6 0-3 1-5 3-6l216-217c1-2 3-2 6-2 3 0 5 0 6 2z"/>
<glyph glyph-name="error-l-icn" unicode="&#41233;" d="M258 224c4 0 7 1 11 4 3 3 4 7 4 11l0 138c0 4-2 8-4 10-3 3-7 4-11 4-5 0-9-1-11-4-3-3-4-6-4-10l0-138c0-5 1-8 4-11 3-3 7-4 11-4z m-2-95c5 0 10 2 13 5 3 3 5 8 5 13 0 5-2 10-5 13-3 3-8 5-13 5-5 0-10-2-13-5-3-3-5-8-5-13 0-5 2-10 5-13 3-3 8-5 13-5z m0-129c-36 0-69 6-101 19-31 14-58 31-81 55-23 23-41 50-54 81-13 31-20 65-20 101 0 36 7 69 20 100 13 31 31 58 54 81 23 23 50 41 81 55 32 13 65 20 101 20 36 0 69-7 100-20 31-14 58-32 82-55 23-23 41-50 54-81 13-31 20-64 20-100 0-36-7-70-20-101-13-31-31-58-54-81-24-23-51-41-82-55-31-13-64-19-100-19z m0 256z m0-226c62 0 115 22 159 67 44 44 67 97 67 159 0 62-22 115-67 159-44 44-97 66-159 66-62 0-115-22-159-66-45-44-67-97-67-159 0-62 22-115 67-159 44-45 97-67 159-67z"/>
<glyph glyph-name="refresh-l-icn" unicode="&#41234;" d="M258 0c-72 0-132 25-182 75-50 49-74 110-74 181 0 71 24 132 74 181 50 50 110 75 182 75 46 0 87-10 123-30 36-20 66-48 91-83l0 93c0 6 2 11 6 14 3 4 8 6 14 6 5 0 10-2 13-6 4-3 5-8 5-14l0-148c0-7-2-13-7-18-4-4-10-7-17-7l-148 0c-6 0-11 2-14 6-4 4-6 8-6 14 0 6 2 10 6 14 3 4 8 6 14 6l115 0c-20 34-47 62-81 83-33 21-71 32-114 32-61 0-113-21-155-63-42-42-63-94-63-155 0-61 21-112 63-154 42-42 94-63 155-63 43 0 84 12 120 35 37 24 64 57 81 97 2 3 4 6 8 9 4 3 8 4 12 4 7 0 12-2 16-7 3-5 3-11 1-18-19-48-51-86-94-115-43-29-91-43-144-43z"/>
<glyph glyph-name="notification-l-icn" unicode="&#41235;" d="M256 87c9 0 17 3 24 10 7 7 11 15 12 25l-72 0c1-10 5-18 11-25 7-7 16-10 25-10z m-121 79l242 0 0 33-27 0 0 78c0 25-6 48-20 68-13 21-31 33-54 38l0 23c0 5-2 9-6 13-4 4-8 6-14 6-5 0-10-2-14-6-3-4-5-8-5-13l0-23c-24-5-42-17-55-37-14-19-20-41-20-66l0-81-27 0 0-33z m121-166c-36 0-69 6-101 19-31 14-58 31-81 55-23 23-41 50-54 81-13 31-20 65-20 101 0 36 7 69 20 100 13 31 31 58 54 81 23 23 50 41 81 55 32 13 65 20 101 20 36 0 69-7 100-20 31-14 58-32 82-55 23-23 41-50 54-81 13-31 20-64 20-100 0-36-7-70-20-101-13-31-31-58-54-81-24-23-51-41-82-55-31-13-64-19-100-19z m0 30c64 0 117 22 161 65 43 43 65 97 65 161 0 64-22 117-65 161-43 43-97 65-161 65-64 0-117-22-161-65-43-43-65-97-65-161 0-64 22-117 65-161 43-43 97-65 161-65z m-61 169l0 87c0 17 6 32 17 44 12 13 26 19 44 19 18 0 32-6 44-19 11-12 17-27 17-44l0-87z m61 57z"/>
<glyph glyph-name="logout-l-icn" unicode="&#41236;" d="M383 156c-3 4-5 8-5 12 0 5 2 9 5 12l59 59-242 0c-4 0-8 2-11 5-3 3-5 7-5 12 0 5 1 9 5 12 3 3 7 5 11 5l241 0-59 59c-3 3-5 7-5 12 0 4 2 8 5 12 4 3 8 5 12 5 5 0 9-2 12-5l85-85c3-3 4-5 5-8 1-2 2-5 2-8 0-2-1-5-2-7-1-2-2-5-5-7l-85-85c-2-3-6-4-11-4-4 0-8 2-12 5z m-326-156c-12 0-22 4-30 13-9 8-13 18-13 29l0 428c0 11 4 21 13 29 8 9 18 13 30 13l185 0c5 0 9-2 12-5 3-3 5-7 5-12 0-5-2-9-5-12-3-2-7-4-12-4l-185 0c-3 0-5-1-7-3-2-2-3-4-3-6l0-428c0-2 1-4 3-6 2-2 4-3 7-3l185 0c5 0 9-2 12-5 3-3 5-7 5-11 0-5-2-9-5-12-3-3-7-5-12-5z"/>
<glyph glyph-name="leesman-l-icn" unicode="&#41237;" d="M312 298l-111 0c-2 14-4 28-4 42 0 14 2 29 4 43l111 0 0 125c14 3 28 4 42 4 14 0 29-1 43-4l0-125 111 0c3-14 4-28 4-42 0-14-2-29-4-43l-111 0 0-125c-14-3-28-4-42-4-14 0-29 1-43 4l0 125z m-312 210c17 2 34 4 50 4 16 0 34-1 52-4l0-419 176 0c1-8 2-16 2-23 1-7 1-14 1-21 0-7 0-15-1-22 0-7-1-15-2-23l-278 0z"/>
<glyph glyph-name="home-l-icn" unicode="&#41238;" d="M60 36l120 0 0 188 152 0 0-188 120 0 0 293-196 147-196-147 0-294z m0-35c-9 0-17 4-24 10-7 7-10 15-10 25l0 293c0 6 1 11 3 16 2 5 6 9 11 12l195 147c3 3 7 4 10 5 4 1 8 2 11 2 4 0 8-1 11-2 4-1 7-2 10-5l196-147c4-3 8-7 10-12 3-5 4-10 4-16l0-294c0-9-4-17-11-24-6-7-15-10-24-10l-155 0 0 188-81 0 0-188-156 0z"/>
<glyph glyph-name="hide-l-icn" unicode="&#41239;" d="M343 235l-22 22c9 28 4 51-17 69-21 19-43 24-67 15l-22 22c6 3 12 6 19 7 7 2 14 3 22 3 27 0 50-9 69-28 19-19 28-42 28-69 0-8-1-15-3-22-2-7-4-13-7-19z m80-78l-20 18c19 14 36 30 50 47 15 17 25 35 33 54-21 45-52 80-92 106-41 27-85 40-134 40-15 0-31-2-48-4-16-3-30-7-40-11l-22 22c13 6 30 11 50 15 20 4 40 6 59 6 53 0 102-15 147-43 45-29 79-68 103-116 1-2 2-5 2-7 0-3 1-5 1-9 0-2 0-5-1-8 0-3-1-5-2-6-10-21-22-40-37-57-15-18-31-34-50-48z m26-124l-90 88c-13-6-28-10-46-14-18-3-37-5-57-5-54 0-104 14-150 43-45 29-79 67-103 116-1 3-2 5-2 7 0 3-1 5-1 8 0 3 0 6 1 8 0 3 1 5 1 7 10 19 22 37 36 55 14 18 31 33 49 48l-67 66c-2 3-3 6-4 10 0 4 1 7 4 10 4 3 7 4 11 4 4 0 7-1 10-4l428-428c3-3 4-6 4-9 0-4-1-7-4-10-2-3-5-5-9-5-5 0-8 2-11 5z m-343 341c-15-11-31-26-47-44-15-19-26-37-33-54 21-45 52-80 94-107 41-26 88-39 140-39 15 0 31 1 46 4 15 2 26 5 32 9l-44 44c-4-2-10-4-18-6-7-1-14-2-20-2-27 0-50 9-68 28-19 19-29 42-29 69 0 6 1 13 3 20 1 7 3 13 5 18l-60 60z m182-88z m-66-33z"/>
<glyph glyph-name="help-l-icn" unicode="&#41240;" d="M44 0c-12 0-22 4-31 13-9 8-13 19-13 31l0 424c0 12 4 23 13 31 8 9 19 13 31 13l424 0c12 0 22-4 31-13 9-8 13-19 13-31l0-424c0-12-4-22-13-31-8-9-19-13-31-13z m0 34l424 0c3 0 5 1 7 3 2 2 3 4 3 7l0 424c0 3-1 5-3 7-2 2-4 3-7 3l-424 0c-3 0-5-1-7-3-2-2-3-4-3-7l0-424c0-3 1-5 3-7 2-2 4-3 7-3z m-10 10l0 424c0 2 0 2 0 0l0-424c0-2 0-2 0 0z m221 48c7 0 13 2 17 6 5 5 8 11 8 18 0 6-3 12-8 17-4 4-10 7-17 7-6 0-12-3-17-7-5-5-7-11-7-17 0-7 3-13 7-18 5-4 10-6 17-6z m15 122c1 8 4 16 10 24 5 8 13 17 22 27 15 14 26 28 32 40 7 12 10 25 10 40 0 25-8 44-23 58-16 14-36 21-62 21-20 0-40-5-57-14-18-9-29-20-35-34-2-4-2-8-1-12 1-5 4-8 9-10 4-1 9-1 13 1 4 2 8 5 12 8 7 9 15 15 24 20 9 4 20 6 33 6 17 0 30-4 40-13 9-8 14-20 14-33 0-11-3-21-8-30-6-9-14-19-25-30-15-13-25-26-32-37-7-12-11-23-11-32 0-6 2-10 5-13 3-3 7-5 11-5 5 0 9 2 13 5 3 3 5 8 6 13z"/>
<glyph glyph-name="find-out-more-l-icn" unicode="&#41241;" d="M267 175l67 67c4 4 6 9 6 14 0 5-2 10-6 14l-68 68c-3 2-6 4-10 3-5 0-8-2-11-4-3-3-4-7-4-11 0-4 1-8 4-11l45-43-115 0c-5 0-8-2-11-5-3-3-4-7-4-11 0-4 1-8 4-11 3-3 7-4 11-4l115 0-46-45c-2-2-3-6-3-10 0-4 2-8 4-11 3-2 7-4 11-4 4 0 8 2 11 4z m-11-175c-36 0-69 6-101 19-31 14-58 31-81 55-23 23-41 50-54 81-13 31-20 65-20 101 0 36 7 69 20 100 13 31 31 58 54 81 23 23 50 41 81 55 32 13 65 20 101 20 36 0 69-7 100-20 31-14 58-32 82-55 23-23 41-50 54-81 13-31 20-64 20-100 0-36-7-70-20-101-13-31-31-58-54-81-24-23-51-41-82-55-31-13-64-19-100-19z m0 30c64 0 117 22 161 65 43 43 65 97 65 161 0 64-22 117-65 161-43 43-97 65-161 65-64 0-117-22-161-65-43-43-65-97-65-161 0-64 22-117 65-161 43-43 97-65 161-65z m0 226z"/>
<glyph glyph-name="filter-l-icn" unicode="&#41248;" d="M222 82c-5 0-9 2-12 5-3 3-5 7-5 12 0 5 1 9 5 12 3 3 7 4 12 4l69 0c4 0 9-1 12-5 3-3 4-7 4-12 0-4-1-8-4-11-3-3-8-5-12-5z m-205 315c-5 0-9 1-12 5-3 3-5 7-5 12 0 4 2 8 5 11 3 3 7 5 12 5l478 0c5 0 9-2 12-5 3-3 5-7 5-12 0-5-2-8-5-11-3-4-7-5-12-5z m88-158c-5 0-9 2-12 5-3 3-5 8-5 12 0 5 1 9 5 12 3 3 7 5 12 5l302 0c5 0 9-2 12-5 3-3 5-8 5-12 0-5-1-9-5-12-3-3-7-5-12-5z"/>
<glyph glyph-name="filter-applied-l-icn" unicode="&#41249;" d="M144 82l-127 0c-5 0-9 2-12 5-3 3-5 7-5 12 0 5 2 9 5 12 3 3 7 4 12 4l127 0c5 0 9-1 12-5 3-3 5-7 5-12 0-4-2-8-5-11-3-3-7-5-12-5z m351 315l-478 0c-5 0-9 1-12 5-3 3-5 7-5 12 0 4 2 8 5 11 3 3 7 5 12 5l478 0c5 0 9-2 12-5 3-3 5-7 5-12 0-5-2-8-5-11-3-4-7-5-12-5z m-176-158l-302 0c-5 0-9 2-12 5-3 3-5 8-5 12 0 5 2 9 5 12 3 3 7 5 12 5l303 0c5 0 9-2 12-5 3-3 5-8 5-12 0-5-2-9-5-12-3-3-7-5-12-5z"/>
<glyph glyph-name="export-l-icn" unicode="&#41250;" d="M256 137c-3 0-7 0-9 1-3 2-6 3-8 6l-110 109c-3 4-5 9-5 14 0 5 2 10 6 14 4 4 9 6 14 6 5 0 9-2 14-6l78-80 0 292c0 5 2 10 6 13 3 4 8 6 14 6 5 0 10-2 13-6 4-3 6-8 6-13l0-292 79 80c4 3 9 5 14 5 5 0 10-1 14-5 4-4 6-9 6-14 0-5-2-10-6-14l-110-109c-2-3-5-4-7-6-3-1-6-1-10-1z m-204-137c-14 0-25 5-35 14-9 10-14 21-14 35l0 86c0 5 2 9 5 13 4 4 9 5 14 5 6 0 10-1 14-5 3-4 5-8 5-13l0-86c0-3 1-5 3-8 2-2 5-3 8-3l408 0c3 0 6 1 8 3 2 3 3 5 3 8l0 86c0 5 2 9 6 13 3 4 7 5 13 5 5 0 10-1 13-5 4-4 6-8 6-13l0-86c0-14-5-25-15-35-9-9-21-14-34-14z"/>
<glyph glyph-name="expand-more-l-icn" unicode="&#41251;" d="M506 358l-236-236c-2-2-4-4-6-5-2-1-5-1-8-1-3 0-5 0-7 1-3 1-5 3-7 5l-236 236c-4 4-6 9-6 16 0 6 2 11 7 15 4 5 9 7 16 7 6 0 12-2 16-6l217-218 218 217c5 5 10 7 16 7 6 0 11-2 16-7 4-4 6-10 6-16 0-6-2-11-6-15z"/>
<glyph glyph-name="expand-less-l-icn" unicode="&#41252;" d="M505 122c-4-4-9-6-15-6-6 0-12 2-16 6l-219 218-218-218c-4-4-9-6-15-6-6 0-11 2-16 6-4 5-6 10-6 16 0 7 2 12 6 16l236 236c2 2 4 4 7 5 2 1 4 1 6 1 3 0 6 0 8-1 2-1 5-3 7-5l236-236c4-4 6-9 6-15 0-6-2-12-7-16z"/>
<glyph glyph-name="review-edit-answers-l-icn" unicode="&#41253;" d="M244 512c36 0 66-12 90-37 25-25 38-55 38-90 0-23-6-45-18-64-11-19-27-35-46-45l-13 0 0 25c15 9 26 21 35 36 8 14 13 30 13 48 0 27-10 50-29 70-20 19-43 28-71 28-27 0-50-9-70-28-19-20-29-43-29-70 0-17 4-34 13-49 9-14 21-26 35-35l0-34c-24 11-42 26-56 47-14 22-21 45-21 71 0 35 13 66 38 90 25 25 56 37 91 37z m-25-512c-5 0-10 1-15 3-5 2-9 5-13 9l-123 122 28 29c4 4 9 7 14 10 6 2 11 2 17 1l66-15 0 225c0 15 4 27 14 37 10 9 22 14 37 14 14 0 26-5 36-14 10-10 15-22 15-37l0-120 20 0c2 0 4 0 6-1 1-1 3-2 5-3l88-43c11-5 20-13 25-25 4-12 6-24 4-36l-22-125c-1-9-6-16-13-23-7-6-16-9-25-9l-164 0z m-3 29l175 0 24 140c1 3 1 7 0 10-1 4-4 7-7 9l-104 52-38 0 0 144c0 7-2 12-6 16-4 4-10 7-17 7-6 0-12-3-16-7-4-4-6-9-6-16l0-260-101 21-11-10 106-106z m175 0z"/>
<glyph glyph-name="save-all-changes-l-icn" unicode="&#41254;" d="M314 511c58-14 105-44 142-90 38-47 56-102 56-165 0-39-9-77-28-113-18-35-45-67-78-95l71 0c5 0 8-1 11-4 3-3 4-7 4-11 0-5-1-8-4-11-3-3-6-4-11-4l-107 0c-5 0-10 1-14 5-4 4-6 8-6 14l0 107c0 4 1 8 4 11 3 3 7 4 12 4 4 0 8-1 11-4 3-3 4-7 4-11l0-74c32 23 56 52 73 84 18 33 26 67 26 102 0 56-16 104-48 145-32 41-74 67-125 79-3 1-6 3-9 6-2 3-3 6-3 9 0 5 2 10 6 13 4 3 8 4 13 3z m-116-510c-58 14-105 43-142 90-38 46-56 101-56 165 0 39 9 77 28 113 18 35 45 67 78 95l-71 0c-5 0-8 1-11 4-3 3-4 7-4 11 0 5 1 9 4 11 3 4 6 5 11 5l107 0c5 0 10-2 14-6 4-3 6-8 6-14l0-106c0-5-1-9-4-12-3-3-7-4-12-4-4 0-8 2-11 4-3 3-4 7-4 12l0 74c-32-24-56-52-73-85-18-32-26-66-26-102 0-55 16-103 48-144 32-41 74-68 125-80 3-1 6-3 9-6 2-3 3-6 3-9 0-5-2-10-6-13-4-3-8-4-13-3z m19 153c-3 0-6 1-8 2-2 1-4 2-6 4l-74 74c-4 4-5 7-5 12 0 4 1 7 5 11 3 3 6 4 11 4 4 0 7-1 11-4l66-67 145 145c3 3 6 4 11 4 4 0 8-1 11-4 3-3 5-7 5-11 0-4-2-8-5-11l-153-153c-2-2-4-4-6-4-3-1-5-2-8-2z"/>
<glyph glyph-name="search-l-icn" unicode="&#41255;" d="M481 7l-183 182c-15-13-33-23-53-30-20-8-40-11-62-11-51 0-95 17-130 53-35 35-53 78-53 129 0 50 18 93 53 128 36 36 79 54 130 54 50 0 93-18 129-54 35-35 53-78 53-128 0-21-4-42-11-62-7-20-18-38-31-54l184-184c3-3 5-7 5-12 0-4-2-8-6-12-3-4-8-6-13-6-5 0-9 2-12 6z m-298 174c41 0 76 15 104 44 29 29 43 64 43 105 0 41-14 76-43 105-28 28-63 43-104 43-40 0-77-15-105-43-29-29-43-64-43-105 0-41 14-76 43-105 28-29 64-44 105-44z"/>
<glyph glyph-name="settings-l-icn" unicode="&#41256;" d="M292 3l-72 0c-5 0-9 1-13 5-3 3-6 6-6 11l-10 64c-9 3-19 7-29 13-11 6-20 13-27 19l-59-27c-5-2-10-2-14 0-5 1-9 4-11 9l-36 64c-3 4-4 9-2 13 1 5 4 9 8 11l53 40c-1 5-1 10-2 15 0 6 0 11 0 16 0 4 0 9 0 15 1 5 2 10 2 15l-53 41c-4 2-7 6-8 11-2 4-1 9 2 13l36 63c2 5 6 8 11 10 4 1 9 1 13-1l59-27c8 7 17 13 27 19 10 6 20 10 29 13l10 65c1 4 4 8 7 11 4 3 8 5 13 5l72 0c4 0 8-2 12-5 4-3 6-7 7-11l9-65c10-3 20-8 30-13 10-5 19-11 26-19l60 27c5 2 9 2 14 1 5-1 8-5 11-9l36-63c3-5 3-9 2-14-1-5-4-9-8-11l-54-40c1-5 2-10 2-16 1-5 1-10 1-15 0-4 0-9-1-15 0-5-1-11-2-16l54-39c4-3 7-7 8-11 1-5 0-10-3-14l-36-64c-2-4-6-8-11-9-4-1-9-1-13 1l-60 27c-8-7-16-13-26-19-10-7-20-11-29-13l-10-65c-1-4-3-8-7-11-3-3-8-5-12-5z m-37 178c21 0 39 7 54 22 15 14 22 32 22 53 0 21-8 39-22 53-15 15-33 22-54 22-21 0-38-7-53-22-15-14-22-32-22-53 0-21 7-39 22-53 15-15 32-22 53-22z m0 30c-12 0-23 5-31 13-9 9-13 20-13 32 0 12 4 23 13 32 8 8 19 13 31 13 13 0 23-5 32-13 9-9 13-20 13-32 0-12-5-23-13-32-9-8-19-13-32-13z m1 45z m-29-223l57 0 10 75c14 3 27 8 40 16 12 7 24 16 35 26l69-30 26 47-61 46c2 8 3 15 5 22 1 7 1 14 1 21 0 8 0 15-1 21-1 7-2 14-4 22l61 46-26 47-70-30c-9 11-21 20-34 28-13 8-27 13-41 14l-9 75-57 0-9-75c-15-2-28-7-41-14-12-7-24-16-34-28l-70 30-27-47 61-46c-1-6-3-14-4-21-1-7-2-15-2-22 0-8 1-15 2-22 1-7 2-14 4-21l-61-46 27-47 69 30c11-11 22-20 35-27 12-7 26-12 41-16l8-74z"/>
<glyph glyph-name="slider-left-l-icn" unicode="&#41257;" d="M358 6l-236 236c-2 2-4 4-5 6-1 2-1 5-1 8 0 3 0 5 1 7 1 3 3 5 5 7l236 236c4 4 9 6 16 6 6 0 12-2 16-7 4-4 6-9 6-16 0-6-2-12-6-16l-218-217 217-218c5-5 7-10 7-16 0-6-2-11-7-16-4-4-10-6-16-6-6 0-11 2-15 6z"/>
<glyph glyph-name="slider-right-l-icn" unicode="&#41264;" d="M122 7c-4 4-6 9-6 15 0 6 2 12 6 16l218 219-218 218c-4 4-6 9-6 15 0 6 2 11 6 16 5 4 10 6 16 6 7 0 12-2 16-6l236-236c2-2 4-4 5-7 1-2 1-4 1-6 0-3 0-6-1-8-1-2-3-5-5-7l-236-236c-4-4-9-6-15-6-7 0-12 2-17 7z"/>
<glyph glyph-name="status-complete-active-l-icn" unicode="&#41265;" d="M216 189l-68 68c-3 3-7 5-11 5-5 0-8-2-12-5-3-3-5-7-5-12 0-4 2-8 5-11l78-78c3-4 8-6 13-6 6 0 10 2 14 6l157 157c3 3 4 6 4 11 0 5-1 8-5 12-3 3-7 4-11 4-5 0-9-1-13-4z m40-189c-36 0-69 6-101 19-31 14-58 31-81 55-23 23-41 50-54 81-13 31-20 65-20 101 0 36 7 69 20 100 13 31 31 58 54 81 23 23 50 41 81 55 32 13 65 20 101 20 36 0 69-7 100-20 31-14 58-32 82-55 23-23 41-50 54-81 13-31 20-64 20-100 0-36-7-70-20-101-13-31-31-58-54-81-24-23-51-41-82-55-31-13-64-19-100-19z"/>
<glyph glyph-name="status-complete-l-icn" unicode="&#41266;" d="M216 189l-68 68c-3 3-7 5-11 5-5 0-8-2-12-5-3-4-5-7-5-12 0-5 2-8 5-12l78-77c4-4 9-6 14-6 5 0 9 2 13 6l157 156c3 3 4 7 4 12 0 4-2 8-5 11-3 4-7 5-11 5-5 0-9-2-13-5l-146-147z m40-189c-36 0-69 6-101 19-31 14-58 31-81 55-23 23-41 50-54 81-13 31-20 65-20 101 0 36 7 69 20 100 13 31 31 58 54 81 23 23 50 41 81 55 32 13 65 20 101 20 36 0 69-7 100-20 31-14 58-32 82-55 23-23 41-50 54-81 13-31 20-64 20-100 0-36-7-70-20-101-13-31-31-58-54-81-24-23-51-41-82-55-31-13-64-19-100-19z m0 256z m0-226c64 0 117 22 161 65 43 43 65 97 65 161 0 64-22 117-65 161-43 43-97 65-161 65-64 0-117-22-161-65-43-43-65-97-65-161 0-64 22-117 65-161 43-43 97-65 161-65z"/>
<glyph glyph-name="status-incomplete-active-l-icn" unicode="&#41267;" d="M145 145c3-3 7-5 11-5 4 0 7 2 11 5l89 89 89-89c3-3 7-5 11-5 4 0 8 2 10 5 4 3 5 7 5 11 0 4-1 7-5 11l-89 89 90 89c3 3 4 7 4 11 0 4-2 8-5 10-3 4-7 5-10 5-4 0-8-1-11-5l-89-89-90 90c-3 3-7 4-11 4-4 0-7-2-10-5-3-3-5-7-5-10 0-4 2-8 5-11l89-89-89-90c-3-3-5-7-5-11 0-4 2-7 5-10z m111-145c-36 0-69 6-101 19-31 14-58 31-81 55-23 23-41 50-54 81-13 31-20 65-20 101 0 36 7 69 20 100 13 31 31 58 54 81 23 23 50 41 81 55 32 13 65 20 101 20 36 0 69-7 100-20 31-14 58-32 82-55 23-23 41-50 54-81 13-31 20-64 20-100 0-36-7-70-20-101-13-31-31-58-54-81-24-23-51-41-82-55-31-13-64-19-100-19z"/>
<glyph glyph-name="status-incomplete-l-icn" unicode="&#41268;" d="M145 145c3-3 7-5 11-5 4 0 7 2 11 5l89 89 89-89c3-3 7-5 11-5 4 0 8 2 10 5 4 3 5 7 5 11 0 4-1 7-5 11l-89 89 90 89c3 3 4 7 4 11 0 4-2 8-5 10-3 4-7 5-10 5-4 0-8-1-11-5l-89-89-90 90c-3 3-7 4-11 4-4 0-7-2-10-5-3-3-5-7-5-10 0-4 2-8 5-11l89-89-89-90c-3-3-5-7-5-11 0-4 2-7 5-10z m111-145c-36 0-69 6-101 19-31 14-58 31-81 55-23 23-41 50-54 81-13 31-20 65-20 101 0 36 7 69 20 100 13 31 31 58 54 81 23 23 50 41 81 55 32 13 65 20 101 20 36 0 69-7 100-20 31-14 58-32 82-55 23-23 41-50 54-81 13-31 20-64 20-100 0-36-7-70-20-101-13-31-31-58-54-81-24-23-51-41-82-55-31-13-64-19-100-19z m0 256z m0-226c62 0 115 22 159 67 44 44 67 97 67 159 0 62-22 115-67 159-44 44-97 66-159 66-62 0-115-22-159-66-45-44-67-97-67-159 0-62 22-115 67-159 44-45 97-67 159-67z"/>
<glyph glyph-name="super-driver-l-icn" unicode="&#41269;" d="M187 6c-4-4-8-6-14-6-5 0-9 2-13 6-4 4-6 8-6 13 0 5 1 9 4 14l124 172-207 20c-11 1-19 6-22 17-3 11-1 20 7 27l265 237c4 4 8 6 14 6 5 0 9-2 13-6 4-4 6-8 6-13 0-5-1-9-4-14l-124-172 207-20c11-1 19-6 22-17 3-11 1-20-7-27z"/>
<glyph glyph-name="tertiary-dropdown-l-icn" unicode="&#41270;" d="M218 119l-198 199c-18 17-22 37-13 59 10 22 26 33 50 33l399 0c24 0 40-11 49-33 8-22 5-42-12-59l-198-199c-7-6-13-11-19-13-6-3-13-4-21-4-7 0-13 1-19 4-6 2-12 7-18 13z"/>
<glyph glyph-name="view-l-icn" unicode="&#41271;" d="M256 159c27 0 50 10 69 29 18 19 28 42 28 68 0 27-10 50-29 69-19 19-42 28-68 28-27 0-50-10-69-29-19-19-28-42-28-68 0-27 9-50 29-69 19-18 41-28 68-28z m0 28c-19 0-36 7-49 20-13 14-20 30-20 49 0 19 7 36 20 49 14 14 30 20 49 20 19 0 36-6 49-20 13-14 20-30 20-49 0-19-7-36-20-49-14-13-30-20-49-20z m0-105c-54 0-104 15-148 44-45 28-80 67-105 116-1 1-2 4-2 6-1 2-1 5-1 8 0 3 0 6 1 8 0 3 1 5 2 6 25 49 60 88 105 116 44 29 94 44 148 44 54 0 104-15 148-44 45-28 80-67 105-116 1-1 2-4 2-6 1-2 1-5 1-8 0-3 0-6-1-8 0-3-1-5-2-6-25-49-60-88-105-117-44-29-94-43-148-43z"/>
<glyph glyph-name="top-tip-l-icn" unicode="&#41272;" d="M256 8c-13 0-24 4-34 13-9 9-14 20-15 34l98 0c-1-14-6-25-15-34-10-9-21-13-34-13z m-82 92c-5 0-8 2-11 4-3 3-4 7-4 11 0 5 1 8 4 11 3 3 6 4 11 4l165 0c4 0 7-1 10-4 3-3 5-6 5-11 0-4-2-8-5-11-2-2-6-4-10-4z m-13 74c-26 18-47 39-62 65-15 26-22 54-22 86 0 49 17 91 53 126 35 35 77 53 126 53 49 0 91-18 127-53 35-35 52-77 52-126 0-32-7-61-22-86-15-26-35-47-61-65l-191 0z"/>
</font>
</defs>
</svg>
