<svg width="117" height="26" viewBox="0 0 117 26" fill="none" xmlns="http://www.w3.org/2000/svg">
<path d="M0 4.98186C0.707233 4.86746 1.38326 4.80505 2.03849 4.80505C2.69372 4.80505 3.41136 4.85706 4.13939 4.98186V22.0074H11.2949C11.3469 22.3299 11.3885 22.6419 11.4093 22.9435C11.4301 23.2451 11.4405 23.5259 11.4405 23.7859C11.4405 24.0979 11.4405 24.3996 11.4093 24.6908C11.3885 24.9924 11.3469 25.294 11.2949 25.6268H0V4.98186Z" fill="#1E1E1E"/>
<path d="M17.088 19.449C17.1608 20.593 17.5664 21.4355 18.2944 21.9451C19.0225 22.4651 19.9793 22.7251 21.165 22.7251C21.8202 22.7251 22.4858 22.6627 23.1619 22.5379C23.8379 22.4131 24.4931 22.2363 25.0963 22.0075C25.3044 22.3923 25.4916 22.8499 25.6476 23.3804C25.8036 23.9212 25.8868 24.4932 25.9076 25.1068C24.4099 25.6789 22.725 25.9701 20.8529 25.9701C19.4697 25.9701 18.284 25.7725 17.3064 25.3981C16.3183 25.0132 15.5175 24.4828 14.8935 23.8068C14.2694 23.1307 13.8118 22.3195 13.5102 21.3835C13.2086 20.4474 13.063 19.4178 13.063 18.3049C13.063 17.1921 13.219 16.1936 13.5206 15.2264C13.8326 14.2695 14.2798 13.4375 14.8831 12.7303C15.4863 12.023 16.2351 11.4614 17.1296 11.0454C18.0136 10.6294 19.0537 10.4318 20.2497 10.4318C21.2794 10.4318 22.205 10.619 23.0058 10.9726C23.8067 11.3366 24.4931 11.8358 25.0547 12.4703C25.6164 13.1047 26.0428 13.8535 26.334 14.7272C26.6252 15.6008 26.7604 16.5368 26.7604 17.5249C26.7604 17.8889 26.75 18.2529 26.7188 18.6065C26.6876 18.9602 26.6564 19.241 26.6148 19.449H17.0776H17.088ZM22.9226 16.6096C22.881 15.6944 22.6314 14.9456 22.1634 14.3839C21.6954 13.8223 21.0402 13.5311 20.1977 13.5311C19.2409 13.5311 18.5128 13.8015 18.0136 14.3319C17.5144 14.8728 17.2232 15.6216 17.1192 16.5992H22.9226V16.6096Z" fill="#1E1E1E"/>
<path d="M32.8344 19.449C32.9072 20.593 33.3128 21.4355 34.0409 21.9451C34.7689 22.4651 35.7257 22.7251 36.9114 22.7251C37.5666 22.7251 38.2219 22.6627 38.9083 22.5379C39.5947 22.4131 40.2396 22.2363 40.8532 22.0075C41.0612 22.3923 41.238 22.8499 41.394 23.3804C41.55 23.9212 41.6332 24.4932 41.654 25.1068C40.1667 25.6789 38.4715 25.9701 36.5994 25.9701C35.2265 25.9701 34.0409 25.7725 33.0528 25.3981C32.0752 25.0132 31.2639 24.4828 30.6399 23.8068C30.0159 23.1307 29.5583 22.3195 29.267 21.3835C28.9654 20.4474 28.8198 19.4178 28.8198 18.3049C28.8198 17.1921 28.9758 16.1936 29.2774 15.2264C29.5791 14.2695 30.0367 13.4375 30.6399 12.7303C31.2431 12.023 31.992 11.4614 32.8864 11.0454C33.7809 10.6294 34.8105 10.4318 36.0066 10.4318C37.0466 10.4318 37.9618 10.619 38.7627 10.9726C39.5635 11.3366 40.25 11.8358 40.822 12.4703C41.3836 13.1047 41.81 13.8535 42.1012 14.7272C42.3925 15.6008 42.5381 16.5368 42.5381 17.5249C42.5381 17.8889 42.5173 18.2529 42.4965 18.6065C42.4653 18.9602 42.4341 19.241 42.3925 19.449H32.8552H32.8344ZM38.6587 16.6096C38.6275 15.6944 38.3675 14.9456 37.8994 14.3839C37.4314 13.8223 36.7762 13.5311 35.9338 13.5311C34.9769 13.5311 34.2489 13.8015 33.7497 14.3319C33.2504 14.8728 32.9592 15.6216 32.8552 16.5992H38.6587V16.6096Z" fill="#1E1E1E"/>
<path d="M48.1229 19.1682C47.0517 18.8666 46.2196 18.4089 45.6164 17.8057C45.0132 17.2025 44.7116 16.2976 44.7116 15.0912C44.7116 13.6351 45.2316 12.4911 46.2716 11.6694C47.3117 10.8478 48.7366 10.4318 50.5358 10.4318C51.2847 10.4318 52.0231 10.4942 52.7511 10.6294C53.4792 10.7646 54.2176 10.9622 54.9664 11.2326C54.9248 11.7318 54.8312 12.2518 54.6752 12.7823C54.5192 13.3231 54.3424 13.7911 54.1344 14.1863C53.6768 13.9991 53.1672 13.8327 52.6055 13.6871C52.0543 13.5415 51.4719 13.4687 50.8479 13.4687C50.1926 13.4687 49.6934 13.5727 49.3294 13.7703C48.9654 13.9679 48.7782 14.2903 48.7782 14.7376C48.7782 15.1848 48.903 15.4552 49.163 15.632C49.423 15.8088 49.787 15.9648 50.2758 16.1208L51.9087 16.6096C52.4495 16.7657 52.928 16.9529 53.3544 17.1713C53.7912 17.3897 54.1552 17.6705 54.4672 17.9929C54.7688 18.3153 55.0081 18.7209 55.1849 19.1994C55.3617 19.6778 55.4449 20.2602 55.4449 20.9466C55.4449 21.6331 55.2993 22.3195 54.9977 22.9227C54.696 23.5364 54.2696 24.0668 53.708 24.514C53.1464 24.9612 52.4599 25.3149 51.6591 25.5749C50.8583 25.8349 49.943 25.9597 48.9342 25.9597C48.4765 25.9597 48.0501 25.9493 47.6757 25.9181C47.2909 25.8869 46.9269 25.8453 46.5629 25.7725C46.2092 25.6997 45.866 25.6269 45.5124 25.5333C45.1692 25.4397 44.7948 25.3149 44.3892 25.1588C44.4308 24.6388 44.514 24.1188 44.6596 23.5988C44.8052 23.0683 44.9924 22.5587 45.2212 22.0595C45.8556 22.3091 46.4485 22.4963 47.0205 22.6211C47.5821 22.7459 48.1749 22.8083 48.7886 22.8083C49.059 22.8083 49.3502 22.7875 49.6622 22.7355C49.9846 22.6939 50.2758 22.6003 50.5358 22.4755C50.8063 22.3507 51.0247 22.1843 51.2119 21.9867C51.3991 21.7891 51.4823 21.5187 51.4823 21.1963C51.4823 20.7386 51.3471 20.4058 51.0663 20.2082C50.7855 20.0106 50.4006 19.8338 49.9014 19.6778L48.1229 19.1578V19.1682Z" fill="#1E1E1E"/>
<path d="M58.0972 10.7854C58.3676 10.723 58.638 10.6814 58.898 10.6606C59.1684 10.6294 59.4596 10.619 59.7924 10.619C60.1253 10.619 60.4061 10.6294 60.6557 10.6606C60.9053 10.6918 61.1653 10.7334 61.4357 10.7854C61.4877 10.879 61.5501 11.0142 61.5917 11.2014C61.6437 11.3886 61.6853 11.5758 61.7165 11.7734C61.7581 11.971 61.7893 12.1686 61.8205 12.3663C61.8517 12.5639 61.8725 12.7199 61.8933 12.8551C62.0493 12.5639 62.247 12.283 62.4966 11.9918C62.7462 11.7006 63.0374 11.451 63.391 11.2118C63.7342 10.983 64.119 10.7958 64.5559 10.6502C64.9823 10.5046 65.4711 10.4318 66.0015 10.4318C68.3208 10.4318 69.8081 11.3158 70.4529 13.0735C70.8378 12.3663 71.3786 11.7526 72.0754 11.2222C72.7722 10.6918 73.6563 10.4318 74.7275 10.4318C76.4124 10.4318 77.6501 10.8998 78.4509 11.8254C79.2413 12.7511 79.647 14.2071 79.647 16.1728V25.6269C78.9605 25.7413 78.2741 25.8037 77.6085 25.8037C76.9428 25.8037 76.2564 25.7413 75.57 25.6269V17.2441C75.57 16.2144 75.4452 15.4136 75.1852 14.8624C74.9251 14.3111 74.4051 14.0303 73.6251 14.0303C73.2923 14.0303 72.9803 14.0823 72.6682 14.1759C72.3562 14.2695 72.065 14.4463 71.805 14.7064C71.545 14.9664 71.337 15.3304 71.1706 15.7984C71.0042 16.2664 70.9314 16.8801 70.9314 17.6185V25.6269C70.2449 25.7413 69.5585 25.8037 68.8929 25.8037C68.2272 25.8037 67.5408 25.7413 66.8544 25.6269V17.2441C66.8544 16.2144 66.7296 15.4136 66.4696 14.8624C66.2095 14.3111 65.6895 14.0303 64.9095 14.0303C64.5871 14.0303 64.2543 14.0823 63.9318 14.1759C63.599 14.2695 63.3078 14.4567 63.0478 14.7376C62.7878 15.0184 62.5902 15.4032 62.4342 15.9024C62.2782 16.4016 62.2054 17.0465 62.2054 17.8577V25.6373C61.5189 25.7517 60.8325 25.8141 60.1669 25.8141C59.5012 25.8141 58.8148 25.7517 58.1284 25.6373V10.7854H58.0972Z" fill="#1E1E1E"/>
<path d="M90.4219 15.8608C90.4219 15.4032 90.3491 15.0288 90.1931 14.7376C90.0371 14.4463 89.8291 14.2279 89.5587 14.0615C89.2883 13.8951 88.9555 13.7911 88.5603 13.7287C88.165 13.6663 87.7282 13.6455 87.2602 13.6455C86.2202 13.6455 85.1177 13.8431 83.9528 14.2487C83.6824 13.7495 83.4848 13.2815 83.3496 12.8447C83.2144 12.4079 83.152 11.8774 83.152 11.2638C83.9944 10.9726 84.8369 10.7646 85.6793 10.6294C86.5218 10.4942 87.3122 10.4318 88.0402 10.4318C90.0267 10.4318 91.5868 10.9102 92.71 11.867C93.8333 12.8239 94.3949 14.3527 94.3949 16.464V25.0756C93.7293 25.2837 92.9077 25.4917 91.9508 25.6789C90.994 25.8661 89.9123 25.9701 88.7059 25.9701C87.7282 25.9701 86.8338 25.8869 86.0225 25.7101C85.2113 25.5333 84.5145 25.2524 83.932 24.8468C83.3496 24.4412 82.9024 23.9316 82.58 23.2972C82.268 22.6627 82.1016 21.8931 82.1016 20.9675C82.1016 20.0418 82.2992 19.2826 82.6944 18.6585C83.0896 18.0345 83.5992 17.5353 84.2233 17.1609C84.8473 16.7865 85.5441 16.5264 86.3034 16.36C87.073 16.1936 87.8322 16.1208 88.6019 16.1208C89.1531 16.1208 89.7667 16.152 90.4427 16.204V15.8608H90.4219ZM90.4219 18.8146C90.1931 18.7729 89.9435 18.7417 89.6731 18.7105C89.4027 18.6793 89.1635 18.6689 88.9555 18.6689C88.0194 18.6689 87.281 18.8354 86.7298 19.1682C86.1889 19.501 85.9081 20.0418 85.9081 20.7906C85.9081 21.2899 86.0121 21.6747 86.2306 21.9347C86.4386 22.2051 86.6882 22.4027 86.9898 22.5275C87.2914 22.6523 87.6034 22.7251 87.9362 22.7563C88.269 22.7875 88.5603 22.7979 88.8099 22.7979C89.1011 22.7979 89.3819 22.7771 89.6731 22.7251C89.9643 22.6835 90.2139 22.6315 90.4219 22.6003V18.8042V18.8146Z" fill="#1E1E1E"/>
<path d="M97.6916 10.7854C97.962 10.723 98.222 10.6814 98.4924 10.6606C98.7628 10.6294 99.054 10.619 99.3868 10.619C99.7196 10.619 100 10.6294 100.25 10.6606C100.5 10.6918 100.76 10.7334 101.02 10.7854C101.082 10.879 101.134 11.0142 101.176 11.2014C101.228 11.3886 101.269 11.5758 101.301 11.7734C101.332 11.971 101.373 12.1686 101.405 12.3663C101.436 12.5639 101.457 12.7199 101.477 12.8551C101.665 12.5639 101.893 12.283 102.164 11.9918C102.434 11.7006 102.746 11.451 103.1 11.2118C103.453 10.983 103.849 10.7958 104.296 10.6502C104.733 10.5046 105.222 10.4318 105.762 10.4318C107.447 10.4318 108.716 10.8894 109.569 11.8046C110.422 12.7199 110.848 14.1655 110.848 16.1416V25.6165C110.162 25.7309 109.475 25.7933 108.81 25.7933C108.144 25.7933 107.458 25.7309 106.771 25.6165V17.2337C106.771 16.204 106.615 15.4032 106.293 14.852C105.981 14.3007 105.43 14.0199 104.639 14.0199C104.306 14.0199 103.973 14.0719 103.63 14.1655C103.287 14.2591 102.975 14.4463 102.694 14.7272C102.413 15.008 102.195 15.3928 102.018 15.892C101.841 16.3912 101.758 17.0361 101.758 17.8473V25.6269C101.061 25.7413 100.385 25.8037 99.7196 25.8037C99.054 25.8037 98.3676 25.7413 97.6812 25.6269V10.7854H97.6916Z" fill="#1E1E1E"/>
<path d="M113.583 5.81387C113.147 5.81387 112.751 5.74107 112.398 5.59546C112.044 5.44985 111.732 5.24184 111.482 4.98183C111.233 4.72182 111.035 4.4202 110.89 4.06659C110.744 3.71297 110.682 3.32815 110.682 2.91213C110.682 2.49612 110.754 2.1113 110.89 1.75768C111.025 1.40407 111.222 1.09205 111.482 0.832039C111.732 0.572026 112.044 0.374417 112.398 0.21841C112.751 0.0728034 113.147 0 113.583 0C114.02 0 114.415 0.0728034 114.769 0.21841C115.123 0.364017 115.435 0.572026 115.684 0.832039C115.934 1.09205 116.131 1.40407 116.277 1.75768C116.412 2.1113 116.485 2.49612 116.485 2.91213C116.485 3.32815 116.412 3.71297 116.277 4.06659C116.142 4.4202 115.944 4.72182 115.684 4.98183C115.435 5.24184 115.123 5.43945 114.769 5.59546C114.415 5.74107 114.02 5.81387 113.583 5.81387ZM113.583 5.23144C113.937 5.23144 114.259 5.16904 114.54 5.05463C114.821 4.92983 115.06 4.77382 115.258 4.56581C115.455 4.3578 115.601 4.10819 115.705 3.82738C115.809 3.54656 115.861 3.23455 115.861 2.91213C115.861 2.58972 115.809 2.27771 115.705 1.99689C115.601 1.71608 115.455 1.46647 115.258 1.25846C115.06 1.05045 114.821 0.884041 114.54 0.769636C114.259 0.64483 113.937 0.592827 113.583 0.592827C113.23 0.592827 112.907 0.65523 112.627 0.769636C112.346 0.894441 112.107 1.05045 111.909 1.25846C111.711 1.46647 111.566 1.71608 111.462 1.99689C111.358 2.27771 111.306 2.58972 111.306 2.91213C111.306 3.23455 111.358 3.54656 111.462 3.82738C111.566 4.10819 111.711 4.3578 111.909 4.56581C112.107 4.77382 112.346 4.94023 112.627 5.05463C112.907 5.17944 113.23 5.23144 113.583 5.23144ZM112.533 1.35206C112.679 1.33126 112.824 1.31046 112.959 1.28966C113.095 1.27926 113.251 1.26886 113.417 1.26886C113.916 1.26886 114.27 1.35206 114.478 1.52887C114.696 1.70568 114.8 1.93449 114.8 2.2153C114.8 2.39211 114.769 2.54812 114.696 2.69372C114.623 2.82893 114.551 2.93294 114.457 3.00574L114.343 3.09934L115.029 4.3162C114.956 4.3266 114.883 4.337 114.8 4.337C114.717 4.337 114.634 4.337 114.551 4.337C114.478 4.337 114.405 4.337 114.343 4.337C114.28 4.337 114.218 4.3266 114.155 4.3162L113.448 2.94334L113.573 2.86013C113.698 2.78733 113.791 2.70413 113.875 2.62092C113.958 2.53772 113.989 2.43371 113.989 2.30891C113.989 2.1841 113.947 2.0905 113.875 2.01769C113.802 1.94489 113.687 1.90329 113.531 1.90329C113.5 1.90329 113.459 1.90329 113.438 1.90329C113.407 1.90329 113.365 1.90329 113.313 1.92409V4.3162C113.209 4.337 113.084 4.3474 112.949 4.3474C112.887 4.3474 112.824 4.3474 112.751 4.3474C112.679 4.3474 112.616 4.337 112.543 4.3266V1.35206H112.533Z" fill="#1E1E1E"/>
</svg>
