<svg width="16" height="15" viewBox="0 0 16 15" fill="none" xmlns="http://www.w3.org/2000/svg">
<path d="M1.77976 15C1.42976 15 1.12976 14.88 0.879761 14.63C0.629761 14.38 0.509766 14.08 0.509766 13.73V1.28998C0.509766 0.939978 0.639761 0.640015 0.879761 0.390015C1.12976 0.140015 1.42976 0.0200195 1.77976 0.0200195H14.2198C14.5698 0.0200195 14.8698 0.140015 15.1198 0.390015C15.3698 0.640015 15.4898 0.939978 15.4898 1.28998V13.73C15.4898 14.08 15.3698 14.38 15.1198 14.63C14.8698 14.88 14.5698 15 14.2198 15H1.77976ZM1.77976 14.01H14.2198C14.3098 14.01 14.3798 13.98 14.4298 13.93C14.4798 13.88 14.5098 13.81 14.5098 13.72V1.28003C14.5098 1.19003 14.4798 1.12001 14.4298 1.07001C14.3798 1.02001 14.3098 0.98999 14.2198 0.98999H1.77976C1.68976 0.98999 1.61976 1.02001 1.56976 1.07001C1.51976 1.12001 1.48976 1.19003 1.48976 1.28003V13.72C1.48976 13.81 1.51976 13.88 1.56976 13.93C1.61976 13.98 1.68976 14.01 1.77976 14.01ZM4.46976 11.74C4.61976 11.74 4.73977 11.69 4.82977 11.6C4.91977 11.51 4.96976 11.39 4.96976 11.26V7.96997C4.96976 7.81997 4.91977 7.69999 4.82977 7.60999C4.72977 7.50999 4.60976 7.46997 4.46976 7.46997C4.32976 7.46997 4.19976 7.51999 4.10976 7.60999C4.00976 7.70999 3.96976 7.82997 3.96976 7.96997V11.26C3.96976 11.39 4.01977 11.51 4.11977 11.6C4.21977 11.69 4.33976 11.74 4.46976 11.74ZM11.5298 11.74C11.6798 11.74 11.7998 11.69 11.8898 11.6C11.9798 11.51 12.0298 11.39 12.0298 11.26V3.32001C12.0298 3.19001 11.9798 3.06998 11.8798 2.97998C11.7798 2.88998 11.6598 2.84003 11.5298 2.84003C11.3798 2.84003 11.2598 2.88998 11.1698 2.97998C11.0698 3.07998 11.0298 3.19001 11.0298 3.32001V11.26C11.0298 11.39 11.0798 11.51 11.1698 11.6C11.2698 11.7 11.3898 11.74 11.5298 11.74ZM7.99976 11.74C8.14976 11.74 8.26976 11.69 8.35976 11.6C8.45976 11.5 8.49976 11.39 8.49976 11.26V9.84998C8.49976 9.71998 8.44976 9.6 8.35976 9.5C8.25976 9.4 8.13976 9.34998 7.99976 9.34998C7.85976 9.34998 7.72976 9.4 7.63976 9.5C7.53976 9.6 7.49976 9.71998 7.49976 9.84998V11.26C7.49976 11.39 7.54976 11.51 7.63976 11.6C7.73976 11.7 7.85976 11.74 7.99976 11.74ZM7.99976 7.46002C8.14976 7.46002 8.26976 7.41001 8.35976 7.32001C8.45976 7.22001 8.49976 7.10998 8.49976 6.97998V6.52002C8.49976 6.37002 8.44976 6.25998 8.34976 6.16998C8.24976 6.07998 8.12976 6.03998 7.99976 6.03998C7.84976 6.03998 7.72976 6.08999 7.63976 6.17999C7.54976 6.26999 7.49976 6.39998 7.49976 6.53998V7C7.49976 7.13 7.54977 7.24002 7.64977 7.33002C7.74976 7.42002 7.86976 7.46002 7.99976 7.46002Z" fill="#1E1E1E"/>
</svg>
