<svg width="16" height="15" viewBox="0 0 16 15" fill="none" xmlns="http://www.w3.org/2000/svg">
<path d="M7.99976 11.69C8.14976 11.69 8.26976 11.64 8.35976 11.55C8.45976 11.45 8.49976 11.33 8.49976 11.19V8.01001H11.6798C11.8298 8.01001 11.9498 7.96 12.0398 7.87C12.1398 7.77 12.1798 7.65001 12.1798 7.51001C12.1798 7.37001 12.1298 7.24002 12.0398 7.15002C11.9398 7.05002 11.8198 7.01001 11.6798 7.01001H8.49976V3.83002C8.49976 3.68002 8.44976 3.55997 8.35976 3.46997C8.25976 3.36997 8.13976 3.33002 7.99976 3.33002C7.85976 3.33002 7.72976 3.37997 7.63976 3.46997C7.53976 3.56997 7.49976 3.69002 7.49976 3.83002V7.01001H4.31976C4.16976 7.01001 4.04976 7.06002 3.95976 7.15002C3.85976 7.25002 3.81976 7.37001 3.81976 7.51001C3.81976 7.65001 3.86976 7.77999 3.95976 7.87C4.05976 7.97 4.17976 8.01001 4.31976 8.01001H7.49976V11.19C7.49976 11.34 7.54976 11.46 7.63976 11.55C7.73976 11.65 7.85976 11.69 7.99976 11.69ZM1.77976 15C1.42976 15 1.12976 14.88 0.879761 14.63C0.629761 14.38 0.509766 14.08 0.509766 13.73V1.28998C0.509766 0.939978 0.629761 0.640015 0.879761 0.390015C1.12976 0.140015 1.42976 0.0200195 1.77976 0.0200195H14.2198C14.5698 0.0200195 14.8698 0.140015 15.1198 0.390015C15.3698 0.640015 15.4898 0.939978 15.4898 1.28998V13.73C15.4898 14.08 15.3698 14.38 15.1198 14.63C14.8698 14.88 14.5698 15 14.2198 15H1.77976ZM1.77976 14.01H14.2198C14.3098 14.01 14.3798 13.98 14.4298 13.93C14.4798 13.88 14.5098 13.81 14.5098 13.72V1.28003C14.5098 1.19003 14.4798 1.12001 14.4298 1.07001C14.3798 1.02001 14.3098 0.98999 14.2198 0.98999H1.77976C1.68976 0.98999 1.61976 1.02001 1.56976 1.07001C1.51976 1.12001 1.48976 1.19003 1.48976 1.28003V13.72C1.48976 13.81 1.51976 13.88 1.56976 13.93C1.61976 13.98 1.68976 14.01 1.77976 14.01Z" fill="#1E1E1E"/>
</svg>
