<svg width="10" height="15" viewBox="0 0 10 15" fill="none" xmlns="http://www.w3.org/2000/svg">
<path d="M1.0899 14.8C0.969897 14.68 0.909904 14.53 0.909904 14.35C0.909904 14.17 0.969897 14.01 1.0899 13.88L7.4799 7.48999L1.0899 1.09998C0.969897 0.979976 0.909902 0.829973 0.899902 0.659973C0.899902 0.489973 0.959897 0.330012 1.0899 0.200012C1.2099 0.0800122 1.3699 0.0200098 1.5499 0.0100098C1.7399 0.0100098 1.8899 0.0599927 2.0099 0.179993L8.9199 7.09003C8.9899 7.16003 9.0299 7.21998 9.0599 7.28998C9.0899 7.35998 9.0999 7.41999 9.0999 7.48999C9.0999 7.56999 9.0899 7.64002 9.0599 7.71002C9.0299 7.78002 8.9899 7.83997 8.9199 7.90997L2.0099 14.82C1.8899 14.94 1.7399 15 1.5599 15C1.3799 15 1.2199 14.93 1.0899 14.8Z" fill="#1E1E1E"/>
</svg>
