<?xml version="1.0" encoding="utf-8"?>
<!-- Generator: Adobe Illustrator 26.0.3, SVG Export Plug-In . SVG Version: 6.00 Build 0)  -->
<svg version="1.1" id="Layer_1" xmlns="http://www.w3.org/2000/svg" xmlns:xlink="http://www.w3.org/1999/xlink" x="0px" y="0px"
	 viewBox="0 0 141.7 141.7" style="enable-background:new 0 0 141.7 141.7;" xml:space="preserve">
<style type="text/css">
	.st0{fill:none;stroke:#1D1D1B;stroke-width:2;stroke-linejoin:round;stroke-miterlimit:10;}
	.st1{fill:none;stroke:#000000;stroke-width:2;stroke-linejoin:round;stroke-miterlimit:10;}
	.st2{fill:none;stroke:#000000;stroke-width:2;stroke-miterlimit:10;}
</style>
<g>
	<g>
		<polygon class="st0" points="82.6,111.8 58.4,111.8 70.5,99.7 		"/>
		<polyline class="st0" points="15.2,94.3 70.5,94.3 125.8,94.3 		"/>
	</g>
	<g>
		<path class="st1" d="M36.7,79.3v-1c0-1.7-5.1-3.9-9.3-3.9s-9.3,3.2-9.3,4.9v9.8"/>
		<path class="st1" d="M27.6,60.1c-2.4,0-4.6,1.8-4.6,4.1v3.2c0,2.3,2.2,4.1,4.6,4.1s4.6-1.8,4.6-4.1v-3.2
			C32.3,61.9,30,60.1,27.6,60.1z"/>
		<polyline class="st1" points="41.8,91 47,81.2 32.5,81.2 29.5,88.1 23.3,88.1 		"/>
	</g>
	<g>
		<path class="st2" d="M95.1,89.7v-2.6c0-1.5,4.3-3.9,7.9-3.9l0,0c3.5,0,7.9,2.4,7.9,3.9v2.6"/>
		<path class="st2" d="M102.9,83.1c3.2,0,5.2-2.5,5.2-5.6v-1.9c0-3.1-2.1-5.6-5.2-5.6c-3.2,0-5.2,2.5-5.2,5.6v1.9
			C97.7,80.6,99.8,83.1,102.9,83.1z"/>
		<path class="st2" d="M110.8,87.1c0-1.5,4.3-3.9,7.9-3.9l0,0c3.5,0,7.9,2.4,7.9,3.9v2.6"/>
		<path class="st2" d="M118.6,83.1c3.2,0,5.2-2.5,5.2-5.6v-1.9c0-3.1-2.1-5.6-5.2-5.6c-3.2,0-5.2,2.5-5.2,5.6v1.9
			C113.4,80.6,115.5,83.1,118.6,83.1z"/>
		<path class="st2" d="M79.3,89.7v-2.6c0-1.5,4.3-3.9,7.9-3.9l0,0c3.5,0,7.9,2.4,7.9,3.9"/>
		<path class="st2" d="M87.2,83.1c3.2,0,5.2-2.5,5.2-5.6v-1.9c0-3.1-2.1-5.6-5.2-5.6C84,70,82,72.5,82,75.6v1.9
			C82,80.6,84.1,83.1,87.2,83.1z"/>
	</g>
</g>
</svg>
