<?xml version="1.0" encoding="utf-8"?>
<!-- Generator: Adobe Illustrator 26.0.3, SVG Export Plug-In . SVG Version: 6.00 Build 0)  -->
<svg version="1.1" id="Layer_1" xmlns="http://www.w3.org/2000/svg" xmlns:xlink="http://www.w3.org/1999/xlink" x="0px" y="0px"
	 viewBox="0 0 141.7 141.7" style="enable-background:new 0 0 141.7 141.7;" xml:space="preserve">
<style type="text/css">
	.st0{fill:none;stroke:#000000;stroke-width:2.5;stroke-linejoin:round;stroke-miterlimit:10;}
</style>
<g>
	<path class="st0" d="M113.1,98.1c-2.7-1.1-20.4-5.5-20.4-5.5V70.8c0-3-2.4-5.5-5.5-5.5c-3,0-5.5,2.4-5.5,5.5v35.5H79
		c0,0-7.4-7.7-10.9-8.2s-8.4,3.5-2.7,10.9c1.5,2,15.4,20.4,16.4,21.8v2.7h32.7v-2.7c0.1,0,2.7-8,2.7-13.6v-13.6
		C117.2,100.8,115.7,99.2,113.1,98.1z"/>
	<polyline class="st0" points="76.3,87.2 24.5,87.2 24.5,8.1 92.7,8.1 92.7,59.9 	"/>
	<line class="st0" x1="24.5" y1="29.9" x2="92.7" y2="29.9"/>
	<line class="st0" x1="24.5" y1="49" x2="92.7" y2="49"/>
	<line class="st0" x1="24.5" y1="68.1" x2="68.1" y2="68.1"/>
	<line class="st0" x1="46.3" y1="87.2" x2="46.3" y2="29.9"/>
	<line class="st0" x1="68.1" y1="87.2" x2="68.1" y2="29.9"/>
</g>
</svg>
