<?xml version="1.0" encoding="utf-8"?>
<!-- Generator: Adobe Illustrator 26.0.3, SVG Export Plug-In . SVG Version: 6.00 Build 0)  -->
<svg version="1.1" id="Layer_1" xmlns="http://www.w3.org/2000/svg" xmlns:xlink="http://www.w3.org/1999/xlink" x="0px" y="0px"
	 viewBox="0 0 141.7 141.7" style="enable-background:new 0 0 141.7 141.7;" xml:space="preserve">
<style type="text/css">
	.st0{fill:none;stroke:#1D1D1B;stroke-width:2;stroke-miterlimit:10;}
</style>
<g>
	<g>
		<path class="st0" d="M50.2,85.3V96h7.4c2.4,0,4.5,2,5.3,4.2l5.6,16.9"/>
		<path class="st0" d="M50.2,71.7c-3.1,0-5.6-2.6-5.6-5.6v-1.4c0-3,2.5-5.6,5.6-5.6s5.6,2.6,5.6,5.6v1.4
			C55.8,69.1,53.3,71.7,50.2,71.7z"/>
		<path class="st0" d="M45.9,83l8.4,4.2h8.4c2.3,0,4.2-1.9,4.2-4.2l0,0l-9.8-1.4c0,0-6.5-5.6-8.4-5.6h-4.2c-2.3,0-4.2,1.9-4.2,4.2
			v17.2c0,3.9,3.2,7,7,7h8.4l5.6,12.7"/>
		<path class="st0" d="M95.1,85.3V96h-7.4c-2.4,0-4.5,2-5.3,4.2l-5.6,16.9"/>
		<path class="st0" d="M95.1,71.7c3.1,0,5.6-2.6,5.6-5.6v-1.4c0-3-2.5-5.6-5.6-5.6s-5.6,2.6-5.6,5.6v1.4
			C89.5,69.1,92,71.7,95.1,71.7z"/>
		<path class="st0" d="M99.4,83L91,87.2h-8.4c-2.3,0-4.2-1.9-4.2-4.2l0,0l9.8-1.4c0,0,6.5-5.6,8.4-5.6h4.2c2.3,0,4.2,1.9,4.2,4.2
			v17.2c0,3.9-3.2,7-7,7h-8.4L84,117.1"/>
		<line class="st0" x1="57.2" y1="91.4" x2="72.6" y2="91.4"/>
		<line class="st0" x1="88.1" y1="91.4" x2="72.6" y2="91.4"/>
		<line class="st0" x1="72.6" y1="91.4" x2="72.6" y2="117.1"/>
	</g>
	<rect x="21.7" y="24.6" class="st0" width="100.6" height="92.4"/>
	<g>
		<polygon class="st0" points="73.5,41.6 73.5,50.1 72.9,50.1 65.7,45.4 65.7,41.6 65.7,37.9 72.9,33.1 73.5,33.1 		"/>
		<polyline class="st0" points="65.7,45.4 60.6,45.4 60.6,41.6 60.6,37.9 65.7,37.9 		"/>
	</g>
	<g>
		<line class="st0" x1="84.6" y1="45.4" x2="77.1" y2="37.9"/>
		<line class="st0" x1="84.6" y1="37.9" x2="77.1" y2="45.4"/>
	</g>
	<line class="st0" x1="115.2" y1="42.6" x2="103.9" y2="31.3"/>
	<line class="st0" x1="116.4" y1="52.2" x2="95.4" y2="31.1"/>
</g>
</svg>
