<?xml version="1.0" encoding="utf-8"?>
<!-- Generator: Adobe Illustrator 26.0.3, SVG Export Plug-In . SVG Version: 6.00 Build 0)  -->
<svg version="1.1" id="Layer_1" xmlns="http://www.w3.org/2000/svg" xmlns:xlink="http://www.w3.org/1999/xlink" x="0px" y="0px"
	 viewBox="0 0 141.7 141.7" style="enable-background:new 0 0 141.7 141.7;" xml:space="preserve">
<style type="text/css">
	.st0{fill:none;stroke:#000000;stroke-width:2.5;stroke-miterlimit:10;}
</style>
<g>
	<path class="st0" d="M54.4,127.5v-4.9c0-2.8,8.1-7.4,14.8-7.4l0,0c6.6,0,14.8,4.6,14.8,7.4v4.9"/>
	<path class="st0" d="M69.2,115.2c5.9,0,9.8-4.7,9.8-10.5v-3.5c0-5.8-3.9-10.5-9.8-10.5s-9.8,4.7-9.8,10.5v3.5
		C59.3,110.4,63.3,115.2,69.2,115.2z"/>
	<path class="st0" d="M83.9,122.5c0-2.8,8.1-7.4,14.8-7.4l0,0c6.6,0,14.8,4.6,14.8,7.4v4.9"/>
	<path class="st0" d="M98.7,115.2c5.9,0,9.8-4.7,9.8-10.5v-3.5c0-5.8-3.9-10.5-9.8-10.5s-9.8,4.7-9.8,10.5v3.5
		C88.9,110.4,92.8,115.2,98.7,115.2z"/>
	<path class="st0" d="M24.9,127.5v-4.9c0-2.8,8.1-7.4,14.8-7.4l0,0c6.6,0,14.8,4.6,14.8,7.4"/>
	<path class="st0" d="M39.7,115.2c5.9,0,9.8-4.7,9.8-10.5v-3.5c0-5.8-3.9-10.5-9.8-10.5s-9.8,4.7-9.8,10.5v3.5
		C29.8,110.4,33.8,115.2,39.7,115.2z"/>
	<line class="st0" x1="69.2" y1="26.6" x2="69.2" y2="11.9"/>
	<line class="st0" x1="88.3" y1="37.7" x2="101.1" y2="30.3"/>
	<line class="st0" x1="88.4" y1="59.8" x2="101.1" y2="67.2"/>
	<line class="st0" x1="55" y1="24.2" x2="58.1" y2="29.6"/>
	<line class="st0" x1="98.7" y1="48.7" x2="91.3" y2="48.7"/>
	<line class="st0" x1="83.4" y1="24.1" x2="80.3" y2="29.6"/>
	<line class="st0" x1="48.8" y1="37.7" x2="36" y2="30.3"/>
	<line class="st0" x1="48.8" y1="59.8" x2="36" y2="67.2"/>
	<line class="st0" x1="39.7" y1="48.7" x2="47" y2="48.7"/>
	<polyline class="st0" points="61.8,68.4 61.8,75.8 66.7,80.7 71.6,80.7 76.6,75.8 76.6,68.4 	"/>
	<path class="st0" d="M76.6,68.4V66c0-2.7,0.9-4.6,2.8-6.5c2.8-2.8,4.6-6.4,4.6-10.7C84,40.7,77.4,34,69.2,34s-14.8,6.6-14.8,14.8
		c0,4.3,1.8,7.9,4.6,10.7c1.8,1.9,2.8,3.9,2.8,6.5v2.5L76.6,68.4z"/>
</g>
</svg>
