<?xml version="1.0" encoding="utf-8"?>
<!-- Generator: Adobe Illustrator 26.0.3, SVG Export Plug-In . SVG Version: 6.00 Build 0)  -->
<svg version="1.1" id="Layer_1" xmlns="http://www.w3.org/2000/svg" xmlns:xlink="http://www.w3.org/1999/xlink" x="0px" y="0px"
	 viewBox="0 0 141.7 141.7" style="enable-background:new 0 0 141.7 141.7;" xml:space="preserve">
<style type="text/css">
	.st0{fill:none;stroke:#000000;stroke-width:2.5;stroke-linecap:round;stroke-linejoin:round;stroke-miterlimit:10;}
</style>
<g>
	<ellipse class="st0" cx="70.6" cy="83.5" rx="24.2" ry="10.8"/>
	<path class="st0" d="M46.4,99.7v16.1c0,5.9,10.8,10.8,24.2,10.8s24.2-4.8,24.2-10.8V99.7"/>
	<path class="st0" d="M46.4,83.5v16.1c0,5.9,10.8,10.8,24.2,10.8s24.2-4.8,24.2-10.8V83.5"/>
	<path class="st0" d="M102.8,94.3c13.4,0,24.2-4.8,24.2-10.8V67.4"/>
	<path class="st0" d="M38.3,96.9c-12.1-0.6-21.5-5.2-21.5-10.7V70.1"/>
	<path class="st0" d="M38.3,80.8c-12.1-0.6-21.5-5.2-21.5-10.7V54"/>
	<path class="st0" d="M102.8,110.4c13.4,0,24.2-4.8,24.2-10.8V83.5"/>
	<path class="st0" d="M102.8,78.2c13.4,0,24.2-4.8,24.2-10.8V51.3"/>
	<line class="st0" x1="78.6" y1="51.3" x2="78.6" y2="65.2"/>
	<path class="st0" d="M78.6,35.2v16.1c0,5.9,10.8,10.8,24.2,10.8S127,57.2,127,51.3V35.2"/>
	<ellipse class="st0" cx="102.8" cy="35.2" rx="24.2" ry="10.8"/>
	<ellipse class="st0" cx="41" cy="54" rx="24.2" ry="10.8"/>
	<line class="st0" x1="65.2" y1="54" x2="65.2" y2="65.2"/>
</g>
</svg>
