<?xml version="1.0" encoding="utf-8"?>
<!-- Generator: Adobe Illustrator 26.0.3, SVG Export Plug-In . SVG Version: 6.00 Build 0)  -->
<svg version="1.1" id="Layer_1" xmlns="http://www.w3.org/2000/svg" xmlns:xlink="http://www.w3.org/1999/xlink" x="0px" y="0px"
	 viewBox="0 0 47 38.4" style="enable-background:new 0 0 47 38.4;" xml:space="preserve">
<style type="text/css">
	.st0{fill:none;stroke:#000000;stroke-linejoin:round;stroke-miterlimit:10;}
</style>
<g>
	<path class="st0" d="M31,13.7l-1.2,2.8h-8.5 M17.3,13.6l2.4-5.8h13.7l-1.1,2.7 M7.2,8.9c1.9,0.3,3.7-0.9,4-2.8L11.4,5
		c0.3-1.9-0.9-3.7-2.8-4S5,1.9,4.6,3.8L4.4,4.9C4.1,6.8,5.3,8.6,7.2,8.9z M19.2,37.8L13.5,27l-5.7-0.5c-2.7,0-4.8-2.1-4.8-4.6V14
		c0-1.7,1.4-3.1,3.2-3.1h2.1c1.1,0,1.7,0.7,1.7,0.7l3.4,4h5.7c0,0,0.5,3.1-3.2,3.1h-5.7L7,15.5 M22.9,37.6l-4.5-13
		c-0.6-1.6-1.8-2.1-3.8-2.6l-4.4-1v-2.5"/>
	<line class="st0" x1="13" y1="18.6" x2="39.4" y2="18.6"/>
	<line class="st0" x1="26.2" y1="18.7" x2="26.2" y2="37.6"/>
	<line class="st0" x1="22.9" y1="37.6" x2="31.2" y2="37.6"/>
	<g>
		<path class="st0" d="M37.6,16.8c1.1-1.1,1.1-3.4,1.1-3.4h-2.3h-2.3c0,0,0,2.3,1.1,3.4"/>
		<path class="st0" d="M35.2,13.4c0.2-1.2,0.2-2.8,0.2-2.8h-4.5c0,0,0,4.3,1.1,6.2"/>
	</g>
	<path class="st0" d="M45.3,12.7v3.5c0,1.8-0.2,3-0.7,4.7l-1.1,4.4v0.9"/>
	<path class="st0" d="M42.7,28.8H33c-0.5,0-0.9-0.4-0.9-0.9V27c0-1,0.8-1.8,1.8-1.8h8.8c0.5,0,0.9,0.4,0.9,0.9v1.8
		C43.6,28.4,43.2,28.8,42.7,28.8z"/>
	<path class="st0" d="M44.5,37.8v-0.7c0-3.1-0.6-5.4-1.8-8.3"/>
	<path class="st0" d="M34.8,28.8c-1.2,2.9-1.8,5.1-1.8,8.3v0.7"/>
	<path class="st0" d="M1.8,37.8v-0.7c0-3.1,0.6-5.4,1.8-8.3"/>
	<path class="st0" d="M11.5,28.8c1.2,2.9,1.8,5.1,1.8,8.3v0.7"/>
	<path class="st0" d="M1,12.7v3.5c0,1.8,0.2,3,0.7,4.7l1.1,4.4v0.9"/>
	<path class="st0" d="M4.6,25.3h-1c-0.5,0-0.9,0.4-0.9,0.9V28c0,0.5,0.4,0.9,0.9,0.9h9.7c0.3,0,0.6-0.2,0.8-0.5"/>
</g>
</svg>
