<?xml version="1.0" encoding="utf-8"?>
<!-- Generator: Adobe Illustrator 26.0.3, SVG Export Plug-In . SVG Version: 6.00 Build 0)  -->
<svg version="1.1" id="Layer_1" xmlns="http://www.w3.org/2000/svg" xmlns:xlink="http://www.w3.org/1999/xlink" x="0px" y="0px"
	 viewBox="0 0 44 38.9" style="enable-background:new 0 0 44 38.9;" xml:space="preserve">
<style type="text/css">
	.st0{fill:none;stroke:#000000;stroke-linejoin:round;stroke-miterlimit:10;}
	.st1{fill:none;stroke:#000000;stroke-miterlimit:10;}
</style>
<g>
	<path class="st0" d="M33.4,6V4.4c0-2.1-1.5-3.6-3.6-3.6s-3.6,1.5-3.6,3.6V6c0,2.1,1.5,3.6,3.6,3.6C31.9,9.5,33.4,8.1,33.4,6z
		 M35,26.6c1.7-0.3,2.8-1,2.8-3.5v-7c0-3.2-2.2-4.4-4.4-4.4h-7.1c-2.3,0-4.4,1.3-4.4,4.4v7c0,2.5,1.2,3.1,2.8,3.5"/>
	<g>
		<line class="st0" x1="32.6" y1="37.2" x2="33.4" y2="30.6"/>
	</g>
	<g>
		<line class="st0" x1="26.2" y1="30.5" x2="27" y2="37.1"/>
	</g>
	<g>
		<g>
			<line class="st1" x1="40.5" y1="16.9" x2="40.5" y2="38.8"/>
			<line class="st0" x1="3.2" y1="37.8" x2="3.2" y2="16.9"/>
			<line class="st0" x1="14.6" y1="37.8" x2="14.6" y2="16.9"/>
			<line class="st1" x1="37.8" y1="16.9" x2="43.2" y2="16.9"/>
			<line class="st1" x1="0.5" y1="16.9" x2="21.8" y2="16.9"/>
			<rect x="3.2" y="16.9" class="st0" width="11.4" height="6.6"/>
			<rect x="3.2" y="23.5" class="st0" width="11.4" height="6.6"/>
			<line class="st0" x1="7.7" y1="19.4" x2="10" y2="19.4"/>
			<line class="st0" x1="7.7" y1="25.9" x2="10" y2="25.9"/>
		</g>
		<path class="st0" d="M24.4,38.8V38l5.4-1.8l5.4,1.8v0.8 M29.8,30.5v5.6 M35.5,14H24.1l0.7,16.5h10.1L35.5,14z"/>
		<path class="st0" d="M34.9,27.2c0.7,0.1,1.1,0.8,1.1,1.6l0,0c0,0.9-0.6,1.6-1.4,1.6"/>
		<path class="st0" d="M25,30.4c-0.8,0-1.4-0.7-1.4-1.6l0,0c0-0.8,0.5-1.4,1.1-1.6"/>
		<g>
			<path class="st1" d="M10.2,16.9V14 M12.4,14v2.8"/>
			<path class="st1" d="M20.3,1.5c0-0.2-0.2-0.4-0.4-0.4H2.7c-0.2,0-0.4,0.2-0.4,0.4v11.9c0,0.2,0.2,0.4,0.4,0.4H20
				c0.2,0,0.4-0.2,0.4-0.4V1.5H20.3z"/>
		</g>
	</g>
</g>
</svg>
