<?xml version="1.0" encoding="utf-8"?>
<!-- Generator: Adobe Illustrator 26.0.3, SVG Export Plug-In . SVG Version: 6.00 Build 0)  -->
<svg version="1.1" id="Layer_1" xmlns="http://www.w3.org/2000/svg" xmlns:xlink="http://www.w3.org/1999/xlink" x="0px" y="0px"
	 viewBox="0 0 141.7 141.7" style="enable-background:new 0 0 141.7 141.7;" xml:space="preserve">
<style type="text/css">
	.st0{fill:none;stroke:#000000;stroke-width:2.5;stroke-linejoin:round;stroke-miterlimit:10;}
</style>
<g>
	<path class="st0" d="M84.8,112.7c5,0,9.3-4.8,9.3-9.3V82.5c0-7.7-15.2-11.6-23.2-11.6s-23.3,3.9-23.3,11.6v20.9
		c0,4.5,4.3,9.3,9.3,9.3"/>
	<path class="st0" d="M112.7,117.3c4.5,0,9.3-2.4,9.3-7V89.4c0-7.7-13.6-11.6-20.9-11.6c-0.7,0-1.5,0-2.3,0.1"/>
	<path class="st0" d="M70.8,63.9c5.4,0,9.3-3.4,9.3-8.4v-4.2c0-4.9-3.9-8.4-9.3-8.4s-9.3,3.4-9.3,8.4v4.2
		C61.5,60.5,65.4,63.9,70.8,63.9z"/>
	<line class="st0" x1="112.7" y1="126.6" x2="112.7" y2="94.1"/>
	<line class="st0" x1="84.8" y1="126.6" x2="84.8" y2="87.1"/>
	<line class="st0" x1="56.9" y1="87.1" x2="56.9" y2="126.6"/>
	<path class="st0" d="M103.3,70.9c5.4,0,9.3-3.4,9.3-8.4v-4.2c0-4.9-3.9-8.4-9.3-8.4S94,53.3,94,58.3v4.2
		C94.2,67.5,97.9,70.9,103.3,70.9z"/>
	<path class="st0" d="M29,117.3c-4.5,0-9.3-2.4-9.3-7V89.4c0-7.7,13.6-11.6,20.9-11.6c0.7,0,1.5,0,2.3,0.1"/>
	<line class="st0" x1="29" y1="126.6" x2="29" y2="94.1"/>
	<path class="st0" d="M38.3,70.9c-5.4,0-9.3-3.4-9.3-8.4v-4.2c0-4.9,3.9-8.4,9.3-8.4s9.3,3.4,9.3,8.4v4.2
		C47.6,67.5,43.7,70.9,38.3,70.9z"/>
	<path class="st0" d="M49.9,43c-5.4,0-9.3-3.4-9.3-8.4v-4.1c0-4.9,3.9-8.4,9.3-8.4s9.3,3.4,9.3,8.4v4.2C59.2,39.6,55.3,43,49.9,43z"
		/>
	<path class="st0" d="M91.8,43c-5.4,0-9.3-3.4-9.3-8.4v-4.1c0-4.9,3.9-8.4,9.3-8.4s9.3,3.4,9.3,8.4v4.2C101.1,39.6,97.2,43,91.8,43z
		"/>
</g>
</svg>
