<?xml version="1.0" encoding="utf-8"?>
<!-- Generator: Adobe Illustrator 26.0.3, SVG Export Plug-In . SVG Version: 6.00 Build 0)  -->
<svg version="1.1" id="Layer_1" xmlns="http://www.w3.org/2000/svg" xmlns:xlink="http://www.w3.org/1999/xlink" x="0px" y="0px"
	 viewBox="0 0 141.7 141.7" style="enable-background:new 0 0 141.7 141.7;" xml:space="preserve">
<style type="text/css">
	.st0{fill:none;stroke:#00151D;stroke-width:2.5;stroke-miterlimit:10;}
	.st1{fill:none;stroke:#00151D;stroke-width:2.5;stroke-miterlimit:9.9999;}
</style>
<g>
	<g>
		<path class="st0" d="M53.8,105.4c0.9-0.9,1.8-2.3,4.6-2.3s29.3,0,32.1,0c2.6,0,16.6-14.1,18.4-16.1c1.7-1.9,9.4-13.4,11.4-18.4
			c-1.3-1.8-5-3.3-9.1-2.3c-4,1-6.4,3.9-9.1,9.1l-10.5,5.5"/>
		<path class="st0" d="M67.6,89.3c0,0,16.1,0,18.4,0c9.1,0,9.1-11.4,0-11.4c-2.3,0-5.7,0-12.2,0c-1.9,0-5.5-4.6-8.5-4.6
			c-1.3,0-8.4,0-11.4,0c-3,0-6.9,2.6-9.1,4.6c-3.4,3.4-9.1,9.1-9.1,9.1"/>
		
			<rect x="30.9" y="82.5" transform="matrix(0.7071 -0.7071 0.7071 0.7071 -60.6833 57.398)" class="st1" width="16.2" height="38.9"/>
	</g>
	<path class="st0" d="M93.6,73.7V63.1c0-3.9-9.7-9.5-17.6-9.5s-17.6,5.6-17.6,9.5v6.4"/>
	<path class="st0" d="M76,25.8c-5.4,0-10.3,4.1-10.3,9.2v4.6c0,5.1,5,9.2,10.3,9.2c5.4,0,10.3-4.1,10.3-9.2V35
		C86.2,29.9,81.2,25.8,76,25.8z"/>
</g>
</svg>
