<?xml version="1.0" encoding="utf-8"?>
<!-- Generator: Adobe Illustrator 26.0.3, SVG Export Plug-In . SVG Version: 6.00 Build 0)  -->
<svg version="1.1" id="Layer_1" xmlns="http://www.w3.org/2000/svg" xmlns:xlink="http://www.w3.org/1999/xlink" x="0px" y="0px"
	 viewBox="0 0 141.7 141.7" style="enable-background:new 0 0 141.7 141.7;" xml:space="preserve">
<style type="text/css">
	.st0{fill:none;stroke:#000000;stroke-width:2.5;stroke-linejoin:round;stroke-miterlimit:10;}
	.st1{fill:none;stroke:#000000;stroke-width:2.5;stroke-miterlimit:10;}
</style>
<g>
	<polygon class="st0" points="52.7,41.1 52.7,19.1 118.7,19.1 118.7,102.2 94.2,102.2 94.2,121.7 21,121.7 21,41.1 	"/>
	<path class="st1" d="M47.8,77.7L47.8,77.7c0-4,3.3-7.3,7.3-7.3l0,0c4,0,7.3,3.3,7.3,7.3l0,0v14.7"/>
	<path class="st1" d="M62.5,77.7L62.5,77.7c0-4,3.3-7.3,7.3-7.3l0,0c4,0,7.3,3.3,7.3,7.3l0,0v14.7"/>
	<line class="st1" x1="47.8" y1="92.4" x2="47.8" y2="68"/>
	<path class="st0" d="M94.2,60.6v4.9H82v-2.4c7.3-7.3,9.9-8.8,11.1-11.3c0.9-1.9,1.7-7.2-2.5-8.7c-3.4-1.2-7.7-0.2-8.7,4.4"/>
</g>
</svg>
