<?xml version="1.0" encoding="utf-8"?>
<!-- Generator: Adobe Illustrator 26.0.3, SVG Export Plug-In . SVG Version: 6.00 Build 0)  -->
<svg version="1.1" id="Layer_1" xmlns="http://www.w3.org/2000/svg" xmlns:xlink="http://www.w3.org/1999/xlink" x="0px" y="0px"
	 viewBox="0 0 51.8 40" style="enable-background:new 0 0 51.8 40;" xml:space="preserve">
<style type="text/css">
	.st0{fill:none;stroke:#000000;stroke-miterlimit:10;}
</style>
<g>
	<g>
		<path class="st0" d="M8,26.4H3.4c-1.2,0-2.2-1-2.2-2.2v-3.3c0-1.2,1-2.2,2.2-2.2H8c1.2,0,2.2,1,2.2,2.2v3.3
			C10.2,25.4,9.2,26.4,8,26.4z"/>
		<path class="st0" d="M19.9,35.1H3.4c-1.2,0-2.2-1-2.2-2.2v-4.4c0-1.2,1-2.2,2.2-2.2h11.9"/>
		<path class="st0" d="M32,26.4h16.1c1.2,0,2.2,1,2.2,2.2V33c0,1.2-1,2.2-2.2,2.2H23.7"/>
		<line class="st0" x1="4.5" y1="35.1" x2="4.5" y2="39.4"/>
		<line class="st0" x1="47" y1="35.1" x2="47" y2="39.4"/>
		<path class="st0" d="M22.4,26.4"/>
		<path class="st0" d="M25.7,23.1"/>
		<path class="st0" d="M6.7,18.7v-3.9c0-1.8,1.5-3.3,3.3-3.3h0.8h1.9"/>
		<path class="st0" d="M43.5,26.4h4.6c1.2,0,2.2-1,2.2-2.2v-3.3c0-1.2-1-2.2-2.2-2.2h-4.6c-1.2,0-2.2,1-2.2,2.2v3.3
			C41.3,25.4,42.2,26.4,43.5,26.4z"/>
		<path class="st0" d="M44.8,18.7v-3.9c0-1.8-1.5-3.3-3.3-3.3H29c-1.7,0-3,1-3.3,2.6"/>
	</g>
	<g>
		<path class="st0" d="M17.7,21.5h9.9l3.5-7.3h-9.6l-2,4.9h-2.8"/>
	</g>
	<path class="st0" d="M17.4,21.4c-4-1-4.6,3.3-3.3,4.4c0.3,0.3,0.8,0.5,1.4,0.6c1.2,0.3,3,0.5,4.5,0.7c0,5,0,7,0,12
		c0,0.7,3,0.7,3.1,0.1l1.5-11.7l6.3,0.9c0.7,0.1,1.5-2.8,0.7-3L17.4,21.4z"/>
	<path class="st0" d="M18.4,8.8c1.8,0.2,3.3-1.2,3.5-3.1L22,4.6c0.2-1.9-1-3.6-2.8-3.7C17.5,0.7,16,2.1,15.8,4l-0.1,1.1
		C15.5,7,16.7,8.7,18.4,8.8z"/>
	<path class="st0" d="M15.3,14.3v4c0,0.4,0.4,0.8,0.8,0.8H19"/>
	<g>
		<g>
			<line class="st0" x1="25.9" y1="21.4" x2="25.9" y2="23.5"/>
			<path class="st0" d="M14.4,21.9c-1.6-0.4-3-1.4-3-3.7v-3.1c0-3.5,1.9-4.7,4.7-4.7c0.6,0,1.3,0,3.9,0h1.2c2.5,0,4.3,1,4.7,3.7"/>
		</g>
	</g>
	<path class="st0" d="M25.7,23.1"/>
</g>
</svg>
