<?xml version="1.0" encoding="utf-8"?>
<!-- Generator: Adobe Illustrator 26.0.3, SVG Export Plug-In . SVG Version: 6.00 Build 0)  -->
<svg version="1.1" id="Layer_1" xmlns="http://www.w3.org/2000/svg" xmlns:xlink="http://www.w3.org/1999/xlink" x="0px" y="0px"
	 viewBox="0 0 141.7 141.7" style="enable-background:new 0 0 141.7 141.7;" xml:space="preserve">
<style type="text/css">
	.st0{fill:none;stroke:#1D1D1B;stroke-width:2.5;stroke-miterlimit:10;}
</style>
<g>
	<path class="st0" d="M34.3,71.4v18.8h12.3c3.9,0,7.5,3.3,8.8,7l9.3,28.3"/>
	<path class="st0" d="M34.3,47.9c-5.3,0-9.5-4.4-9.5-9.5v-2.3c0-5,4.2-9.5,9.5-9.5s9.5,4.4,9.5,9.5v2.3
		C43.7,43.5,39.6,47.9,34.3,47.9z"/>
	<path class="st0" d="M27.2,66.7l14.1,7h14.1c3.9,0,7-3.2,7-7l0,0l-16.3-2.3c0,0-10.8-9.5-14.1-9.5h-7c-3.9,0-7,3.2-7,7v30.6
		c0,6.5,5.3,11.8,11.8,11.8h13.9l9.5,21.1"/>
	<path class="st0" d="M109.5,71.4v18.8H97.2c-3.9,0-7.5,3.3-8.8,7l-9.3,28.3"/>
	<path class="st0" d="M109.5,47.9c5.3,0,9.5-4.4,9.5-9.5v-2.3c0-5-4.2-9.5-9.5-9.5c-5.3,0-9.5,4.4-9.5,9.5v2.3
		C100.2,43.5,104.2,47.9,109.5,47.9z"/>
	<path class="st0" d="M116.7,66.7l-14.1,7H88.4c-3.9,0-7-3.2-7-7l0,0l16.3-2.3c0,0,10.8-9.5,14.1-9.5h7c3.9,0,7,3.2,7,7v30.6
		c0,6.5-5.3,11.8-11.8,11.8h-13.9l-9.5,21.1"/>
	<line class="st0" x1="46.1" y1="80.7" x2="71.9" y2="80.7"/>
	<line class="st0" x1="97.7" y1="80.7" x2="71.9" y2="80.7"/>
	<line class="st0" x1="71.9" y1="80.7" x2="71.9" y2="125.4"/>
</g>
</svg>
