<?xml version="1.0" encoding="utf-8"?>
<!-- Generator: Adobe Illustrator 26.0.3, SVG Export Plug-In . SVG Version: 6.00 Build 0)  -->
<svg version="1.1" id="Layer_1" xmlns="http://www.w3.org/2000/svg" xmlns:xlink="http://www.w3.org/1999/xlink" x="0px" y="0px"
	 viewBox="0 0 141.7 141.7" style="enable-background:new 0 0 141.7 141.7;" xml:space="preserve">
<style type="text/css">
	.st0{fill:none;stroke:#1D1D1B;stroke-width:2;stroke-linejoin:round;stroke-miterlimit:10;}
	.st1{fill:none;stroke:#1D1D1B;stroke-width:2;stroke-linejoin:round;stroke-miterlimit:10.0002;}
	.st2{fill:none;stroke:#1D1E1C;stroke-width:2;stroke-linejoin:round;stroke-miterlimit:10;}
</style>
<g>
	<g>
		<line class="st0" x1="70.4" y1="88.8" x2="59.6" y2="110.3"/>
		<line class="st0" x1="97.5" y1="95.5" x2="88.4" y2="110.3"/>
		<ellipse class="st1" cx="84.8" cy="88.8" rx="14.4" ry="14.4"/>
		<path class="st0" d="M79.5,88.8c0,3,2.4,5.3,5.3,5.3c3,0,5.3-2.4,5.3-5.3c0-3-2.4-5.3-5.3-5.3C81.8,83.4,79.5,85.9,79.5,88.8z"/>
		<circle class="st0" cx="115.3" cy="43.8" r="9"/>
		<path class="st0" d="M56.1,43.8c0,7,5.6,12.6,12.6,12.6s12.6-5.6,12.6-12.6s-5.6-12.6-12.6-12.6C61.6,31.2,56.1,36.9,56.1,43.8z"
			/>
		<polyline class="st0" points="108.2,38.5 99.2,38.5 97.4,36.7 79.5,36.7 		"/>
		<polyline class="st0" points="108.2,47.5 99.2,47.5 97.4,49.3 81.2,49.3 		"/>
		<line class="st0" x1="68.9" y1="79.5" x2="71" y2="84.8"/>
		<line class="st0" x1="56.9" y1="48.5" x2="64.6" y2="68.5"/>
		<line class="st0" x1="79.5" y1="51.1" x2="96.8" y2="80.8"/>
		<polyline class="st0" points="110,51.1 110,56.4 108.2,58.2 108.2,69 110,70.8 110,74.5 113.5,78 117.1,78 120.8,74.5 120.8,70.8 
			122.6,69 122.6,58.2 120.8,56.4 120.8,51.1 		"/>
		<line class="st0" x1="115.3" y1="78" x2="115.3" y2="90.6"/>
	</g>
	<g>
		<g>
			<g>
				<path class="st2" d="M24.6,110.3V79.2 M24.6,98.7h-0.7c-4.6,0-6.5-1.9-6.5-6.5V76.5c0-7.4,3.1-10.2,10.8-10.2h13.7
					c8.6,0,11.9,5.2,15.1,8.7c1.5-0.6,5-1.9,8.3-3.1c3.2-1.2,5.7,2.9,3.3,5.1c-1.8,1.7-3.6,3.2-5.1,4.5c-3.6,2.9-7,4.3-8.7,4.3
					c-1.7,0-8.7-4.3-8.7-4.3v29"/>
			</g>
		</g>
		<g>
			<path class="st2" d="M39.4,39.3c3,1.2,5,3.3,5,7v3.3"/>
			<path class="st2" d="M27.9,49.7v-3.3c0-3.7,2-5.8,5-7"/>
			<line class="st2" x1="36.1" y1="36.7" x2="36.1" y2="42.2"/>
			<line class="st2" x1="24.6" y1="49.7" x2="47.6" y2="49.7"/>
			<path class="st2" d="M29.6,52v3.1c0,3.9,2.7,6.5,6.5,6.5c3.8,0,6.5-2.7,6.5-6.5V52"/>
		</g>
	</g>
</g>
</svg>
