<svg width="27" height="37" viewBox="0 0 27 37" fill="none" xmlns="http://www.w3.org/2000/svg">
<path d="M12.38 0C14.84 0 16.95 0.87 18.7 2.61C20.45 4.35 21.33 6.46 21.33 8.95C21.33 10.57 20.92 12.06 20.11 13.43C19.3 14.8 18.22 15.85 16.87 16.6H15.92V14.84C16.97 14.21 17.79 13.38 18.4 12.34C19 11.3 19.3 10.17 19.3 8.94C19.3 7.02 18.62 5.39 17.25 4.04C15.88 2.69 14.24 2.01 12.32 2.01C10.4 2.01 8.76 2.69 7.39 4.04C6.03 5.39 5.34 7.02 5.34 8.94C5.34 10.17 5.65 11.31 6.26 12.36C6.88 13.41 7.69 14.24 8.71 14.84V17.22C7.06 16.5 5.75 15.4 4.77 13.91C3.79 12.42 3.31 10.77 3.31 8.94C3.31 6.45 4.2 4.34 5.97 2.6C7.75 0.87 9.88 0 12.38 0ZM10.62 36C10.23 36 9.87 35.93 9.54 35.77C9.21 35.62 8.91 35.41 8.64 35.14L0 26.55L1.94 24.57C2.24 24.27 2.58 24.04 2.95 23.87C3.33 23.71 3.71 23.68 4.1 23.8L8.73 24.79V9C8.73 7.98 9.07 7.13 9.76 6.43C10.45 5.74 11.31 5.4 12.33 5.4C13.35 5.4 14.2 5.74 14.9 6.43C15.59 7.12 15.93 7.97 15.93 9V17.42H17.37C17.52 17.42 17.65 17.45 17.75 17.51C17.86 17.57 17.98 17.63 18.13 17.69L24.34 20.71C25.12 21.07 25.68 21.66 26.03 22.49C26.38 23.32 26.47 24.15 26.32 24.99L24.83 33.81C24.71 34.44 24.39 34.96 23.89 35.39C23.39 35.82 22.8 36.02 22.13 36.02H10.62V36ZM10.35 33.98H22.68L24.39 24.12C24.45 23.88 24.44 23.63 24.37 23.38C24.3 23.12 24.12 22.92 23.85 22.77L16.56 19.13H13.9V9C13.9 8.52 13.76 8.14 13.47 7.85C13.18 7.56 12.8 7.42 12.32 7.42C11.84 7.42 11.46 7.56 11.17 7.85C10.89 8.13 10.74 8.52 10.74 9V27.27L3.63 25.79L2.86 26.51L10.33 33.98H10.35Z" fill="#4793F8"/>
</svg>
