<svg width="12" height="7" viewBox="0 0 12 7" fill="none" xmlns="http://www.w3.org/2000/svg">
<path d="M5.88 6.25995C5.79 6.25995 5.7 6.23995 5.63 6.20995C5.55 6.17995 5.48 6.12995 5.4 6.04995L0.820001 1.46995C0.700001 1.34995 0.640001 1.17995 0.650001 0.969949C0.650001 0.759949 0.720002 0.599949 0.850002 0.469949C1 0.319949 1.17 0.249949 1.35 0.269949C1.53 0.289949 1.69 0.369949 1.82 0.489949L5.89 4.55995L9.96 0.489949C10.08 0.369949 10.25 0.299949 10.46 0.279949C10.67 0.259949 10.83 0.329949 10.96 0.489949C11.11 0.609949 11.18 0.779949 11.16 0.979949C11.14 1.17995 11.06 1.34995 10.94 1.48995L6.39 6.03995C6.31 6.11995 6.24 6.16995 6.16 6.19995C6.08 6.22995 6 6.24995 5.91 6.24995L5.88 6.25995Z" fill="#1E1E1E"/>
</svg>
