<svg width="32" height="32" viewBox="0 0 32 32" fill="none" xmlns="http://www.w3.org/2000/svg">
<path d="M16.16 17.88C16.48 17.88 16.75 17.77 16.98 17.54C17.21 17.31 17.32 17.03 17.32 16.68V8.92C17.32 8.6 17.2 8.33 16.96 8.1C16.72 7.87 16.44 7.76 16.12 7.76C15.77 7.76 15.49 7.87 15.26 8.1C15.03 8.33 14.92 8.61 14.92 8.96V16.72C14.92 17.04 15.04 17.31 15.28 17.54C15.52 17.77 15.81 17.88 16.16 17.88ZM16 24C16.37 24 16.69 23.87 16.94 23.62C17.19 23.37 17.32 23.05 17.32 22.68C17.32 22.31 17.19 21.99 16.94 21.74C16.69 21.49 16.37 21.36 16 21.36C15.63 21.36 15.31 21.49 15.06 21.74C14.81 21.99 14.68 22.31 14.68 22.68C14.68 23.05 14.81 23.37 15.06 23.62C15.31 23.87 15.63 24 16 24ZM16 32C13.73 32 11.63 31.59 9.68 30.78C7.73 29.97 6.04 28.84 4.6 27.4C3.16 25.96 2.03 24.27 1.22 22.32C0.41 20.37 0 18.27 0 16C0 13.73 0.41 11.67 1.22 9.72C2.03 7.77 3.16 6.08 4.6 4.64C6.04 3.2 7.73 2.07 9.68 1.24C11.63 0.41 13.73 0 16 0C18.27 0 20.33 0.41 22.28 1.24C24.23 2.07 25.92 3.2 27.36 4.64C28.8 6.08 29.93 7.77 30.76 9.72C31.59 11.67 32 13.76 32 16C32 18.24 31.59 20.37 30.76 22.32C29.93 24.27 28.8 25.96 27.36 27.4C25.92 28.84 24.23 29.97 22.28 30.78C20.33 31.59 18.24 32 16 32ZM16 29.6C19.73 29.6 22.93 28.27 25.6 25.6C28.27 22.93 29.6 19.73 29.6 16C29.6 12.27 28.27 9.07 25.6 6.4C22.93 3.73 19.73 2.4 16 2.4C12.27 2.4 9.07 3.73 6.4 6.4C3.73 9.07 2.4 12.27 2.4 16C2.4 19.73 3.73 22.93 6.4 25.6C9.07 28.27 12.27 29.6 16 29.6Z" fill="#E91A1A"/>
</svg>
