<svg width="40" height="32" viewBox="0 0 40 32" fill="none" xmlns="http://www.w3.org/2000/svg">
<path d="M39.4924 18.0625L38.4124 16.9825C38.4124 16.9825 36.3224 12.7425 34.1024 10.5125L28.7124 5.1225C27.6224 4.0325 26.4024 3.9925 24.9124 4.6125C23.4224 5.2225 14.7024 10.5125 14.7024 10.5125L6.08238 1.8925C4.89238 0.7025 2.96238 0.7025 1.77238 1.8925C0.582383 3.0825 0.582383 5.0125 1.77238 6.2025L15.7824 20.2125L14.7024 21.2925C14.7024 21.2925 8.74238 21.1925 7.15238 22.3725C5.57238 23.5525 5.21238 27.0925 10.3824 27.7625C11.7724 27.9425 24.5224 29.7125 25.4724 29.9225L26.5524 31.0025" fill="white"/>
<path d="M39.4924 18.0625L38.4124 16.9825C38.4124 16.9825 36.3224 12.7425 34.1024 10.5125L28.7124 5.1225C27.6224 4.0325 26.4024 3.9925 24.9124 4.6125C23.4224 5.2225 14.7024 10.5125 14.7024 10.5125L6.08238 1.8925C4.89238 0.7025 2.96238 0.7025 1.77238 1.8925C0.582383 3.0825 0.582383 5.0125 1.77238 6.2025L15.7824 20.2125L14.7024 21.2925C14.7024 21.2925 8.74238 21.1925 7.15238 22.3725C5.57238 23.5525 5.21238 27.0925 10.3824 27.7625C11.7724 27.9425 24.5224 29.7125 25.4724 29.9225L26.5524 31.0025" stroke="#1E1E1E" stroke-linecap="round" stroke-linejoin="round"/>
</svg>
