<svg width="64" height="64" viewBox="0 0 64 64" fill="none" xmlns="http://www.w3.org/2000/svg">
<path d="M32 53.13C33.18 53.13 34.19 52.69 35.03 51.82C35.87 50.95 36.35 49.93 36.46 48.75H27.53C27.59 49.93 28.05 50.95 28.92 51.82C29.79 52.69 30.81 53.13 31.99 53.13H32ZM18.95 43.28H45.14C45.7 43.28 46.18 43.07 46.57 42.65C46.96 42.23 47.16 41.74 47.16 41.18C47.16 40.56 46.95 40.06 46.53 39.66C46.11 39.26 45.62 39.07 45.06 39.07H43.8V29.39C43.8 26.3 42.97 23.47 41.32 20.88C39.66 18.3 37.38 16.73 34.46 16.16V13.3C34.46 12.63 34.22 12.05 33.74 11.57C33.26 11.09 32.69 10.85 32.01 10.85C31.33 10.85 30.76 11.09 30.28 11.57C29.8 12.05 29.56 12.62 29.56 13.3V16.16C26.58 16.72 24.28 18.24 22.65 20.71C21.02 23.18 20.21 25.93 20.21 28.96V39.07H18.86C18.3 39.07 17.82 39.27 17.43 39.66C17.04 40.05 16.84 40.56 16.84 41.18C16.84 41.74 17.04 42.23 17.43 42.65C17.82 43.07 18.33 43.28 18.95 43.28ZM32 64C27.51 64 23.31 63.19 19.41 61.56C15.51 59.93 12.11 57.67 9.22 54.78C6.33 51.89 4.07 48.49 2.44 44.59C0.81 40.69 0 36.49 0 32C0 27.51 0.81 23.4 2.44 19.49C4.07 15.59 6.33 12.19 9.22 9.3C12.11 6.41 15.51 4.14 19.41 2.48C23.31 0.82 27.51 0 32 0C36.49 0 40.6 0.83 44.51 2.48C48.41 4.14 51.81 6.41 54.7 9.3C57.59 12.19 59.86 15.57 61.52 19.45C63.18 23.32 64 27.51 64 32C64 36.49 63.17 40.69 61.52 44.59C59.86 48.49 57.59 51.89 54.7 54.78C51.81 57.67 48.43 59.93 44.55 61.56C40.68 63.19 36.49 64 32 64ZM32 60.21C39.97 60.21 46.67 57.5 52.08 52.08C57.5 46.66 60.21 39.97 60.21 32C60.21 24.03 57.5 17.33 52.08 11.92C46.66 6.5 39.97 3.79 32 3.79C24.03 3.79 17.33 6.5 11.92 11.92C6.5 17.32 3.79 24.02 3.79 31.99C3.79 39.96 6.5 46.66 11.92 52.07C17.34 57.49 24.03 60.2 32 60.2V60.21ZM24.42 39.07V28.21C24.42 26.08 25.14 24.24 26.57 22.69C28 21.15 29.81 20.37 32 20.37C34.19 20.37 36 21.14 37.43 22.69C38.86 24.23 39.58 26.07 39.58 28.21V39.07H24.42Z" fill="#4793F8"/>
</svg>
