<svg width="334" height="48" viewBox="0 0 334 48" fill="none" xmlns="http://www.w3.org/2000/svg">
<path d="M0 8.07025C1 7.91025 1.97001 7.82025 2.89001 7.82025C3.81001 7.82025 4.83 7.90025 5.87 8.07025V32.2502H16.02C16.1 32.7102 16.16 33.1503 16.18 33.5703C16.2 33.9903 16.22 34.3902 16.22 34.7702C16.22 35.2102 16.21 35.6302 16.18 36.0502C16.15 36.4702 16.1 36.9102 16.02 37.3702H0V8.05025V8.07025Z" fill="black"/>
<path d="M24.25 28.6202C24.36 30.2502 24.93 31.4302 25.96 32.1702C27 32.9002 28.35 33.2702 30.04 33.2702C30.96 33.2702 31.91 33.1802 32.88 33.0002C33.84 32.8202 34.76 32.5702 35.63 32.2502C35.93 32.7902 36.19 33.4403 36.41 34.2103C36.63 34.9703 36.75 35.7902 36.78 36.6602C34.66 37.4802 32.27 37.8802 29.6 37.8802C27.64 37.8802 25.96 37.6102 24.56 37.0602C23.16 36.5202 22.02 35.7602 21.14 34.8002C20.26 33.8402 19.6 32.6902 19.18 31.3602C18.76 30.0302 18.55 28.5702 18.55 27.0002C18.55 25.4302 18.77 24.0002 19.2 22.6402C19.64 21.2802 20.29 20.1002 21.14 19.0902C22 18.0802 23.06 17.2902 24.32 16.7002C25.58 16.1202 27.05 15.8203 28.74 15.8203C30.2 15.8203 31.51 16.0802 32.65 16.5902C33.79 17.1102 34.76 17.8103 35.56 18.7103C36.36 19.6103 36.97 20.6702 37.37 21.9102C37.78 23.1502 37.98 24.4702 37.98 25.8802C37.98 26.4002 37.96 26.9102 37.92 27.4102C37.88 27.9102 37.83 28.3102 37.78 28.6102H24.24L24.25 28.6202ZM32.53 24.5802C32.47 23.2702 32.11 22.2202 31.45 21.4202C30.78 20.6202 29.85 20.2202 28.66 20.2202C27.3 20.2202 26.26 20.6002 25.56 21.3602C24.85 22.1202 24.43 23.1902 24.29 24.5802H32.53Z" fill="black"/>
<path d="M46.62 28.6202C46.73 30.2502 47.3 31.4302 48.33 32.1702C49.36 32.9002 50.72 33.2702 52.41 33.2702C53.33 33.2702 54.28 33.1802 55.24 33.0002C56.21 32.8202 57.12 32.5702 58 32.2502C58.3 32.7902 58.55 33.4403 58.77 34.2103C58.99 34.9703 59.11 35.7902 59.14 36.6602C57.02 37.4802 54.63 37.8802 51.96 37.8802C50.01 37.8802 48.32 37.6102 46.92 37.0602C45.52 36.5202 44.38 35.7602 43.5 34.8002C42.61 33.8402 41.97 32.6902 41.55 31.3602C41.13 30.0302 40.92 28.5702 40.92 27.0002C40.92 25.4302 41.14 24.0002 41.57 22.6402C42 21.2802 42.65 20.1002 43.51 19.0902C44.37 18.0802 45.43 17.2902 46.69 16.7002C47.95 16.1202 49.43 15.8203 51.11 15.8203C52.58 15.8203 53.88 16.0802 55.02 16.5902C56.16 17.1102 57.13 17.8103 57.94 18.7103C58.74 19.6103 59.35 20.6702 59.76 21.9102C60.17 23.1502 60.37 24.4702 60.37 25.8802C60.37 26.4002 60.35 26.9102 60.31 27.4102C60.27 27.9102 60.22 28.3102 60.17 28.6102H46.63L46.62 28.6202ZM54.89 24.5802C54.84 23.2702 54.48 22.2202 53.81 21.4202C53.14 20.6202 52.21 20.2202 51.02 20.2202C49.66 20.2202 48.63 20.6002 47.92 21.3602C47.21 22.1202 46.79 23.1902 46.66 24.5802H54.89Z" fill="black"/>
<path d="M68.32 28.2103C66.8 27.7803 65.61 27.1302 64.75 26.2702C63.89 25.4202 63.46 24.1302 63.46 22.4202C63.46 20.3502 64.2 18.7403 65.68 17.5703C67.16 16.4003 69.18 15.8203 71.74 15.8203C72.8 15.8203 73.85 15.9102 74.88 16.1102C75.91 16.3002 76.96 16.5903 78.02 16.9603C77.96 17.6703 77.83 18.4002 77.61 19.1602C77.39 19.9202 77.14 20.5902 76.84 21.1602C76.19 20.8902 75.47 20.6502 74.68 20.4502C73.89 20.2502 73.06 20.1402 72.19 20.1402C71.27 20.1402 70.55 20.2803 70.03 20.5703C69.51 20.8603 69.25 21.3102 69.25 21.9402C69.25 22.5702 69.43 22.9602 69.8 23.2002C70.17 23.4502 70.69 23.6802 71.37 23.8902L73.69 24.5802C74.45 24.8002 75.14 25.0602 75.75 25.3702C76.36 25.6802 76.89 26.0702 77.32 26.5302C77.75 26.9902 78.09 27.5602 78.34 28.2402C78.58 28.9202 78.71 29.7502 78.71 30.7302C78.71 31.7102 78.5 32.6702 78.08 33.5402C77.66 34.4102 77.05 35.1702 76.24 35.8002C75.44 36.4402 74.47 36.9402 73.32 37.3102C72.18 37.6802 70.89 37.8602 69.44 37.8602C68.79 37.8602 68.19 37.8402 67.65 37.8002C67.1 37.7602 66.58 37.6903 66.08 37.6003C65.58 37.5003 65.09 37.3902 64.6 37.2502C64.11 37.1102 63.58 36.9402 63.01 36.7202C63.07 35.9902 63.19 35.2502 63.4 34.5002C63.6 33.7502 63.87 33.0303 64.19 32.3203C65.09 32.6703 65.94 32.9402 66.74 33.1102C67.54 33.2902 68.38 33.3802 69.25 33.3802C69.63 33.3802 70.05 33.3502 70.49 33.2802C70.94 33.2102 71.36 33.0902 71.74 32.9102C72.12 32.7302 72.44 32.5002 72.7 32.2202C72.96 31.9402 73.09 31.5603 73.09 31.1003C73.09 30.4503 72.89 29.9802 72.5 29.6902C72.11 29.4102 71.56 29.1502 70.85 28.9402L68.32 28.2103Z" fill="black"/>
<path d="M82.48 16.3002C82.86 16.2202 83.24 16.1602 83.62 16.1202C84 16.0802 84.42 16.0602 84.88 16.0602C85.34 16.0602 85.75 16.0802 86.1 16.1202C86.45 16.1602 86.82 16.2202 87.2 16.3002C87.28 16.4402 87.36 16.6302 87.42 16.8902C87.49 17.1502 87.55 17.4203 87.6 17.7103C87.66 17.9903 87.7 18.2702 87.74 18.5402C87.78 18.8102 87.82 19.0402 87.84 19.2302C88.06 18.8202 88.34 18.4102 88.7 18.0102C89.05 17.6002 89.47 17.2402 89.96 16.9102C90.45 16.5802 91 16.3202 91.61 16.1202C92.22 15.9202 92.91 15.8102 93.67 15.8102C96.96 15.8102 99.07 17.0602 99.99 19.5602C100.54 18.5602 101.31 17.6802 102.3 16.9302C103.29 16.1802 104.55 15.8102 106.07 15.8102C108.47 15.8102 110.22 16.4702 111.35 17.7902C112.48 19.1102 113.04 21.1702 113.04 23.9702V37.3902C112.06 37.5502 111.1 37.6402 110.14 37.6402C109.18 37.6402 108.22 37.5602 107.25 37.3902V25.4802C107.25 24.0102 107.07 22.8803 106.7 22.1003C106.34 21.3103 105.59 20.9202 104.48 20.9202C104.01 20.9202 103.56 20.9902 103.11 21.1202C102.66 21.2602 102.25 21.5102 101.88 21.8702C101.51 22.2402 101.22 22.7502 100.98 23.4202C100.75 24.0902 100.63 24.9502 100.63 26.0102V37.3902C99.65 37.5502 98.69 37.6402 97.74 37.6402C96.79 37.6402 95.82 37.5602 94.85 37.3902V25.4802C94.85 24.0102 94.67 22.8803 94.3 22.1003C93.93 21.3103 93.19 20.9202 92.08 20.9202C91.62 20.9202 91.15 20.9902 90.69 21.1202C90.22 21.2602 89.81 21.5202 89.44 21.9202C89.07 22.3102 88.78 22.8603 88.56 23.5703C88.34 24.2803 88.23 25.2002 88.23 26.3402V37.3902C87.25 37.5502 86.29 37.6402 85.34 37.6402C84.39 37.6402 83.42 37.5602 82.44 37.3902V16.3102L82.48 16.3002Z" fill="black"/>
<path d="M128.37 23.5202C128.37 22.8702 128.26 22.3402 128.04 21.9302C127.82 21.5202 127.52 21.2002 127.14 20.9702C126.76 20.7402 126.29 20.5802 125.73 20.5002C125.17 20.4202 124.56 20.3802 123.88 20.3802C122.41 20.3802 120.84 20.6602 119.19 21.2402C118.81 20.5302 118.52 19.8702 118.33 19.2402C118.14 18.6102 118.04 17.8702 118.04 17.0002C119.24 16.5902 120.43 16.3003 121.63 16.1003C122.83 15.9103 123.94 15.8102 124.97 15.8102C127.8 15.8102 130.01 16.4903 131.6 17.8503C133.19 19.2103 133.99 21.3902 133.99 24.3802V36.6102C133.04 36.9102 131.88 37.2002 130.53 37.4702C129.17 37.7402 127.63 37.8802 125.92 37.8802C124.53 37.8802 123.26 37.7602 122.1 37.5102C120.94 37.2702 119.96 36.8602 119.13 36.2902C118.3 35.7202 117.66 34.9802 117.21 34.0902C116.77 33.1902 116.54 32.0902 116.54 30.7802C116.54 29.4702 116.82 28.3802 117.38 27.5002C117.94 26.6202 118.66 25.9102 119.54 25.3802C120.42 24.8502 121.41 24.4702 122.49 24.2402C123.58 24.0102 124.67 23.8902 125.76 23.8902C126.55 23.8902 127.42 23.9302 128.37 24.0102V23.5202V23.5202ZM128.37 27.7202C128.04 27.6702 127.69 27.6202 127.31 27.5802C126.93 27.5402 126.59 27.5202 126.29 27.5202C124.96 27.5202 123.91 27.7602 123.13 28.2302C122.36 28.7102 121.97 29.4702 121.97 30.5402C121.97 31.2502 122.12 31.7902 122.42 32.1702C122.72 32.5502 123.08 32.8302 123.5 33.0102C123.92 33.1902 124.37 33.2902 124.85 33.3402C125.33 33.3802 125.74 33.4002 126.1 33.4002C126.51 33.4002 126.91 33.3702 127.32 33.3002C127.73 33.2302 128.08 33.1702 128.38 33.1202V27.7402L128.37 27.7202Z" fill="black"/>
<path d="M138.69 16.3002C139.07 16.2202 139.45 16.1602 139.83 16.1202C140.21 16.0802 140.63 16.0602 141.1 16.0602C141.57 16.0602 141.97 16.0802 142.32 16.1202C142.67 16.1602 143.04 16.2202 143.42 16.3002C143.5 16.4402 143.58 16.6302 143.65 16.8902C143.72 17.1502 143.78 17.4203 143.83 17.7103C143.88 17.9903 143.93 18.2702 143.97 18.5402C144.01 18.8102 144.04 19.0402 144.07 19.2302C144.34 18.8202 144.67 18.4102 145.05 18.0102C145.43 17.6002 145.87 17.2402 146.37 16.9102C146.87 16.5802 147.44 16.3202 148.06 16.1202C148.69 15.9202 149.38 15.8102 150.14 15.8102C152.53 15.8102 154.33 16.4602 155.54 17.7702C156.75 19.0802 157.35 21.1302 157.35 23.9302V37.3902C156.38 37.5502 155.41 37.6402 154.46 37.6402C153.51 37.6402 152.54 37.5602 151.57 37.3902V25.4802C151.57 24.0102 151.35 22.8803 150.9 22.1003C150.45 21.3103 149.67 20.9202 148.56 20.9202C148.09 20.9202 147.62 20.9902 147.13 21.1202C146.64 21.2602 146.2 21.5202 145.8 21.9202C145.4 22.3102 145.09 22.8603 144.84 23.5703C144.59 24.2803 144.47 25.2002 144.47 26.3402V37.3902C143.49 37.5502 142.52 37.6402 141.57 37.6402C140.62 37.6402 139.65 37.5602 138.68 37.3902V16.3102L138.69 16.3002Z" fill="black"/>
<path d="M161.25 9.26022C160.64 9.26022 160.08 9.15023 159.57 8.94023C159.06 8.73023 158.63 8.44024 158.27 8.07024C157.91 7.70024 157.63 7.27023 157.43 6.77023C157.23 6.27023 157.13 5.72023 157.13 5.13023C157.13 4.54023 157.23 4.00023 157.43 3.49023C157.63 2.98023 157.91 2.55022 158.27 2.18022C158.63 1.81022 159.06 1.53023 159.57 1.31023C160.08 1.10023 160.64 0.990234 161.25 0.990234C161.86 0.990234 162.42 1.09023 162.93 1.30023C163.44 1.51023 163.87 1.80023 164.23 2.17023C164.59 2.54023 164.87 2.98022 165.07 3.48022C165.27 3.98022 165.37 4.53022 165.37 5.12022C165.37 5.71022 165.27 6.26022 165.07 6.76022C164.87 7.26022 164.59 7.70023 164.23 8.06023C163.87 8.43023 163.44 8.72022 162.93 8.93022C162.42 9.14022 161.86 9.25023 161.25 9.25023V9.26022ZM161.25 8.44023C161.75 8.44023 162.2 8.36023 162.6 8.19023C163 8.02023 163.34 7.79023 163.62 7.49023C163.9 7.19023 164.11 6.85023 164.26 6.44023C164.41 6.04023 164.48 5.60023 164.48 5.14023C164.48 4.68023 164.41 4.24023 164.26 3.84023C164.11 3.44023 163.9 3.09022 163.62 2.79022C163.34 2.49022 163 2.26023 162.6 2.09023C162.2 1.92023 161.75 1.84023 161.25 1.84023C160.75 1.84023 160.29 1.92023 159.9 2.09023C159.5 2.26023 159.16 2.49022 158.89 2.79022C158.61 3.09022 158.4 3.44023 158.25 3.84023C158.1 4.24023 158.03 4.68023 158.03 5.14023C158.03 5.60023 158.1 6.04023 158.25 6.44023C158.4 6.84023 158.61 7.19023 158.89 7.49023C159.17 7.79023 159.51 8.02023 159.9 8.19023C160.3 8.36023 160.75 8.44023 161.25 8.44023ZM159.76 2.93022C159.97 2.89022 160.17 2.86023 160.36 2.85023C160.55 2.83023 160.77 2.82024 161 2.82024C161.7 2.82024 162.21 2.94023 162.51 3.19023C162.81 3.44023 162.97 3.76023 162.97 4.17023C162.97 4.42023 162.92 4.65023 162.82 4.84023C162.72 5.04023 162.61 5.19022 162.48 5.29022L162.31 5.42023L163.29 7.15022C163.19 7.16022 163.08 7.18022 162.96 7.18022C162.84 7.18022 162.72 7.19023 162.6 7.19023C162.5 7.19023 162.4 7.19022 162.31 7.18022C162.22 7.18022 162.13 7.16022 162.04 7.15022L161.04 5.21024L161.22 5.10023C161.39 5.00023 161.53 4.88022 161.64 4.76022C161.75 4.64022 161.81 4.49023 161.81 4.31023C161.81 4.13023 161.76 4.00023 161.65 3.89023C161.55 3.78023 161.38 3.73022 161.16 3.73022C161.11 3.73022 161.06 3.73022 161.02 3.73022C160.98 3.73022 160.92 3.74022 160.85 3.76022V7.15022C160.7 7.18022 160.53 7.19023 160.33 7.19023C160.24 7.19023 160.15 7.19022 160.05 7.18022C159.95 7.18022 159.86 7.16022 159.76 7.15022V2.91023V2.93022Z" fill="black"/>
<path d="M185.97 30.6702H174.78L172.77 37.4802C172.41 37.5302 172.06 37.5702 171.7 37.6002C171.34 37.6302 170.99 37.6402 170.63 37.6402C170.25 37.6402 169.87 37.6302 169.5 37.6002C169.13 37.5702 168.8 37.5302 168.5 37.4802L178.09 8.00021C178.44 7.95021 178.83 7.91022 179.24 7.88022C179.65 7.85022 180.07 7.84021 180.51 7.84021C180.89 7.84021 181.29 7.85022 181.7 7.88022C182.11 7.91022 182.51 7.95021 182.89 8.00021L192.44 37.4802C192.11 37.5302 191.74 37.5702 191.33 37.6002C190.92 37.6302 190.52 37.6402 190.14 37.6402C189.78 37.6402 189.42 37.6302 189.05 37.6002C188.68 37.5702 188.33 37.5302 188 37.4802L185.95 30.6702H185.97ZM175.88 27.0202H184.86L180.35 11.9702L175.88 27.0202Z" fill="black"/>
<path d="M196.4 16.4402C196.7 16.3902 196.99 16.3402 197.28 16.3202C197.57 16.3002 197.86 16.2802 198.16 16.2802C198.46 16.2802 198.74 16.2902 199 16.3202C199.26 16.3502 199.54 16.3902 199.84 16.4402C199.92 16.8502 200 17.4002 200.09 18.1002C200.17 18.8002 200.21 19.3802 200.21 19.8402C200.48 19.3802 200.83 18.9102 201.26 18.4502C201.68 17.9902 202.17 17.5702 202.72 17.2002C203.27 16.8302 203.89 16.5302 204.61 16.3002C205.32 16.0702 206.1 15.9502 206.95 15.9502C209.35 15.9502 211.13 16.6402 212.28 18.0202C213.43 19.4002 214 21.4402 214 24.1502V37.4802C213.7 37.5302 213.36 37.5702 212.98 37.6002C212.6 37.6302 212.26 37.6402 211.95 37.6402C211.64 37.6402 211.31 37.6302 210.95 37.6002C210.58 37.5702 210.25 37.5302 209.95 37.4802V25.2602C209.95 23.3202 209.65 21.8902 209.05 20.9702C208.45 20.0502 207.49 19.6002 206.18 19.6002C205.41 19.6002 204.69 19.7402 204.01 20.0102C203.33 20.2802 202.72 20.7102 202.21 21.2802C201.69 21.8502 201.27 22.6002 200.96 23.5102C200.65 24.4302 200.49 25.5302 200.49 26.8102V37.4702C200.19 37.5202 199.85 37.5602 199.49 37.5902C199.12 37.6202 198.79 37.6302 198.49 37.6302C198.19 37.6302 197.85 37.6202 197.47 37.5902C197.09 37.5602 196.75 37.5202 196.44 37.4702V16.4402H196.4Z" fill="black"/>
<path d="M230.62 23.6202C230.62 22.0102 230.21 20.8902 229.39 20.2602C228.57 19.6302 227.38 19.3202 225.82 19.3202C224.86 19.3202 223.97 19.4002 223.13 19.5502C222.3 19.7002 221.48 19.9002 220.69 20.1402C220.17 19.2402 219.91 18.1602 219.91 16.9002C220.84 16.6002 221.86 16.3702 222.99 16.2002C224.11 16.0402 225.19 15.9502 226.23 15.9502C228.96 15.9502 231.04 16.5702 232.46 17.8202C233.88 19.0602 234.59 21.0502 234.59 23.7902V36.9502C233.63 37.1702 232.47 37.3902 231.1 37.6302C229.73 37.8602 228.34 37.9802 226.92 37.9802C225.58 37.9802 224.37 37.8602 223.29 37.6102C222.21 37.3602 221.29 36.9702 220.54 36.4202C219.79 35.8702 219.21 35.1802 218.8 34.3302C218.39 33.4802 218.18 32.4602 218.18 31.2502C218.18 30.0402 218.42 29.0402 218.9 28.1502C219.38 27.2602 220.03 26.5202 220.85 25.9402C221.67 25.3502 222.61 24.9202 223.68 24.6302C224.75 24.3402 225.87 24.2002 227.04 24.2002C227.91 24.2002 228.63 24.2202 229.19 24.2602C229.75 24.3002 230.22 24.3502 230.6 24.4002V23.6202H230.62ZM230.62 27.6002C230.21 27.5502 229.69 27.4902 229.06 27.4402C228.43 27.3902 227.9 27.3602 227.46 27.3602C225.77 27.3602 224.47 27.6702 223.59 28.3002C222.7 28.9302 222.26 29.8902 222.26 31.1702C222.26 31.9902 222.41 32.6302 222.71 33.1002C223.01 33.5702 223.39 33.9202 223.84 34.1702C224.29 34.4202 224.79 34.5702 225.34 34.6202C225.89 34.6702 226.41 34.7002 226.9 34.7002C227.53 34.7002 228.18 34.6702 228.85 34.6002C229.52 34.5302 230.11 34.4302 230.63 34.2902V27.6102L230.62 27.6002Z" fill="black"/>
<path d="M240.18 7.42023C240.48 7.37023 240.82 7.33023 241.18 7.30023C241.55 7.27023 241.88 7.26022 242.18 7.26022C242.48 7.26022 242.82 7.27023 243.18 7.30023C243.54 7.33023 243.88 7.37023 244.18 7.42023V31.1202C244.18 31.8902 244.25 32.4902 244.39 32.9202C244.53 33.3602 244.71 33.6902 244.94 33.9202C245.17 34.1502 245.45 34.3002 245.76 34.3702C246.07 34.4402 246.41 34.4702 246.76 34.4702C247.01 34.4702 247.29 34.4602 247.6 34.4302C247.91 34.4002 248.18 34.3602 248.4 34.3102C248.65 35.2702 248.77 36.3102 248.77 37.4302C248.39 37.5702 247.92 37.6602 247.38 37.7002C246.83 37.7402 246.33 37.7602 245.86 37.7602C245.07 37.7602 244.33 37.6602 243.65 37.4702C242.97 37.2802 242.36 36.9602 241.85 36.5302C241.33 36.0902 240.92 35.5102 240.62 34.7702C240.32 34.0302 240.17 33.1202 240.17 32.0202V7.42023H240.18Z" fill="black"/>
<path d="M258.6 37.5202C258.38 37.5202 258.16 37.5202 257.92 37.5402C257.69 37.5502 257.46 37.5602 257.24 37.5602C256.97 37.5602 256.68 37.5602 256.38 37.5402C256.08 37.5302 255.83 37.5002 255.64 37.4802L248.67 16.4502C249.02 16.4002 249.39 16.3602 249.78 16.3502C250.16 16.3402 250.52 16.3302 250.85 16.3302C251.2 16.3302 251.6 16.3302 252.04 16.3502C252.48 16.3602 252.85 16.4002 253.15 16.4502L258.97 36.0102L265 16.4502C265.57 16.3702 266.24 16.3302 267.01 16.3302C267.31 16.3302 267.65 16.3302 268.03 16.3502C268.41 16.3702 268.8 16.4002 269.18 16.4502L261.02 41.7502C260.64 42.8702 260.24 43.8102 259.83 44.5802C259.42 45.3402 258.95 45.9602 258.44 46.4202C257.92 46.8802 257.34 47.2102 256.7 47.4002C256.06 47.5902 255.31 47.6902 254.47 47.6902C253.84 47.6902 253.22 47.6402 252.6 47.5502C251.98 47.4502 251.44 47.3402 250.98 47.2002C250.98 46.5702 251.03 46.0102 251.14 45.5202C251.25 45.0302 251.41 44.5402 251.63 44.0402C251.88 44.1202 252.21 44.2102 252.63 44.3102C253.05 44.4102 253.51 44.4502 254 44.4502C254.35 44.4502 254.69 44.4202 255 44.3502C255.31 44.2802 255.61 44.1402 255.88 43.9402C256.15 43.7302 256.41 43.4402 256.64 43.0602C256.87 42.6802 257.1 42.1602 257.32 41.5002L258.59 37.5202H258.6Z" fill="black"/>
<path d="M274.72 19.6802H271.52L271.36 19.1102L278.41 11.2402H278.74V16.4502H284.07C284.18 16.9102 284.23 17.4302 284.23 18.0102C284.23 18.3102 284.22 18.6002 284.19 18.8702C284.16 19.1402 284.12 19.4202 284.07 19.6902H278.74V29.2802C278.74 30.4302 278.79 31.3402 278.88 32.0302C278.98 32.7102 279.14 33.2402 279.37 33.6102C279.6 33.9802 279.92 34.2302 280.31 34.3502C280.71 34.4702 281.21 34.5302 281.81 34.5302C282.27 34.5302 282.71 34.5002 283.12 34.4302C283.53 34.3602 283.9 34.2902 284.23 34.2002C284.42 34.7502 284.54 35.3102 284.58 35.8802C284.62 36.4502 284.64 36.9602 284.64 37.4002C284.09 37.5402 283.52 37.6402 282.92 37.7102C282.32 37.7802 281.68 37.8102 280.99 37.8102C279.02 37.8102 277.48 37.3302 276.38 36.3702C275.27 35.4102 274.72 33.8302 274.72 31.6102V19.6802V19.6802Z" fill="black"/>
<path d="M290.26 19.6402H287.6C287.54 19.4202 287.5 19.1702 287.48 18.8802C287.45 18.5902 287.44 18.3102 287.44 18.0402C287.44 17.7702 287.45 17.4902 287.48 17.2002C287.51 16.9102 287.55 16.6602 287.6 16.4402H294.24V37.4702C293.94 37.5202 293.6 37.5602 293.24 37.5902C292.87 37.6202 292.54 37.6302 292.24 37.6302C291.97 37.6302 291.65 37.6202 291.28 37.5902C290.91 37.5602 290.58 37.5202 290.28 37.4702V19.6402H290.26ZM289.36 11.8102C289.3 11.4802 289.27 11.1302 289.26 10.7402C289.25 10.3602 289.24 10.0202 289.24 9.72025C289.24 9.42025 289.24 9.08025 289.26 8.69025C289.27 8.31025 289.31 7.97025 289.36 7.66025C289.71 7.61025 290.1 7.57024 290.51 7.54024C290.92 7.51024 291.28 7.50024 291.58 7.50024C291.88 7.50024 292.24 7.51024 292.65 7.54024C293.06 7.57024 293.43 7.61025 293.76 7.66025C293.81 7.96025 293.85 8.30025 293.86 8.69025C293.87 9.07025 293.88 9.41025 293.88 9.72025C293.88 10.0302 293.88 10.3602 293.86 10.7402C293.85 11.1202 293.81 11.4802 293.76 11.8102C293.43 11.8602 293.07 11.9102 292.67 11.9302C292.27 11.9602 291.92 11.9702 291.62 11.9702C291.29 11.9702 290.92 11.9602 290.51 11.9302C290.1 11.9002 289.72 11.8602 289.36 11.8102V11.8102Z" fill="black"/>
<path d="M314.31 33.8302C314.53 34.2102 314.72 34.6902 314.88 35.2702C315.04 35.8402 315.14 36.4302 315.17 37.0302C313.56 37.6602 311.71 37.9702 309.63 37.9702C306.13 37.9702 303.49 36.9802 301.72 35.0002C299.94 33.0202 299.05 30.3502 299.05 26.9802C299.05 25.4202 299.27 23.9702 299.71 22.6302C300.15 21.2902 300.8 20.1302 301.66 19.1402C302.52 18.1602 303.59 17.3802 304.88 16.8002C306.16 16.2302 307.65 15.9402 309.35 15.9402C310.5 15.9402 311.51 16.0102 312.38 16.1502C313.25 16.2902 314.09 16.5102 314.88 16.8102C314.88 17.2702 314.82 17.8102 314.7 18.4302C314.58 19.0502 314.41 19.5902 314.19 20.0502C312.85 19.5902 311.32 19.3503 309.6 19.3503C307.5 19.3503 305.92 20.0502 304.89 21.4402C303.85 22.8302 303.33 24.6802 303.33 26.9802C303.33 29.6002 303.92 31.5202 305.09 32.7402C306.26 33.9602 307.88 34.5602 309.93 34.5602C310.75 34.5602 311.51 34.5102 312.21 34.4002C312.91 34.2902 313.61 34.1002 314.32 33.8302H314.31Z" fill="black"/>
<path d="M319.59 33.6602C320.33 33.9602 321.14 34.2002 322.03 34.3802C322.92 34.5602 323.8 34.6502 324.67 34.6502C325.3 34.6502 325.9 34.5802 326.47 34.4402C327.04 34.3002 327.54 34.1002 327.97 33.8202C328.39 33.5502 328.74 33.2102 328.99 32.8202C329.24 32.4302 329.38 31.9802 329.38 31.4902C329.38 30.9402 329.28 30.4902 329.07 30.1402C328.86 29.7902 328.59 29.4802 328.25 29.2402C327.91 28.9902 327.51 28.7802 327.06 28.6002C326.61 28.4202 326.12 28.2502 325.6 28.0902L324.16 27.5602C322.41 26.9002 321.14 26.1702 320.35 25.3502C319.56 24.5302 319.16 23.4202 319.16 22.0302C319.16 20.1702 319.82 18.7002 321.15 17.6002C322.48 16.5102 324.42 15.9602 326.99 15.9602C328.06 15.9602 329.1 16.0602 330.13 16.2702C331.16 16.4802 332.05 16.7102 332.82 16.9902C332.77 17.5402 332.66 18.0802 332.51 18.6302C332.36 19.1802 332.17 19.6802 331.96 20.1502C331.36 19.9302 330.64 19.7202 329.81 19.5102C328.98 19.3002 328.08 19.2002 327.12 19.2002C326.11 19.2002 325.21 19.3802 324.43 19.7302C323.65 20.0902 323.26 20.7102 323.26 21.6202C323.26 22.0802 323.36 22.4802 323.55 22.8102C323.74 23.1402 324 23.4202 324.33 23.6502C324.66 23.8802 325.03 24.0802 325.46 24.2402C325.88 24.4002 326.34 24.5702 326.83 24.7302L328.63 25.3402C329.29 25.5602 329.91 25.8202 330.5 26.1202C331.09 26.4202 331.59 26.8002 332.02 27.2502C332.44 27.7002 332.79 28.2502 333.04 28.8902C333.3 29.5302 333.43 30.3102 333.43 31.2102C333.43 32.2202 333.22 33.1402 332.81 33.9802C332.4 34.8102 331.82 35.5202 331.07 36.1102C330.32 36.7002 329.41 37.1602 328.34 37.4802C327.27 37.8102 326.1 37.9702 324.81 37.9702C323.52 37.9702 322.35 37.8802 321.37 37.7002C320.39 37.5202 319.47 37.2802 318.62 36.9802C318.67 36.4302 318.79 35.8802 318.97 35.3202C319.15 34.7602 319.35 34.2102 319.56 33.6602H319.59Z" fill="black"/>
</svg>
