<svg width="34" height="34" viewBox="0 0 34 34" fill="none" xmlns="http://www.w3.org/2000/svg">
<path d="M17.1745 26.8402C17.5594 26.8402 17.8994 26.697 18.1769 26.4196C18.4543 26.1421 18.6065 25.7842 18.6065 25.3725C18.6065 24.9876 18.4633 24.6475 18.1769 24.3701C17.8905 24.0837 17.5594 23.9405 17.1745 23.9405C16.7897 23.9405 16.4496 24.0837 16.1721 24.3611C15.8947 24.6386 15.7426 24.9787 15.7426 25.3635C15.7426 25.7842 15.8858 26.1332 16.1721 26.4106C16.4585 26.6881 16.7897 26.8402 17.1745 26.8402ZM17.1298 9.07502C18.1769 9.07502 19.0182 9.36141 19.6625 9.92524C20.3069 10.4891 20.6291 11.223 20.6291 12.1179C20.6291 12.7176 20.4591 13.2993 20.11 13.8631C19.7699 14.427 19.224 15.0445 18.4722 15.6978C17.7294 16.3869 17.1387 17.085 16.7002 17.801C16.2616 18.517 16.0379 19.1882 16.0111 19.8147C16.0111 20.0563 16.1095 20.2532 16.3064 20.4143C16.5033 20.5754 16.7181 20.656 16.9597 20.656C17.2551 20.656 17.4967 20.5665 17.6757 20.3875C17.8547 20.2085 17.9621 19.9847 17.9889 19.7162C18.0784 19.1524 18.2753 18.6333 18.5707 18.1679C18.866 17.7026 19.3493 17.2014 20.0026 16.6733C20.8708 15.8947 21.4972 15.1608 21.8821 14.4538C22.2669 13.7557 22.4638 12.9681 22.4638 12.109C22.4638 10.6502 21.9895 9.45986 21.0318 8.54699C20.0742 7.63411 18.8213 7.17768 17.273 7.18663C16.2258 7.18663 15.2503 7.41037 14.3464 7.85786C13.4335 8.30534 12.6818 8.94972 12.0821 9.78205C11.9031 10.0237 11.8315 10.2743 11.8584 10.5428C11.8852 10.8113 12.0105 11.0082 12.2164 11.1245C12.4849 11.3303 12.7623 11.4019 13.0397 11.3303C13.3172 11.2588 13.5678 11.0887 13.7826 10.8113C14.1674 10.3011 14.6328 9.88944 15.1698 9.5583C15.7068 9.22716 16.3601 9.06607 17.1387 9.06607L17.1298 9.07502ZM16.9955 34C14.6059 34 12.3864 33.5704 10.328 32.7023C8.26954 31.8342 6.47065 30.6349 4.94025 29.0956C3.40984 27.5562 2.19268 25.7573 1.31561 23.681C0.438536 21.6046 0 19.3762 0 16.9955C0 14.6149 0.438536 12.3864 1.31561 10.328C2.19268 8.26954 3.40089 6.47065 4.94025 4.94025C6.4796 3.40984 8.27849 2.19268 10.328 1.31561C12.3864 0.438536 14.6059 0 16.9955 0C19.3851 0 21.5599 0.438536 23.6183 1.31561C25.6768 2.19268 27.4757 3.40089 29.0061 4.94025C30.5365 6.4796 31.7626 8.27849 32.6575 10.328C33.5525 12.3775 34 14.6059 34 16.9955C34 19.3851 33.5525 21.6136 32.6575 23.6899C31.7626 25.7663 30.5454 27.5651 29.0061 29.1045C27.4667 30.6439 25.6768 31.8431 23.6183 32.7023C21.5599 33.5704 19.3493 34 16.9955 34ZM16.9955 31.9863C21.1392 31.9863 24.6744 30.5186 27.6009 27.583C30.5275 24.6475 31.9863 21.1124 31.9863 16.9955C31.9863 12.8787 30.5275 9.35246 27.6009 6.41695C24.6744 3.48144 21.1392 2.00474 16.9955 2.00474C12.8518 2.00474 9.28086 3.47249 6.36325 6.41695C3.45459 9.35246 1.99579 12.8787 1.99579 16.9955C1.99579 21.1124 3.44564 24.6386 6.36325 27.583C9.28086 30.5275 12.816 31.9863 16.9955 31.9863Z" fill="#4793F8"/>
</svg>
