<svg width="34" height="34" viewBox="0 0 34 34" fill="none" xmlns="http://www.w3.org/2000/svg">
<path d="M23.06 32.73V23.37H25.14V29.29C27.22 27.72 28.82 25.87 29.96 23.73C31.09 21.59 31.66 19.34 31.66 16.99C31.66 13.22 30.52 9.95 28.25 7.18C25.97 4.41 23.04 2.7 19.46 2.07V0C23.59 0.63 27 2.52 29.7 5.67C32.4 8.82 33.75 12.6 33.75 17C33.75 19.59 33.14 22.07 31.92 24.44C30.7 26.81 28.97 28.89 26.74 30.7H32.44V32.73H23.08H23.06ZM14.29 34C12.24 33.7 10.34 33.05 8.59 32.06C6.84 31.07 5.33 29.82 4.07 28.33C2.8 26.84 1.81 25.13 1.09 23.2C0.37 21.27 0 19.21 0 17.01C0 14.42 0.61 11.95 1.83 9.6C3.05 7.25 4.78 5.15 7.01 3.32H1.31V1.27H10.67V10.63H8.59V4.7C6.51 6.27 4.91 8.12 3.77 10.26C2.64 12.4 2.07 14.65 2.07 17C2.07 20.77 3.21 24.04 5.48 26.81C7.76 29.58 10.69 31.29 14.27 31.92V34H14.29ZM14.29 24.23L7.73 17.67L9.18 16.22L14.29 21.33L24.55 11.07L26 12.52L14.29 24.23Z" fill="#4793F8"/>
</svg>
